<?xml version="1.0" encoding="utf-8"?>
<!-- Generator: Adobe Illustrator 24.3.0, SVG Export Plug-In . SVG Version: 6.00 Build 0)  -->
<svg version="1.1" id="Layer_3" xmlns="http://www.w3.org/2000/svg" xmlns:xlink="http://www.w3.org/1999/xlink" x="0px" y="0px"
	 viewBox="0 0 502 395" style="enable-background:new 0 0 502 395;" xml:space="preserve">
<style type="text/css">
	.st0{fill:#FAC921;}
</style>
<path class="st0" d="M1143.9-54.6l-240-128c-2.4-1.3-5.2-1.3-7.5,0l-240,128c-2.6,1.4-4.2,4.1-4.2,7.1s1.6,5.7,4.2,7.1l67.8,36.1
	V96.5h16V4.2l24,12.8v48.6c-13.8,3.6-24,16-24,30.9c0,7.3,2.6,14,6.7,19.4c-4.4,14.9-6.7,30.3-6.7,45.9v22.7c0,3,1.7,5.8,4.4,7.2
	l8.8,4.4c5.8,2.9,12.3,4.4,18.7,4.4c6.5,0,12.9-1.5,18.7-4.4l8.8-4.4c2.7-1.4,4.4-4.1,4.4-7.2v-22.7c0-15.6-2.3-31-6.7-45.9
	c4.1-5.4,6.7-12.1,6.7-19.4c0-14.9-10.2-27.3-24-30.9V25.6l116.2,62c1.2,0.6,2.5,0.9,3.8,0.9s2.6-0.3,3.8-0.9l156.2-83.3v88.3
	c-44.5,33.5-99.5,52-155.2,52h-9.6c-27.5,0-54.6-4.4-80.7-13l-5,15.2c27.7,9.1,56.5,13.8,85.7,13.8h9.6
	c60.6,0,120.3-20.5,168.1-57.7c1.9-1.5,3.1-3.8,3.1-6.3V-4.3l67.8-36.1c2.6-1.4,4.2-4.1,4.2-7.1S1146.5-53.2,1143.9-54.6z
	 M788.1,179.6l-4.4,2.2c-7.2,3.6-16,3.6-23.2,0l-4.4-2.2v-17.8c0-12,1.5-23.9,4.4-35.6c3.6,1.4,7.5,2.3,11.6,2.3
	c4.1,0,8-0.8,11.6-2.3c2.9,11.6,4.4,23.5,4.4,35.6V179.6z M788.1,96.5c0,8.8-7.2,16-16,16c-8.8,0-16-7.2-16-16s7.2-16,16-16
	C781,80.5,788.1,87.7,788.1,96.5z M900.1,71.4L785.6,10.4l99.1-52.9c4.6,1.9,9.7,3,15.4,3c17.9,0,32-10.5,32-24s-14.1-24-32-24
	c-17.9,0-32,10.5-32,24c0,3.7,1.1,7.1,3,10.1L768.6,1.3l-91.5-48.8l223-118.9l223,118.9L900.1,71.4z M884.1-63.5c0-3.3,6.2-8,16-8
	s16,4.7,16,8s-6.2,8-16,8S884.1-60.2,884.1-63.5z"/>
<g>
	<g>
		<path class="st0" d="M464,49.5H323v-26c0-12.1-9.9-22-22-22H201c-12.1,0-22,9.9-22,22v26H38c-14.9,0-27,12.1-27,27v290
			c0,14.9,12.1,27,27,27h426c14.9,0,27-12.1,27-27v-290C491,61.6,478.9,49.5,464,49.5z M195,23.5c0-3.3,2.7-6,6-6h100
			c3.3,0,6,2.7,6,6v26H195V23.5z M475,366.5c0,6.1-4.9,11-11,11H38c-6.1,0-11-4.9-11-11V183.2c23.7,11.6,82.4,33.2,192,34.3v24.1
			c0,4.4,3.6,8,8,8h48c4.4,0,8-3.6,8-8v-24.1c109.6-1,168.3-22.7,192-34.3V366.5z M235,233.5v-56h32v56H235z M475,165
			c-13.7,7.8-70.6,35.2-192,36.4v-31.9c0-4.4-3.6-8-8-8h-48c-4.4,0-8,3.6-8,8v31.9C97.6,200.3,40.7,172.8,27,165V76.5
			c0-6.1,4.9-11,11-11h426c6.1,0,11,4.9,11,11V165z"/>
	</g>
</g>
</svg>
