<?xml version="1.0" encoding="utf-8"?>
<!-- Generator: Adobe Illustrator 24.3.0, SVG Export Plug-In . SVG Version: 6.00 Build 0)  -->
<svg version="1.1" id="Layer_3" xmlns="http://www.w3.org/2000/svg" xmlns:xlink="http://www.w3.org/1999/xlink" x="0px" y="0px"
	 viewBox="0 0 502 395" style="enable-background:new 0 0 502 395;" xml:space="preserve">
<style type="text/css">
	.st0{fill:#FAC921;}
</style>
<path class="st0" d="M494.8,135.9l-240-128c-2.4-1.3-5.2-1.3-7.5,0l-240,128C4.6,137.3,3,140,3,143s1.6,5.7,4.2,7.1L75,186.2V287h16
	v-92.3l24,12.8v48.6c-13.8,3.6-24,16-24,30.9c0,7.3,2.6,14,6.7,19.4c-4.4,14.9-6.7,30.3-6.7,45.9V375c0,3,1.7,5.8,4.4,7.2l8.8,4.4
	c5.8,2.9,12.3,4.4,18.7,4.4c6.5,0,12.9-1.5,18.7-4.4l8.8-4.4c2.7-1.4,4.4-4.1,4.4-7.2v-22.7c0-15.6-2.3-31-6.7-45.9
	c4.1-5.4,6.7-12.1,6.7-19.4c0-14.9-10.2-27.3-24-30.9v-40.1l116.2,62c1.2,0.6,2.5,0.9,3.8,0.9c1.3,0,2.6-0.3,3.8-0.9L411,194.7V283
	c-44.5,33.5-99.5,52-155.2,52h-9.6c-27.5,0-54.6-4.4-80.7-13l-5,15.2c27.7,9.1,56.5,13.8,85.7,13.8h9.6
	c60.6,0,120.3-20.5,168.1-57.7c1.9-1.5,3.1-3.8,3.1-6.3V186.2l67.8-36.1c2.6-1.4,4.2-4.1,4.2-7.1S497.4,137.3,494.8,135.9z
	 M139,370.1l-4.4,2.2c-7.2,3.6-16,3.6-23.2,0l-4.4-2.2v-17.8c0-12,1.5-23.9,4.4-35.6c3.6,1.4,7.5,2.3,11.6,2.3c4.1,0,8-0.8,11.6-2.3
	c2.9,11.6,4.4,23.5,4.4,35.6V370.1z M139,287c0,8.8-7.2,16-16,16s-16-7.2-16-16s7.2-16,16-16S139,278.2,139,287z M251,261.9
	l-114.5-61.1l99.1-52.9c4.6,1.9,9.7,3,15.4,3c17.9,0,32-10.5,32-24s-14.1-24-32-24s-32,10.5-32,24c0,3.7,1.1,7.1,3,10.1l-102.5,54.7
	L28,143L251,24.1L474,143L251,261.9z M235,127c0-3.3,6.2-8,16-8s16,4.7,16,8s-6.2,8-16,8S235,130.3,235,127z"/>
</svg>
