<?xml version="1.0" encoding="utf-8"?>
<!-- Generator: Adobe Illustrator 24.3.0, SVG Export Plug-In . SVG Version: 6.00 Build 0)  -->
<svg version="1.1" xmlns="http://www.w3.org/2000/svg" xmlns:xlink="http://www.w3.org/1999/xlink" x="0px" y="0px"
	 viewBox="0 0 321.7 151.6" style="enable-background:new 0 0 321.7 151.6;" xml:space="preserve">
<style type="text/css">
	.st0{fill:#FFFFFF;}
	.st1{fill:#FFD192;}
	.st2{fill:#27213B;}
	.st3{fill:none;stroke:#F89F75;stroke-miterlimit:10;}
	.st4{fill:none;stroke:#F89F75;stroke-width:2;stroke-miterlimit:10;}
	.st5{opacity:0.2;}
</style>
<g id="BACKGROUND">
</g>
<g id="OBJECTS">
	<g>
		<path class="st0" d="M127.8,112c0.8-0.3,1.6-0.6,2.4-1c0.8-0.4,1.5-0.8,2-1.3c0.6-0.5,0.9-1.1,1.1-1.7c0.1-0.6,0-1.3-0.2-2
			c-0.3-0.7-0.6-1.3-1-2c-0.4-0.7-0.7-1.3-1.1-1.9c-0.7-1.2-1.4-2.2-2.3-2.9c-0.8-0.7-1.7-0.5-2.5-0.1c-0.2,0.1-0.5,0.2-0.7,0.4
			c-1,0.9-2.5,2.2-4,4.3c-0.7,0.9-1.3,2.1-1.7,3.3c-0.4,1.2-0.5,2.6,0,3.9c0.1,0.3,0.3,0.6,0.5,0.9c0.1,0.2,0.2,0.3,0.3,0.4
			c0.1,0.1,0.2,0.2,0.3,0.3c0.5,0.3,1.2,0.5,2,0.5C124.5,113,126.2,112.5,127.8,112z"/>
		<path class="st0" d="M104.6,101.2c0.8,0.2,1.6,0.4,2.4,0.1c0.4-0.1,0.9-0.3,1.3-0.4c0.4-0.2,0.9-0.4,1.3-0.7
			c0.9-0.5,1.8-1.1,2.7-1.6c1.7-1.2,3.4-2.4,4.7-3.8c0.6-0.7,1.2-1.5,1.3-2.1c0.1-0.6-0.2-1.3-0.7-1.9c-1.1-1.3-2.6-2.2-3.9-3.1
			c-0.7-0.4-1.4-0.8-2-1.2c-0.6-0.4-1.3-0.7-1.9-0.9c-1.2-0.5-2.4-0.5-3.3-0.1c-1,0.4-1.7,0.9-2.3,1.4c-0.1,0.1-0.2,0.2-0.3,0.2
			c0,0,0,0,0,0c-1,1.2-2.7,2.8-4,5.1c-0.6,1.2-0.9,2.5-0.4,3.9c0.5,1.4,1.6,2.6,3,3.8c0.3,0.3,0.7,0.5,1,0.8
			C103.8,100.9,104.2,101,104.6,101.2z"/>
		<polygon class="st1" points="66.2,97.1 66.2,97.1 66.2,97.1 		"/>
		<path class="st0" d="M60.9,93.9c0.3,0.3,0.8,0.8,1.3,1.2c1,0.8,2.1,1.6,3.3,1.9c0.3,0.1,0.5,0.1,0.7,0.1l-0.1-0.2
			c-0.1-0.3-0.3-0.6-0.4-0.9c-0.6-1.2-1.2-2.3-1.8-3.4c-0.6-1.1-1.1-2.1-1.6-3.1c-0.5-0.9-1.1-1.8-1.5-2.7c-0.4-0.8-0.6-1.6-0.7-2.4
			c-0.3,0.7-0.5,1.4-0.7,2.2c-0.2,1.7-0.1,3.7,0.8,5.7C60.3,92.9,60.6,93.4,60.9,93.9z"/>
		<path class="st0" d="M132.7,126.6c0.6,0,1.1-0.1,1.6-0.4c0.5-0.3,1-0.6,1.4-1.1c0.5-0.5,0.9-1,1.3-1.6c0.2-0.3,0.4-0.6,0.6-0.9
			c0.3-0.3,0.5-0.6,0.7-0.9c0.5-0.5,0.9-1,1.3-1.5c0.2-0.2,0.4-0.5,0.6-0.7c0.1-0.1,0.2-0.2,0.2-0.3c0.1-0.1,0-0.1,0-0.1
			c0,0,0,0,0-0.1c0-0.1-0.1-0.2-0.1-0.3c-0.1-0.2-0.2-0.4-0.3-0.6c-0.2-0.4-0.5-0.7-0.8-1.1c-0.3-0.3-0.5-0.7-0.8-0.9
			c-0.1-0.2-0.3-0.3-0.4-0.4c-0.1-0.2-0.2-0.1-0.3-0.3l-0.1,0c-0.6-0.3-1.3-0.3-2-0.1c-0.7,0.7-1.4,1.3-2,1.9
			c-0.6,0.6-1.2,1.3-1.9,1.9c-0.3,0.4-0.6,0.8-1,1.1c0,0,0,0,0,0.1c-0.9,1.4-1.9,3.6-0.7,5.1C130.6,126.2,131.6,126.6,132.7,126.6z"
			/>
		<path class="st0" d="M114.6,61.9c0.6,0.3,1.3,0.3,2.2,0.4c0.8,0.1,1.7,0,2.5,0c1.7-0.2,3.3-0.8,4.5-2.1c1.2-1.3,2-3.1,2.5-5
			c0.5-2,0.9-3.9,0.4-5.6c-0.2-0.8-0.6-1.6-1.1-2.2c-0.6-0.6-1.2-1-2-1.2c-1.5-0.4-3.1,0-4.4,0.7c-1.3,0.7-2.4,1.7-3.2,2.7
			c-0.2,0.2-0.3,0.4-0.4,0.6c-0.5,1.2-1.1,2.7-1.6,4.3c-0.6,1.9-1,3.6-1.2,4.9c0,0.1,0,0.3,0,0.4c0.1,0.3,0.2,0.6,0.4,0.9
			C113.5,61.3,114,61.7,114.6,61.9z"/>
		<g>
			<g>
				<path class="st2" d="M143.1,84.3c2.7,1.8,4.5,3.8,4.2,4c-0.3,0.3-2.4-1.1-5-2.8c-2.6-1.6-4.9-2.7-4.8-3.1
					C137.6,82.1,140.3,82.6,143.1,84.3z"/>
			</g>
		</g>
		<g>
			<g>
				<path class="st2" d="M146.7,84.7c0.2,1.1,0.4,2.2,0.6,2.9c0.2,0.7,0.4,1.2,0.2,1.3c-0.1,0.1-0.6-0.2-1.1-0.9
					c-0.5-0.7-0.9-1.8-1.1-3.1c-0.4-2.5,0.1-4.5,0.5-4.5C146.2,80.4,146.4,82.4,146.7,84.7z"/>
			</g>
		</g>
		<path d="M293.7,85l1.2,0l1.2-0.1l1.2-0.1c0.4,0,0.9-0.2,1.3-0.2c3.5-0.9,6.1-3.4,8.1-6.1c2-2.8,3.5-5.8,4.8-9
			c1.2-3.2,2.5-6.3,3.5-9.7c2-6.7,3.2-13.4,3.8-19.9c0.6-6.5,0.8-12.8,0.9-18.8c0.1-3-0.1-6.1-1-9c-0.4-1.4-1.1-2.8-2-4.1
			c-0.9-1.2-2.2-2.2-3.6-2.8c-0.4-0.1-0.7-0.3-1.1-0.4c-0.5-0.1-0.8-0.1-1.2-0.1c-0.7,0-1.4,0.1-2,0.1c-1.3,0.1-2.6,0.3-3.8,0.5
			c-2.5,0.4-4.8,0.7-7,1.1c-2.2,0.4-4.3,0.7-6.3,1.1c-1.4,0.2-2.7,0.5-3.9,0.8c-0.7,0.1-1.4,0.2-2.2,0.3c-3.2,0.5-6.6,1.1-10.1,1.7
			c-7,1.4-14.8,2.3-23,3.4c-2.1,0.3-4.1,0.6-6.1,0.9c-2,0.3-3.9,0.6-5.9,0.9c-3.8,0.5-7.5,0.8-11.1,0.8c-6.4,0-12.1-1.4-17-2.8
			c-1.9-0.9-3.9-1.7-6.2-2.3c-5.2-1.5-10-2-13.3-2.2c-4.3-0.8-9.3-1.5-14.6-2.3c-6.5-1-13.8-2.5-21.6-1.9c-0.8,0.1-1.7,0.2-2.5,0.3
			c-0.5-0.2-1.1-0.6-1.8-1c-0.7-0.4-1.4-0.9-2.2-1.4c-0.8-0.5-1.7-1-2.8-1.5c-0.5-0.2-1.3-0.4-1.9-0.4c-0.6-0.1-1.2,0-1.9,0
			c-1.3,0.1-2.6,0.3-4,0.6c-1.4,0.3-2.8,0.7-4.2,1.2c-1.4,0.4-2.9,0.8-4.5,1.2c-0.8,0.2-1.6,0.4-2.3,0.7c-0.8,0.2-1.6,0.4-2.5,0.6
			c-1.7,0.4-3.4,0.7-5.1,1.1c-7.1,1.4-15,2.8-23.2,3.7c-16.6,1.4-31.8,0.5-42.7-0.3c-6.6-0.5-11.7-1-14.7-1.2
			c-0.2,0-0.3-0.1-0.5-0.1c-1.8-0.4-4-0.8-6.6-1.2c-2.6-0.3-5.6-0.6-9-0.1c-1.7,0.2-3.4,0.8-5.1,1.7c-1.7,1-3.1,2.3-4.4,3.8
			c-2.6,3.1-4.4,6.8-6.4,10.6c-2.1,3.8-3.9,8.1-5,12.8c-0.6,2.4-1,4.7-1.4,7.1c-0.4,2.4-0.7,4.9-0.9,7.4c-0.2,2.5-0.2,5.1,0.2,7.6
			c0.4,2.5,1.2,5,2.8,7.2c0.8,1,1.8,1.9,3,2.6c1.1,0.6,2.4,1,3.6,1.2c2.2,0.4,4.4,0.8,6.5,1.2c4.2,0.8,8.2,1.5,12,2.2
			c3.7,0.8,7.2,1.5,10.4,2.1C46,76,51.2,77,54.8,77.6c0.2,0,0.3,0,0.5,0c1.8,0.4,3.8,0.7,5.8,1.2c0.5,0.2,1.1,0.4,1.7,0.7
			c-0.6,0.2-1.2,0.5-1.7,0.9c-0.7,0.5-1.2,1.2-1.6,1.9c-0.8,1.4-1.4,3-1.8,4.6c-0.4,1.6-0.7,3.3-0.8,5.1c-0.1,3.6,0.7,7.5,3.3,10.6
			c1.3,1.5,3.1,2.8,5.2,3.3c2.1,0.5,4.3,0.2,6.2-0.6c1.9-0.7,3.7-1.5,5.4-2.7c0.4-0.3,0.8-0.6,1.2-0.9c-0.2,0.4-0.4,0.9-0.6,1.4
			c-0.7,1.8-1.1,4.2-1.1,6.9c0.1,2.7,0.6,5.9,2.1,9c0.8,1.6,1.9,3.1,3.4,4.3c1.5,1.3,3.5,2.1,5.6,2.3c0.5,0.1,1.1,0,1.6,0
			c0.5-0.1,1.1-0.1,1.6-0.2c1-0.2,2.2-0.5,3.2-1.1c2-1.2,3.5-3.1,4.7-4.9c0.2-0.3,0.4-0.6,0.6-0.9c-0.1,0.5-0.3,1-0.4,1.5
			c-0.1,0.8-0.1,1.5-0.1,2.3c0,0.8,0,1.5,0,2.4c0,1.6,0,3.3,0.1,5.1c0.2,1.8,0.6,3.7,1.7,5.5c1.1,1.8,2.9,3.2,5,3.8
			c2.1,0.6,4.2,0.8,6.5,0.6c1.1-0.1,2.3-0.3,3.4-0.8c1.1-0.5,2.1-1.3,2.9-2.1c0,0,0.1-0.1,0.1-0.1c0.1,1.3,0.5,2.5,1.1,3.6
			c0.8,1.6,1.9,2.9,3.1,4.2c1.2,1.3,2.5,2.6,4.1,3.7c3.1,2.1,7.1,3.3,11.2,2.7c2-0.3,3.9-1,5.6-1.9c0.8-0.5,1.6-1,2.4-1.7
			c0.4-0.3,0.7-0.6,1.1-1c0.3-0.3,0.7-0.7,1-1.1c0.2-0.2,0.3-0.5,0.4-0.8c0.1-0.2,0.1-0.3,0.1-0.5c0.1,0.1,0.3,0.2,0.4,0.2
			c2.2,1.1,4.5,1.8,6.8,2.2c2.3,0.3,4.5,0.3,6.7,0c1.1-0.2,2.1-0.5,3-0.8c0.9-0.4,1.8-0.8,2.6-1.3c0.8-0.5,1.6-1.1,2.2-1.9
			c0.6-0.7,1-1.7,1-2.6c0-0.4,0-0.9-0.2-1.3c0.9,0.3,1.8,0.6,2.7,0.8c2.4,0.5,5,0.2,7.2-0.8c2.1-1.1,3.9-2.4,5.4-3.9
			c0.7-0.8,1.4-1.6,1.9-2.6c0.4-0.8,0.7-1.7,0.6-2.6c1.1,0.6,2.2,1,3.4,1.3c2.6,0.7,5.4,0.6,7.8-0.3c1.2-0.4,2.2-1.1,3.2-1.9
			c0.4-0.4,0.9-0.8,1.2-1.2c0.4-0.4,0.7-0.9,1-1.3c1.3-1.8,2.2-3.5,2.8-5.3c0.6-1.8,0.8-3.5,0.6-5c-0.2-1.5-0.8-2.7-1.5-3.5
			c-0.3-0.4-0.6-0.8-0.9-1c-0.1-0.1-0.2-0.2-0.3-0.3c0.1-0.1,0.2-0.1,0.4-0.2c1.2-0.7,2.4-1.5,3.6-2.2c0.4-0.3,0.8-0.6,1.2-0.8
			c2.9,1.5,6.1,2.7,9.7,2.7c2.1,0,4.3-0.4,6.3-1.4c2-1,3.8-2.5,4.9-4.6c1.1-2.1,1.4-4.5,1-6.7c-0.1-0.6-0.2-1.1-0.4-1.6
			c-0.1-0.5-0.3-1-0.5-1.5c-0.2-0.5-0.5-1-0.8-1.4c0.1,0,0.2-0.1,0.3-0.1c0.6,0.1,1.3,0.2,1.9,0.1c1.8-0.4,3.2-1.4,4.7-2.1
			c0.1,0,0.1-0.1,0.2-0.1c2.1-0.8,4.5-1.8,7.3-2.9c5.7-1.9,11-3.2,15-4.2c0.4-0.1,0.8-0.2,1.1-0.2c3.2-0.5,6.7-0.7,10.3-0.7
			c1.3,0.1,2.6,0.1,4,0.2c1.3,0.2,2.7,0.3,4.1,0.6c2.8,0.4,5.6,1,8.7,1.3C290.6,84.9,292.1,85.1,293.7,85z M66.2,97.1L66.2,97.1
			L66.2,97.1C66.2,97.1,66.2,97.1,66.2,97.1z M59.3,86.7c0.2-0.8,0.4-1.5,0.7-2.2c0.1,0.7,0.3,1.5,0.7,2.4c0.4,0.9,1,1.8,1.5,2.7
			c0.5,1,1.1,2,1.6,3.1c0.6,1.1,1.2,2.2,1.8,3.4c0.1,0.3,0.3,0.6,0.4,0.9l0.1,0.2c-0.2,0-0.4,0-0.7-0.1c-1.1-0.4-2.3-1.2-3.3-1.9
			c-0.5-0.4-1-0.9-1.3-1.2c-0.3-0.5-0.6-0.9-0.8-1.5C59.2,90.4,59.1,88.4,59.3,86.7z M76.1,101.3c-1.5,1-3.3,1.8-5.1,2.5
			c-1.7,0.7-3.6,1-5.3,0.6c-1.7-0.4-3.2-1.4-4.3-2.7c-2.2-2.6-3.1-6.1-3-9.3c0.1,0.2,0.1,0.5,0.2,0.7c0.2,0.6,0.6,1.2,1,1.8
			c0.5,0.6,1,1,1.6,1.5c1.1,0.9,2.2,1.7,3.8,2.3c0.4,0.1,0.8,0.2,1.4,0.2c0.7-0.1,1.2-0.5,1.6-1c0-0.2,0.1-0.3,0.1-0.4
			c0-0.2-0.1-0.3-0.1-0.5c-0.1-0.2-0.1-0.3-0.2-0.4l-0.1-0.3c-0.2-0.3-0.3-0.6-0.5-0.9c-0.6-1.2-1.3-2.3-1.9-3.4
			c-0.6-1.1-1.2-2.1-1.8-3c-0.6-1-1.2-1.8-1.6-2.5c-0.8-1.3-1-2.5-1-3.4c0.3-0.5,0.7-1,1.2-1.4c0.5-0.4,1-0.7,1.6-0.8
			c0.7-0.1,1.4,0,2.2,0.2c0.3,0.2,0.6,0.3,0.9,0.5c0.7,0.3,1.3,0.7,1.9,1.1c1.3,0.7,2.5,1.8,3.7,2.8c1.3,1.1,2.6,2.1,3.7,3.3
			c1.2,1.2,2.3,2.5,2.9,4c0.6,1.5,0.8,3.2,0.3,4.8C78.9,99,77.7,100.3,76.1,101.3z M97.4,118.7c-1.2,1.8-2.4,3.5-4.1,4.5
			c-0.8,0.5-1.7,0.7-2.7,0.9c-0.5,0.1-1,0.1-1.4,0.2c-0.5,0-0.9,0-1.4,0c-1.8-0.1-3.5-0.8-4.9-1.9c-1.4-1.1-2.4-2.4-3.1-3.9
			c-1.5-2.9-2.1-5.9-2.2-8.5c-0.1-2,0.1-3.9,0.4-5.4c0.2-0.5,0.5-1.1,0.8-1.7c0.9-1.6,2.1-3.5,4-5.5c1.8-1.9,4.1-3.9,6.9-5.8
			c1.4-1,2.8-1.9,4.4-2.9c1.5-1,3.1-2.1,4.8-3.2c1.7-1.1,3.4-2.1,5.2-3c1.9-0.9,3.9-1.5,6-1.7c2.1-0.1,4.2,0.3,6.2,1.3
			c1.9,1.1,4,2.4,5.4,4.1c0.7,0.9,1.2,1.8,1.3,2.8c0.1,1-0.2,2.1-0.7,3.2c-0.4,1.1-1.2,2-1.9,3.1c-0.7,1-1.5,2-2.3,2.9
			c-0.1,0.1-0.1,0.1-0.2,0.2c0,0-0.1,0-0.1,0.1c-1.3,1.2-2.6,2.3-3.7,3.5c-0.5,0.5-1,1-1.4,1.4c0,0,0,0,0,0
			c-1.9,1.6-3.8,3.1-5.8,4.6c-1.9,1.5-3.8,3-5.4,4.9C99.7,114.7,98.6,116.8,97.4,118.7z M117.2,135.8c-0.7,0.7-1.5,1.4-2.4,1.8
			c-0.7,0.3-1.4,0.5-2.1,0.6c-0.2-0.1-0.5-0.1-0.8-0.2c-0.6-0.2-1.2-0.4-2-0.6c-0.7-0.3-1.5-0.6-2.2-1.1c-3-1.8-4.5-4.6-4.9-4.3
			c-0.2,0.1-0.1,0.9,0.6,2c0.6,1.2,1.8,2.6,3.5,3.7c0.3,0.2,0.7,0.4,1,0.5c-0.6-0.1-1.3-0.2-1.9-0.4c-1.8-0.5-3.3-1.6-4.2-3.1
			c-0.9-1.5-1.4-3.2-1.6-4.9c-0.2-1.7-0.2-3.4-0.2-5c0-0.8,0-1.6,0-2.4c0-0.8,0-1.5,0.1-2.2c0.2-1.4,0.6-2.6,1.2-3.7
			c1-1.9,2.2-3.3,3.4-4.4c0.4-0.3,0.7-0.5,1.1-0.8c0.4-0.3,0.9-0.7,1.4-1.1c0.4-0.4,0.9-0.8,1.4-1.3c0.2-0.2,0.4-0.4,0.6-0.6
			c3.4-2.6,7-5.5,10.1-9c0.3-0.3,0.5-0.6,0.8-1c0.9-0.6,1.9-1.1,3.1-1.5c3.4-1.1,7.7-1.1,11.2,0.8c1.7,1,3.2,2.5,4.1,4.3
			c0.2,0.5,0.4,0.9,0.6,1.5c0.1,0.5,0.2,1,0.4,1.6c0.2,1,0,2-0.3,3c-0.7,2-2.3,3.8-3.9,5.4c-0.8,0.8-1.7,1.6-2.6,2.5
			c-0.9,0.9-1.7,1.8-2.6,2.7c-1.8,1.7-3.3,3.6-4.9,5.5l-1.2,1.4c-0.4,0.4-0.8,0.9-1.1,1.4c-0.7,1-1.3,2.1-1.9,3.1
			c-0.1,0.2-0.7,1.3-0.7,1.3C119.2,133.1,118.3,134.6,117.2,135.8z M130.7,120.4C130.7,120.4,130.8,120.4,130.7,120.4
			c0.4-0.5,0.7-0.8,1-1.2c0.6-0.6,1.2-1.3,1.9-1.9c0.6-0.7,1.3-1.3,2-1.9c0.6-0.2,1.4-0.2,2,0.1l0.1,0c0.1,0.2,0.1,0.1,0.3,0.3
			c0.1,0.1,0.3,0.2,0.4,0.4c0.3,0.3,0.6,0.6,0.8,0.9c0.3,0.3,0.6,0.7,0.8,1.1c0.1,0.2,0.2,0.4,0.3,0.6c0,0.1,0.1,0.2,0.1,0.3
			c0,0.1,0,0.1,0,0.1c0,0,0,0,0,0.1c0,0.1-0.1,0.2-0.2,0.3c-0.2,0.2-0.4,0.5-0.6,0.7c-0.4,0.5-0.9,1-1.3,1.5
			c-0.2,0.3-0.5,0.5-0.7,0.9c-0.2,0.3-0.4,0.6-0.6,0.9c-0.4,0.6-0.8,1.1-1.3,1.6c-0.4,0.5-0.9,0.8-1.4,1.1c-0.5,0.2-1,0.3-1.6,0.4
			c-1.1,0-2.1-0.4-2.7-1.1C128.8,124,129.9,121.8,130.7,120.4z M146.8,144c0,0.1-0.1,0.2-0.2,0.3c-0.5,0.6-1.1,1.3-1.8,1.8
			c-0.7,0.6-1.4,1-2.1,1.5c-1.5,0.9-3.2,1.5-5,1.7c-3.6,0.5-7.2-0.6-10-2.5c-1.4-1-2.7-2.1-3.8-3.4c-1.1-1.3-2.2-2.6-2.9-3.9
			c-0.8-1.3-1.2-2.8-0.9-4.1c0.1-0.4,0.2-0.9,0.4-1.3c0.2-0.3,0.4-0.6,0.5-0.9c0.8,1.2,2,2.7,3.8,3.8c2,1.3,4.2,1.5,5.7,1.7
			c1.5,0,2.4-0.1,2.4-0.3c0.1-0.6-3.6-0.8-7.2-2.8c-1.8-1.1-3.1-2.5-4-3.5c0.1-0.1,0.2-0.3,0.3-0.4c0.4-0.6,0.8-1.2,1.2-1.8
			c0.4-0.6,0.8-1.1,1.2-1.7c0.8-1.1,1.6-2.1,2.4-3.1c0.4-0.5,0.9-1,1.3-1.5c-0.1,0.9,0.1,2,0.8,2.9c0.9,1.2,2.5,1.8,4,1.8
			c0.7,0,1.5-0.2,2.3-0.5c0.7-0.4,1.4-0.8,1.9-1.4c0.6-0.6,1-1.2,1.5-1.8c0.4-0.7,0.7-1.1,1.2-1.7c0.4-0.5,0.9-1.1,1.3-1.6
			c0.2-0.3,0.4-0.6,0.6-0.9c0.1-0.2,0.2-0.3,0.3-0.5c0.1-0.2,0.2-0.5,0.2-0.8c-0.1-0.2-0.1-0.4-0.2-0.6c-0.1-0.2-0.1-0.3-0.2-0.4
			c-0.1-0.3-0.3-0.5-0.4-0.7c-0.3-0.4-0.6-0.8-0.9-1.1c-0.3-0.4-0.6-0.7-1-1c-0.3-0.3-0.7-0.6-1.2-0.8c-0.4-0.2-0.9-0.3-1.3-0.3
			c0.5-0.5,1-1,1.4-1.6c0.2-0.1,0.4-0.2,0.7-0.3c1.2-0.5,3-0.7,4.4,0.6c0.7,0.6,1.3,1.4,1.7,2.4c0.4,1,0.5,2.1,0.3,3.3
			c-0.1,1.2-0.5,2.4-0.9,3.7c-0.5,1.2-1,2.6-1.4,4.1c0,0,0,0.1,0,0.2c-0.2,0.6-0.4,1.1-0.6,1.7c-0.2,0.7-0.5,1.4-0.6,2.2
			c-0.1,0.8-0.3,1.6-0.4,2.5c0,0.9-0.1,1.7-0.1,2.5c0,0.8,0.1,1.5,0.1,2.3c0,0.7,0,1.4,0,2c0,0.6-0.1,1.2-0.1,1.7
			c0,0.5-0.1,1-0.2,1.4c-0.1,0.4-0.1,0.8-0.2,1.1c-0.1,0.6-0.1,1,0.1,1c0.1,0,0.3-0.2,0.6-0.8c0.1-0.3,0.3-0.6,0.4-1
			c0.2-0.4,0.4-0.9,0.5-1.4c0.1-0.6,0.2-1.2,0.3-1.8c0.1-0.6,0.1-1.3,0.1-2c0.2,0.5,0.4,1,0.7,1.5c0.3,0.5,0.6,1,1,1.5
			c0,0,0,0.1,0,0.1c0.2,0.4,0.5,0.8,0.7,1.1c0.3,0.4,0.6,0.7,0.9,1.1c0.3,0.3,0.5,0.7,0.6,0.9C146.8,143.9,146.8,143.9,146.8,144z
			 M170,139.6c-0.1,1.3-1.2,2.5-2.7,3.4c-0.7,0.4-1.6,0.8-2.5,1.1c-0.9,0.3-1.8,0.6-2.8,0.7c-1.9,0.3-4,0.3-6.2-0.1
			c-2.1-0.3-4.3-1-6.3-2c-1.1-0.6-2.1-1.3-2.9-2.1c0.5,0.1,1,0.1,1.5,0.1c1,0,2.1-0.2,3.2-0.5c2.2-0.6,3.9-1.8,5-2.7
			c1.1-1,1.6-1.8,1.4-1.9c-0.3-0.3-3,2-6.9,3.1c-1,0.3-1.9,0.4-2.8,0.5c-0.9,0-1.7,0.1-2.3,0c-0.1,0-0.3,0-0.4,0
			c-0.6-1.1-1.1-2.2-1.4-3.4c-0.2-1-0.1-2.1,0-3.1c0.6-4,1.2-7.7,1.9-10.6c0.1-0.4,0.2-0.7,0.3-1.1c0-0.2,0.1-0.3,0.1-0.5l0-0.2
			l0-0.1l0-0.2l0-0.1c0,0,0-0.1,0,0c0.1,0.1,0.2,0.1,0.3,0.2c0.9,0.7,1.7,1.4,2.4,1.9c0.2,0.2,0.4,0.3,0.6,0.5
			c1.1,0.9,2.3,2.1,3.7,3.3c2.3,2,5.1,4.4,8.2,7.1c0.7,0.6,1.5,1.2,2.4,1.8c0.4,0.4,1,0.8,1.6,1.1c0.4,0.3,0.9,0.6,1.3,0.8
			c0.5,0.3,1.1,0.6,1.6,0.9C169.5,138,170.2,138.7,170,139.6z M205.5,111.5c0,0.1,0.1,0.3,0.1,0.4c0,0.1,0,0.3,0,0.4
			c0,0.3-0.1,0.6-0.3,0.6c-0.2,0.1-0.6,0.1-1.1-0.1c-0.4-0.1-0.8-0.3-1.1-0.5c0.3-0.1,0.5-0.2,0.7-0.3c0.4-0.2,0.7-0.4,1-0.6
			c0.2-0.2,0.5-0.3,0.7-0.5C205.5,111.3,205.5,111.4,205.5,111.5z M205.6,109c-1.2,0.6-2.7,1.9-3.3,1.9c0,0,0,0,0,0
			c-1.1-0.9-2.2-1.7-3.3-2.6c-1-0.9-2.1-1.7-3-2.6c-0.4-0.4-0.7-0.8-1.1-1.1c-2-2.3-4.4-4.7-6.7-7.3c-2.5-2.8-5-5.5-7.3-8
			c-0.3-0.3-0.6-0.6-0.9-1c-0.8-0.9-1.6-1.7-2.3-2.5c-1-1.1-1.8-2.1-2.7-3c-0.8-0.9-1.5-1.6-2.2-2.3c1.6,1,3.5,2,5.5,3.1
			c2.8,1.7,5.2,3.6,7.1,4.9c1.6,1.1,2.8,1.8,3.1,1.8c1.7,1.3,3.5,2.7,5.6,4.3c2.2,1.7,4.6,3.6,7.1,5.7c2.5,2.1,5.2,4.3,8.4,6.3
			c-0.2,0.1-0.3,0.2-0.5,0.3C208,107.6,206.8,108.3,205.6,109z M230.8,103.4c-0.9,1.7-2.5,3-4.2,3.9c-1.7,0.9-3.7,1.2-5.6,1.3
			c-3.8,0-7.4-1.4-10.5-3.3c-3.1-1.8-5.8-4-8.4-6.1c-2.5-2.1-5-4-7.3-5.5c-2.3-1.6-4.3-3.1-6.2-4.4c-0.7-0.4-1.4-0.8-2-1.2
			c-0.2-0.2-0.3-0.3-0.5-0.5c-1.1-1-2.5-2.3-4.3-3.6c-0.3-0.3-0.9-0.8-1.8-1.5c-1.3-0.9-3.1-2-4.8-3.5c-0.8-0.8-1.5-1.5-2-2.3
			c-0.5-0.8-0.8-1.6-1-2.3c-0.4-1.4-0.4-2.4-0.7-2.4c-0.2,0-0.6,0.9-0.5,2.6c0.1,0.8,0.3,1.9,0.8,2.9c0.3,0.6,0.7,1.1,1.1,1.6
			c-0.5-0.3-1.1-0.6-1.5-0.8c-1.9-1.1-3-1.9-3.2-1.7c-0.1,0.1,0.1,0.4,0.6,0.9c-0.1,0.1,0.5,0.7,1.4,1.6c0.9,1,2.3,2.5,3.8,4.5
			c1.6,1.9,3.3,4.4,5.7,6.8c2.2,2.5,4.6,5.2,7.2,8c0.6,0.7,1.2,1.3,1.8,2c0.3,0.3,0.5,0.6,0.7,0.8c1.6,1.9,3.4,3.7,5.3,5.7
			c0.6,0.5,1.1,1,1.7,1.5c0.4,0.4,0.8,0.8,1.2,1.1c1.1,1,2.2,1.8,3.2,2.7c0.3,0.2,0.4,0.4,0.7,0.6c0.3,0.2,0.6,0.3,0.8,0.5
			c0.5,0.3,1.1,0.4,1.6,0.5c0.5,0.1,1.1,0.2,1.7-0.2c0.1-0.1,0.2-0.2,0.3-0.3c0.1-0.1,0.1-0.3,0.2-0.4c0.1-0.2,0.1-0.5,0.1-0.7
			c0-0.2-0.1-0.4-0.1-0.5c-0.1-0.2-0.1-0.3-0.2-0.4c0-0.1,0-0.1-0.1-0.2c0.3,0.3,0.5,0.7,0.8,1.2c0.5,0.8,1,1.9,1.1,3.3
			c0.1,1.3-0.1,2.9-0.8,4.5c-0.6,1.6-1.6,3.3-2.8,4.9c-0.3,0.4-0.6,0.8-1,1.2c-0.3,0.4-0.7,0.7-1.1,1.1c-0.8,0.6-1.7,1.2-2.8,1.6
			c-2.1,0.8-4.5,0.8-6.8,0.1c-1.2-0.3-2.3-0.8-3.4-1.4c-1.1-0.6-2.1-1.4-3.2-2.3c-0.7-0.6-1.4-1.1-2.1-1.7c0.6-0.1,1.2-0.3,1.9-0.5
			c1-0.4,2-1,2.9-1.7c1.9-1.5,3.2-3.1,4.1-4.3c0.9-1.2,1.3-2,1.2-2.2c-0.2-0.2-0.9,0.4-2,1.4c-1.1,1-2.5,2.4-4.2,3.8
			c-0.9,0.7-1.7,1.2-2.5,1.6c-0.8,0.4-1.6,0.7-2.3,0.8c-0.1,0-0.2,0-0.3,0c-0.9-0.8-1.9-1.5-2.8-2.3c-1-0.8-1.9-1.6-2.9-2.5
			c-0.3-0.3-0.7-0.6-1-0.9c-0.4-0.6-1-1.4-1.8-2.2c-1.8-1.9-4.7-4-7.4-6.7c-2.6-2.7-4.1-6-5.6-8.1c-1.5-2.2-2.9-3.1-3.1-3
			c-0.2,0.2,0.8,1.4,2.1,3.6c0.6,1.1,1.3,2.5,2.1,4c0.2,0.4,0.5,0.8,0.7,1.2c-2-1.5-3.6-2.9-5-3.7c-1.8-1.1-3-1.1-3-1
			c0,0.1,1,0.4,2.6,1.6c1.6,1.1,3.6,3.2,6.5,5.4c0.7,0.6,1.4,1.2,2.1,1.8c0.7,0.7,1.4,1.4,2.2,2.1c1.5,1.5,3.2,3,4.9,4.6
			c0.9,0.8,1.8,1.6,2.7,2.5c0.9,0.9,1.8,1.7,2.8,2.5c0.6,0.5,1.2,1,1.8,1.5c0,0.1,0.1,0.2,0.3,0.3c1.3,1.1,2.6,2.2,4,3.4
			c0.6,0.6,1.4,1.1,2.1,1.6c0.1,0.2,0.3,0.5,0.3,0.7c0.3,1.4-0.8,3-2.2,4.4c-1.4,1.4-3.1,2.6-5,3.5c-1.8,0.9-4,1.1-6.2,0.6
			c-0.2,0-0.4-0.1-0.7-0.2c0.1,0,0.1,0,0.2,0c2-0.5,3.5-1.7,4.3-2.7c0.8-1,1-1.8,0.8-2c-0.2-0.1-0.8,0.4-1.7,1.1
			c-0.9,0.7-2.2,1.5-3.9,1.9c-0.7,0.2-1.3,0.2-1.9,0.2c2.2-0.7,3.8-2.1,4.7-3.4c0.5-0.7,0.7-1.5,0.8-1.9c0-0.5,0-0.8-0.1-0.8
			c-0.1,0-0.3,0.2-0.5,0.6c-0.3,0.4-0.6,0.9-1.1,1.4c-1,1.1-2.9,2.2-5.1,2.8c-1,0.2-2,0.3-2.8,0c-1.5-0.9-3-2-4.3-3
			c-3.2-2.6-6-4.9-8.4-6.8c-2.4-1.9-4.4-3.5-5.8-4.5c-0.4-0.4-0.8-0.7-1.2-1.2c-0.3-0.3-0.6-0.5-0.8-0.8c0.1-1.2-0.1-2.5-0.5-3.5
			c-0.5-1.1-1.3-2-2.1-2.7c-0.2-0.2-0.4-0.3-0.6-0.5c-0.2-0.1-0.5-0.3-0.7-0.3c-0.5-0.2-1-0.3-1.4-0.3c-0.8,0-1.4,0.2-2,0.4
			c0.6-0.9,1.1-1.8,1.5-2.8c0.4-1.2,0.6-2.5,0.4-3.8c-0.1-0.6-0.3-1.2-0.4-1.8c-0.1-0.6-0.4-1.1-0.7-1.7c-1-2.2-2.8-3.9-4.8-5
			c-2-1.1-4.2-1.6-6.3-1.7c-2.1-0.1-4.2,0.2-6.1,0.9c-0.3,0.1-0.5,0.2-0.7,0.3c0.7-0.9,1.3-1.8,1.8-3c0.6-1.2,0.9-2.6,0.8-4
			c-0.1-1.4-0.8-2.7-1.7-3.7c-1.8-2-3.8-3.3-6-4.4c-2.2-1.1-4.7-1.6-7-1.4c-2.4,0.2-4.5,1-6.5,1.9c-2,0.9-3.7,2.1-5.4,3.2
			c-1.6,1.1-3.2,2.2-4.7,3.2c-1.5,1-3,2-4.4,3c-2.7,2-5,4.1-6.9,6.1c-0.5,0.5-0.9,1-1.3,1.6c0,0,0,0-0.1,0.1
			c0.1-0.2,0.1-0.3,0.2-0.5c0.6-2,0.3-4.1-0.4-5.9c-0.8-1.8-2.1-3.2-3.3-4.4c-0.7-0.6-1.4-1.2-2.1-1.8c-0.4-0.5-0.8-0.9-1.4-1.3
			c-0.5-0.4-1.1-0.8-1.7-1.1c-0.9-0.7-1.7-1.3-2.6-1.8c-0.7-0.4-1.3-0.8-2-1.1c-0.7-0.3-1.3-0.7-2-1c-1.3-0.6-2.5-1.2-3.9-1.6
			c-2.5-0.6-4.8-0.9-6.7-1.2c-3.5-0.9-8.5-2.1-14.6-3.6c-3.2-0.7-6.6-1.6-10.4-2.4c-1.3-0.3-2.6-0.5-3.9-0.8c-0.7-1-1.6-2.3-2.4-3.8
			c-0.8-1.6-1.3-3.2-1.6-4.3c-0.3-1.2-0.5-1.9-0.8-1.9c-0.2,0-0.4,0.8-0.4,2.1c0.1,1.3,0.4,3.1,1.3,4.9c0.6,1,1.2,1.9,1.8,2.6
			c-1.3-0.3-2.6-0.5-4-0.8c-0.8-1.1-1.8-2.8-2.6-4.7c-0.7-2-1.1-3.9-1.4-5.3c-0.2-1.4-0.4-2.3-0.6-2.3c-0.2,0-0.5,0.9-0.6,2.4
			c0,1.5,0.2,3.7,1,5.9c0.6,1.4,1.3,2.7,2.1,3.7c0,0,0,0,0,0c-0.7-0.2-1.5-0.3-2.3-0.5c-0.3-0.4-0.9-0.9-1.7-1.8
			c-0.5-0.6-1.1-1.4-1.6-2.4c-0.5-1-1-2.1-1.4-3.3c-0.8-2.4-1.2-4.8-1.5-6.5C8.9,52,8.7,51,8.4,51c-0.2,0-0.4,1.1-0.4,2.9
			c0,1.8,0.2,4.2,1.1,6.9c0.4,1.3,1,2.5,1.7,3.5c0.7,1,1.4,1.8,2.1,2.4c0.3,0.3,0.6,0.5,0.9,0.7c-0.9-0.2-1.7-0.4-2.6-0.5
			c-1-0.2-2-0.5-2.8-1c-0.9-0.5-1.6-1.2-2.2-2c-1.2-1.6-1.9-3.8-2.2-6c-0.3-2.3-0.3-4.6-0.2-7.1c0.2-2.4,0.5-4.8,0.9-7.2
			c0.4-2.3,0.8-4.7,1.3-6.9c1-4.4,2.7-8.5,4.6-12.3c2-3.8,3.7-7.5,6-10.4c1.1-1.4,2.4-2.6,3.8-3.5c1.4-0.8,2.9-1.4,4.5-1.6
			c3.1-0.6,6-0.4,8.5-0.2c2.5,0.2,4.7,0.5,6.5,0.8c1.2,0.2,2.1,0.3,3,0.4c3,0.5,7.1,1.1,12.2,1.7c10.9,1.2,26.2,2.5,43.1,1.1
			c8.5-0.9,16.3-2.4,23.4-3.9c1.8-0.4,3.5-0.8,5.2-1.3c0.8-0.2,1.7-0.4,2.5-0.6c0.8-0.3,1.6-0.5,2.4-0.7c1.6-0.5,3.1-1,4.5-1.4
			c1.4-0.5,2.7-1,4-1.3c1.3-0.4,2.5-0.6,3.7-0.7c0.6-0.1,1.2-0.1,1.7-0.1c0.6,0,1,0.1,1.5,0.2c1.9,0.6,3.6,1.7,5,2.3
			c0.3,0.1,0.6,0.3,0.8,0.4c-2.5,0.5-4.9,1.2-7.1,2.2c-0.8,0.4-1.7,0.8-2.5,1.2c-0.8,0.5-1.6,0.9-2.3,1.3c-1.4,1-2.9,1.9-4.2,2.8
			c-1.4,0.9-2.7,1.8-4,2.6c-1.3,0.8-2.6,1.6-3.9,2.4c-1.3,0.7-2.5,1.4-3.7,2.1c-0.6,0.3-1.2,0.7-1.8,1.1c-0.3,0.2-0.6,0.4-0.8,0.7
			c-0.2,0.3-0.5,0.5-0.7,0.7c-1,1.2-1.6,2.5-2.1,3.8c-0.5,1.1-1,2.3-1.3,3.7c0,0.1,0,0.2-0.1,0.3c0,0.1-0.1,0.1-0.1,0.2
			c-0.2,0.6-0.3,1.1-0.3,1.5c-0.4,2-0.7,4-1,6.2c-0.4,2.9-0.8,6.1-1.8,9.2c-1,3.1-2.8,6.2-4,9.8c-0.6,1.8-1,3.7-0.9,5.8
			c0.1,2,0.8,4.1,2.1,5.8c1.3,1.7,3.4,2.7,5.4,3c2,0.3,4.1,0,5.9-0.7c1.8-0.7,3.4-1.9,4.6-3.3c1.1-1.4,2.1-2.8,3.2-4.1
			c2.5-3.5,4.6-6.9,6.6-9.9c0.3-0.4,0.7-0.9,1-1.3c1.3-1.7,2.7-3.8,4.6-5.9c0.9-1,2-2,3.2-2.6c1.2-0.7,2.7-0.9,4.3-1.2
			c2.8-0.4,5.6-0.5,8.1-1.4c0.8,0.1,1.7,0.2,2.7,0.4c5.5,1.4,12.2,6.3,18.9,11.8c1.6,1.5,3.3,2.9,4.8,4.3c0.8,0.7,1.6,1.4,2.4,2
			c0.8,0.6,1.5,1.3,2.4,1.9c0.4,0.2,0.7,0.5,1,0.7c-0.1,0-0.1,0-0.1,0c0,0.1,0.2,0.2,0.6,0.3c2.6,1.7,5.1,3.2,7.1,4.5
			c0.8,0.5,1.5,1,2.2,1.4c0.1,0.1,0.2,0.1,0.3,0.2c0.2,0.2,0.5,0.4,0.7,0.6c0.3,0.2,0.5,0.3,0.8,0.5c1.1,0.7,2.2,1.4,3.4,2.2
			c1.2,0.7,2.4,1.5,3.7,2.3c0.6,0.4,1.3,0.8,1.9,1.3c0.6,0.5,1.2,0.9,1.8,1.5c2.4,2.1,4.5,4.9,7,7.7c2.5,3,6.1,4.8,8.5,7.7
			c0.6,0.7,1.1,1.5,1.5,2.4c0.2,0.4,0.3,0.9,0.5,1.4c0.1,0.5,0.3,0.9,0.3,1.4C231.9,99.7,231.7,101.7,230.8,103.4z M112.8,59.5
			c0.2-1.3,0.5-3,1.2-4.9c0.6-1.6,1.2-3.1,1.6-4.3c0.1-0.2,0.3-0.4,0.4-0.6c0.8-1,1.9-2,3.2-2.7c1.3-0.7,2.9-1,4.4-0.7
			c0.7,0.2,1.4,0.6,2,1.2c0.5,0.6,0.9,1.3,1.1,2.2c0.4,1.7,0,3.6-0.4,5.6c-0.5,1.9-1.3,3.7-2.5,5c-1.2,1.3-2.9,1.9-4.5,2.1
			c-0.8,0.1-1.7,0.1-2.5,0c-0.8-0.1-1.6-0.1-2.2-0.4c-0.6-0.3-1.1-0.7-1.4-1.2c-0.2-0.3-0.3-0.6-0.4-0.9
			C112.8,59.7,112.8,59.6,112.8,59.5z M272.4,80.6c-5.4,0-10.4,0.7-14.8,1.9c-0.6,0.1-1.1,0.3-1.6,0.4c-0.5,0.2-1.1,0.3-1.6,0.5
			c-1,0.3-2,0.6-3,0.9c-0.9,0.3-1.7,0.6-2.5,0.9c-2,0.6-4.1,1.2-6.2,2c-0.9,0.3-1.7,0.5-2.6,0.9c-0.9,0.4-1.6,0.8-2.4,1.2
			c-1.5,0.8-2.9,1.8-4.2,2.1c-1.3,0.3-2.5-0.3-3.5-1.1c-0.5-0.4-1-0.8-1.5-1.3c-0.5-0.5-1-0.9-1.5-1.2c-1.3-0.9-2.4-1.6-3.3-2.2
			c-0.6-0.5-1.2-1.1-1.7-1.7c-2.5-2.7-4.7-5.5-7.2-7.7c-0.6-0.6-1.3-1.1-2-1.5c-0.7-0.5-1.3-0.8-2-1.2c-1.3-0.8-2.6-1.5-3.8-2.3
			c-1.2-0.7-2.3-1.4-3.4-2.1c-0.2-0.1-0.3-0.2-0.5-0.3c-0.1-0.1-0.2-0.1-0.3-0.2c-0.9-0.7-2-1.5-3.2-2.3c-2.4-1.6-5.3-3.6-8.4-5.8
			c-0.8-0.5-1.5-1.2-2.2-1.9c-0.8-0.6-1.5-1.3-2.3-2c-1.5-1.4-3.1-2.9-4.8-4.4c-3.5-2.9-6.9-5.4-10.2-7.5c-1.7-1-3.3-2-4.9-2.7
			c-0.8-0.4-1.6-0.6-2.4-0.9c-0.8-0.2-1.5-0.5-2.3-0.6c-0.4-0.1-0.7-0.1-1-0.2c0.1,0,0.2-0.1,0.2-0.1c0.3-0.2,0.6-0.5,0.9-0.7
			c0.5-0.5,1-1.1,1.3-1.6c0.7-1.1,1.2-2.2,1.6-3.2c0.8-2,1.4-3.6,1.8-4.7c0.5-1.1,0.8-1.7,0.7-1.7c-0.1-0.1-0.6,0.4-1.3,1.4
			c-0.7,1-1.4,2.6-2.3,4.5c-0.5,0.9-1,2-1.7,2.9c-0.7,0.9-1.5,1.9-2.7,2.3c-2.4,1.1-5.5,1.1-8.8,1.6c-1.2,0.2-2.5,0.4-3.7,0.8
			c0.1-0.2,0.3-0.4,0.4-0.6c1.1-2,1.7-4,1.9-5.4c0.1-1.5,0.1-2.4-0.2-2.4c-0.2,0-0.6,0.8-1,2.1c-0.4,1.1-1,2.6-1.8,4.2
			c0.1-0.6,0.2-1.2,0.2-1.7c0-1.5-0.6-2.6-1-3.2c-0.5-0.6-0.8-0.9-0.8-0.8c0,0,0.2,0.4,0.6,1c0.3,0.7,0.7,1.7,0.6,3
			c-0.1,1.3-0.7,3-1.7,4.6c-0.5,0.8-1,1.6-1.6,2.4c-0.1,0.1-0.2,0.2-0.3,0.4c-0.7,0.8-1.3,1.6-1.8,2.4c-0.1,0.1-0.1,0.2-0.2,0.3
			c-3.1,4.1-6.3,9.2-10.2,14.6c-1,1.3-2.1,2.7-3.1,4c-1,1.2-2.4,2.2-4,2.8c-1.6,0.6-3.3,0.9-5,0.6c-1.7-0.3-3.3-1.1-4.3-2.4
			c-1.1-1.4-1.7-3.1-1.8-4.8c0-0.6,0-1.3,0.1-1.9c0.1,0.2,0.1,0.3,0.2,0.5c0.4,0.8,1.1,1.4,2,1.8c0.8,0.4,1.8,0.5,2.6,0.6
			c0.9,0.1,1.8,0.1,2.8,0c1.9-0.2,4-0.9,5.5-2.5c1.5-1.6,2.4-3.6,2.9-5.7c0.3-1.1,0.5-2,0.6-3.1c0.1-0.5,0-1.1,0.1-1.6
			c0-0.5-0.1-1.1-0.2-1.6c-0.3-1.1-0.8-2.1-1.6-2.9c-0.8-0.8-1.7-1.3-2.7-1.6c-2-0.5-4,0.1-5.5,0.9c-0.7,0.4-1.4,0.9-1.9,1.4
			c0.8-3,1.2-6,1.5-8.7c0.3-2.7,0.6-5.2,1.1-7.5c0.3-0.3,0.7-0.6,1.2-0.9c0.6-0.2,1.5-0.4,2.3-0.4c1.8-0.1,3.5,0,4.8-0.1
			c1.3-0.1,2.1-0.4,2-0.6c0-0.2-0.8-0.4-2-0.6c-1.2-0.2-2.9-0.5-4.9-0.4c-1,0.1-2,0.2-2.9,0.7c0,0,0,0-0.1,0
			c0.2-0.6,0.4-1.2,0.6-1.7c0.3-0.2,0.6-0.4,1-0.8c0.8-0.6,1.7-1.3,3-1.5c1.3-0.3,2.6,0,3.6,0c1,0.1,1.6,0.1,1.7-0.1
			c0.1-0.2-0.5-0.6-1.4-1c-1-0.3-2.4-0.9-4.2-0.5c-0.6,0.1-1.2,0.4-1.7,0.6c0.4-0.5,0.7-0.9,1.1-1.2c0.1-0.1,0.3-0.2,0.4-0.3
			c0.5-0.3,1-0.6,1.7-0.9c1.2-0.6,2.5-1.3,3.8-2c1.3-0.7,2.6-1.5,4-2.3c1.3-0.8,2.7-1.7,4.1-2.6c1.4-0.9,2.8-1.8,4.2-2.8
			c0.7-0.4,1.5-0.8,2.2-1.2c0.8-0.4,1.6-0.8,2.4-1.1c3.2-1.4,6.8-2.2,10.5-2.6c7.5-0.6,14.7,0.8,21.2,1.8c6.6,1,12.5,1.7,17.4,2.5
			c0.8,0.1,1.6,0.3,2.4,0.4c0.2,0.3,0.6,0.6,1,1c0.8,0.8,1.9,1.9,3,3.3c2.1,2.8,3.6,5.3,4.1,5.1c0.4-0.2-0.5-3.1-2.8-6.1
			c-0.9-1.2-2-2.1-2.9-2.8c0.3,0.1,0.5,0.1,0.7,0.2c1.4,0.4,3,0.9,4.8,1.5c1.3,0.9,2.9,2.1,4.4,3.6c1.8,1.8,2.9,3.9,3.5,5.4
			c0.6,1.6,0.8,2.6,1.1,2.6c0.2,0,0.4-1.1,0.1-2.9c-0.3-1.8-1.4-4.2-3.4-6.3c-0.3-0.3-0.7-0.6-1-0.9c1,0.3,2.1,0.7,3.3,1
			c1.3,0.7,2.5,1.4,3.4,2.1c2.6,1.9,3.4,3.8,3.6,3.7c0.1,0,0-0.6-0.4-1.4c-0.4-0.9-1.2-2-2.5-3.2c0,0-0.1,0-0.1-0.1
			c0.4,0.1,0.8,0.2,1.2,0.3c3.2,0.8,6.6,1.2,10.3,1.3c3.7,0.1,7.5-0.2,11.4-0.7c3.9-0.6,7.9-1.1,12-1.7c8.2-1.1,16.1-2.1,23.2-3.6
			c3.5-0.7,6.9-1.3,10-1.9c3.1-0.5,6.1-1,8.8-1.4c5.4-0.8,9.7-1.6,12.7-2.2c0.1,0,0.1,0,0.2,0c0.5,0,0.9-0.1,1.4-0.1
			c0.6,0,1.3-0.1,1.8-0.1c0.3,0,0.6,0,0.8,0.1c0.2,0,0.5,0.2,0.8,0.3c2.2,0.8,3.6,3,4.3,5.5c0.7,2.5,0.9,5.4,0.8,8.3
			c-0.2,5.9-0.4,12.2-1.1,18.6c-0.7,6.4-1.8,13-3.8,19.5c-0.9,3.3-2.2,6.4-3.4,9.5c-1.2,3.1-2.6,6-4.4,8.5c-1.8,2.5-4.1,4.5-6.8,5.2
			c-0.3,0.1-0.6,0.2-1,0.2l-1.1,0.1l-1.1,0.1l-1.1,0c-0.1,0-0.2,0-0.3,0c0.7-0.3,1.5-0.7,2.5-1.2c1.4-0.8,2.9-2.1,4.3-3.7
			c1.4-1.6,2.8-3.6,3.9-5.7c1.2-2.2,2-4.4,2.6-6.4c0.6-2,1-3.9,1.2-5.5c0.5-3.2,0.3-5.2,0.1-5.2c-0.3,0-0.5,1.9-1.2,4.9
			c-0.3,1.5-0.9,3.3-1.5,5.2c-0.7,1.9-1.5,4-2.7,6.1c-1.1,2.1-2.3,3.9-3.6,5.5c-1.3,1.5-2.6,2.8-3.8,3.7c-1.4,1.1-2.6,1.7-3.4,2.2
			c-0.8-0.1-1.7-0.1-2.5-0.2c-0.5-0.1-1-0.1-1.5-0.2c1.1-0.2,2.2-0.8,3.4-1.6c1.2-0.9,2.3-2,3.4-3.3c2.1-2.6,3.4-5.3,4.2-7.2
			c0.8-2,1.2-3.2,1-3.3c-0.2-0.1-1,1-2.1,2.8c-1.1,1.8-2.6,4.3-4.5,6.7c-1,1.2-2,2.3-3,3.1c-1,0.8-2,1.4-3,1.7
			c-1.4,0.5-2.4,0.5-2.9,0.6c-1.1-0.2-2.2-0.3-3.2-0.5c1.3-0.6,2.9-1.6,4.3-2.8c3.7-3.2,5.5-6.8,5.1-7.1c-0.4-0.2-2.7,2.8-6.2,5.8
			c-1.7,1.5-3.4,2.7-4.8,3.4c-0.3,0.1-0.5,0.3-0.7,0.4c-0.8-0.1-1.6-0.2-2.4-0.3C275.1,80.6,273.8,80.6,272.4,80.6z"/>
		<path class="st2" d="M245,67.5c-0.7-1.5-1.7-3.1-3-4.6c-1.3-1.5-2.7-2.7-4.1-3.7c-1.5-0.9-2.9-1.6-4.1-1.9
			c-0.9-0.2-1.7-0.4-2.3-0.4c0.1-0.2,0.3-0.5,0.4-0.7c0.7-1.7,0.9-3.3,1.2-4.8c0.1-0.7,0.2-1.4,0.2-2.1c0-0.1,0-0.2,0-0.4
			c0-0.1,0-0.3,0.1-0.4c0.2-1.9,0.3-3.9,0.1-6.1c-0.4-4.3-1.8-8-3-10.5c-1.2-2.5-2.3-3.9-2.4-3.8c-0.2,0.1,0.4,1.7,1.4,4.3
			c0.9,2.6,2,6.2,2.5,10.2c0.2,2,0.2,4,0,5.7c-0.2,1.8-0.5,3.3-0.8,4.6c-0.3,1-0.5,1.8-0.7,2.5c-1.4,2.8-3.6,4.9-5,6.7
			c-1.4,1.8-1.8,3.2-1.6,3.3c0.2,0.1,1-1,2.5-2.5c0.8-0.8,1.7-1.7,2.7-2.7c0.7-0.7,1.4-1.6,2-2.6c0.6,0.2,1.4,0.4,2.4,0.8
			c1.1,0.4,2.3,1.2,3.6,2c1.3,0.9,2.5,2.1,3.7,3.5c1.2,1.4,2.1,2.9,2.9,4.2c0.3,0.7,0.7,1.4,0.9,2c0.1,0.3,0.2,0.6,0.4,1
			c0.1,0.3,0.2,0.6,0.2,0.9c0.6,2.3,0.5,3.8,0.8,3.9c0.2,0,0.7-1.5,0.4-4.1C246.1,70.5,245.6,69.1,245,67.5z"/>
		<path class="st2" d="M190.7,122.5c-0.8,0.7-1.7,1.2-2.4,1.5c-0.7,0.3-1.2,0.5-1.2,0.8c0,0.2,0.5,0.4,1.4,0.4
			c0.9-0.1,2.2-0.5,3.2-1.4c1-0.9,1.6-1.9,2-2.7c0.4-0.8,0.5-1.3,0.3-1.4C193.7,119.3,192.4,121,190.7,122.5z"/>
		<path class="st2" d="M192,125.9c-0.8,0.5-1.3,0.9-1.2,1.1c0.1,0.2,0.7,0.2,1.7,0c0.5-0.1,1-0.3,1.7-0.6c0.3-0.2,0.6-0.4,0.9-0.6
			c0.3-0.3,0.6-0.5,0.9-0.8c1.1-1.2,1.6-2.4,2-3.2c0.4-0.9,0.6-1.5,0.4-1.6c-0.2-0.1-0.7,0.2-1.4,0.9c-0.7,0.7-1.5,1.8-2.3,2.8
			C193.9,124.9,192.8,125.4,192,125.9z"/>
		<path class="st2" d="M152.8,133.7c-0.9,0.3-1.7,0.5-2.4,0.7c-0.6,0.1-1.1,0.2-1.1,0.4c-0.1,0.2,0.3,0.5,1.1,0.7
			c0.8,0.2,1.9,0.1,3-0.3c2.2-0.9,3.3-2.6,3-2.9C156.1,132,154.6,133,152.8,133.7z"/>
		<path class="st2" d="M216.4,59.7c-1.8,0.7-4.2,1.8-6.8,3c-2.6,1.1-5.1,2-6.9,2.1c-1.8,0.2-2.9-0.1-3,0.1c-0.1,0.2,1,1,3.1,1.1
			c0.4,0,0.9,0,1.3,0c0.1,0.2,0.8,0.3,1.9,0.3c1.1,0.1,2.6,0.2,4.3,0.6c3.3,0.8,6.1,1.5,6.2,1c0.1-0.4-2.3-1.8-5.9-2.7
			c-0.8-0.2-1.5-0.2-2.2-0.3c0.6-0.2,1.3-0.5,1.9-0.7c2.7-1.2,5-2.5,6.7-3.5c1.6-1,2.6-1.6,2.6-1.8C219.4,58.8,218.2,59,216.4,59.7z
			"/>
		<path class="st2" d="M180.1,26c1.8-2.6,3.1-5.1,3.7-7.1c0.2-0.5,0.3-0.9,0.4-1.3c0.1-0.4,0.1-0.7,0.2-1c0.1-0.6,0.1-0.9,0-0.9
			c-0.1,0-0.3,0.2-0.6,0.7c-0.1,0.2-0.3,0.6-0.4,0.9c-0.1,0.4-0.3,0.8-0.6,1.2c-0.9,1.8-2.2,4.1-3.9,6.5c-1.8,2.4-3.6,4.4-5,5.8
			c-0.3,0.4-0.7,0.7-1,0.9c-0.3,0.3-0.5,0.5-0.7,0.7c-0.4,0.4-0.6,0.7-0.5,0.8c0.1,0.1,0.4,0,0.9-0.2c0.3-0.1,0.6-0.3,0.9-0.5
			c0.4-0.2,0.8-0.4,1.2-0.8C176.2,30.6,178.3,28.6,180.1,26z"/>
		<path class="st2" d="M180.2,30.8c-3.6,3.5-6.4,6.5-6.1,6.9c0.3,0.3,3.6-2.1,7.2-5.7c3.6-3.6,5.8-7.2,5.5-7.5
			C186.4,24.2,183.7,27.2,180.2,30.8z"/>
		<path class="st2" d="M211.6,84.7c0.7-1.1,1-1.9,0.8-2c-0.2-0.1-0.8,0.4-1.7,1.3c-0.9,0.9-2.1,2.3-3.2,4c-1.1,1.7-1.8,3.5-2,4.8
			c-0.2,1.3-0.1,2.2,0.1,2.2c0.2,0,0.6-0.7,1-1.9c0.5-1.1,1.3-2.6,2.3-4.2C209.9,87.3,210.9,85.8,211.6,84.7z"/>
		<path class="st2" d="M213.3,88.8c-0.4-0.3-1.8,0.9-3.3,2.8c-0.7,0.9-1.3,1.9-1.5,2.7c-0.2,0.8-0.2,1.3,0,1.4
			c0.2,0.1,0.6-0.3,1-0.8c0.5-0.6,1.1-1.3,1.8-2.2C212.7,90.8,213.7,89,213.3,88.8z"/>
		<path class="st2" d="M217.1,89.1c-0.2-0.1-0.6,0.4-1,1c-0.4,0.7-1,1.5-1.7,2.5c-1.4,2-2.3,3.8-1.9,4.1c0.4,0.2,1.8-1.1,3.3-3.2
			c0.7-1.1,1.2-2.1,1.4-3C217.4,89.7,217.3,89.2,217.1,89.1z"/>
		<path class="st2" d="M104,102.7c1,0.4,2.3,0.5,3.4,0.2c0.6-0.1,1.1-0.3,1.6-0.5c0.5-0.2,1-0.5,1.5-0.8c0.9-0.5,1.8-1.1,2.7-1.7
			c1.8-1.2,3.5-2.5,5-4.1c0.7-0.8,1.4-1.7,1.7-2.9c0.2-1.4-0.5-2.5-1.1-3.2c-1.4-1.5-3-2.4-4.4-3.3c-0.7-0.4-1.4-0.8-2.1-1.1
			c-0.7-0.4-1.4-0.7-2.1-0.9c-0.7-0.2-1.4-0.4-2.1-0.3c-0.7,0-1.4,0.2-1.9,0.5c-0.3,0.2-0.6,0.3-0.9,0.5c-0.1,0-0.2,0.1-0.3,0.2
			c-0.4,0.3-0.7,0.6-1,0.9c-0.2,0.1-0.3,0.3-0.5,0.4c-0.6,0.5-1.3,1.2-2.1,1.9c-0.8,0.8-1.7,1.7-2.5,3c-0.8,1.3-1.3,3.1-0.7,4.9
			c0.6,1.8,1.8,3.3,3.3,4.5c0.4,0.3,0.8,0.6,1.2,0.9C103,102.2,103.5,102.4,104,102.7z M99.4,96.1c-0.5-1.4-0.2-2.8,0.4-3.9
			c1.3-2.3,3-3.9,4-5.1c0,0,0,0,0,0c0.1-0.1,0.2-0.1,0.3-0.2c0.6-0.5,1.4-1,2.3-1.4c0.9-0.4,2.1-0.4,3.3,0.1
			c0.6,0.2,1.2,0.5,1.9,0.9c0.7,0.4,1.3,0.8,2,1.2c1.4,0.9,2.8,1.8,3.9,3.1c0.5,0.6,0.8,1.4,0.7,1.9c-0.1,0.7-0.7,1.5-1.3,2.1
			c-1.3,1.4-2.9,2.6-4.7,3.8c-0.9,0.6-1.8,1.1-2.7,1.6c-0.4,0.2-0.9,0.5-1.3,0.7c-0.4,0.2-0.9,0.4-1.3,0.4c-0.9,0.3-1.7,0.1-2.4-0.1
			c-0.4-0.2-0.8-0.3-1.1-0.6c-0.4-0.3-0.7-0.5-1-0.8C101,98.7,100,97.4,99.4,96.1z"/>
		<path class="st2" d="M128.4,113.5c0.9-0.3,1.8-0.7,2.6-1.2c0.8-0.4,1.6-0.9,2.3-1.6c0.7-0.7,1.3-1.6,1.5-2.6c0.2-1,0-2-0.3-2.8
			c-0.3-0.8-0.7-1.6-1.1-2.2c-0.4-0.6-0.8-1.3-1.2-1.9c-0.8-1.2-1.6-2.3-2.8-3.1c-0.5-0.4-1.3-0.6-2-0.5c-0.7,0.1-1.2,0.3-1.6,0.5
			c-0.9,0.5-1.5,1.1-2,1.5c-0.3,0.3-0.6,0.5-0.8,0.8c-0.8,0.6-1.6,1.5-2.4,2.5c-0.8,1-1.5,2.1-2.1,3.6c-0.5,1.4-0.7,3.2-0.1,4.9
			c0.1,0.4,0.4,0.8,0.6,1.2c0.1,0.2,0.2,0.4,0.4,0.6c0.2,0.2,0.4,0.4,0.6,0.5c0.9,0.6,1.9,0.8,2.9,0.8
			C124.8,114.6,126.6,114.1,128.4,113.5z M120.6,112.2c-0.1-0.1-0.2-0.2-0.3-0.4c-0.2-0.3-0.4-0.6-0.5-0.9c-0.5-1.3-0.4-2.7,0-3.9
			c0.4-1.2,1-2.3,1.7-3.3c1.5-2,3-3.4,4-4.3c0.2-0.1,0.4-0.3,0.7-0.4c0.8-0.4,1.7-0.5,2.5,0.1c0.8,0.6,1.6,1.7,2.3,2.9
			c0.4,0.6,0.7,1.2,1.1,1.9c0.4,0.7,0.7,1.3,1,2c0.2,0.7,0.4,1.4,0.2,2c-0.1,0.6-0.5,1.2-1.1,1.7c-0.6,0.5-1.3,0.9-2,1.3
			c-0.8,0.4-1.5,0.8-2.4,1c-1.7,0.6-3.4,1-4.9,1c-0.8,0-1.5-0.2-2-0.5C120.8,112.4,120.7,112.3,120.6,112.2z"/>
		<path class="st2" d="M138,114.4C138,114.4,138.1,114.4,138,114.4c0.1,0,0.1,0,0.1,0L138,114.4z"/>
		<path class="st2" d="M88.7,121.2c-1-0.6-2.3-1.5-3.5-2.7c-1.2-1.2-2.2-2.5-2.8-3.5c-0.6-1-1-1.7-1.2-1.6c-0.2,0-0.3,0.9,0.1,2.1
			c0.4,1.2,1.3,2.8,2.7,4.2c1.4,1.4,3,2.3,4.3,2.6c1.3,0.3,2.1,0.2,2.1,0C90.4,122,89.6,121.8,88.7,121.2z"/>
		<path class="st2" d="M86.2,117.3c0.7,0.8,1.4,1.4,2.1,1.7c0.7,0.3,1.1,0.3,1.2,0.1c0.1-0.2-0.1-0.6-0.5-1.1
			c-0.4-0.5-0.9-1.1-1.6-1.9c-0.7-0.7-1.3-1.4-1.9-1.7c-0.6-0.4-1-0.5-1.2-0.3c-0.1,0.2,0,0.6,0.4,1.1
			C85.1,115.8,85.6,116.5,86.2,117.3z"/>
		<path class="st2" d="M108.5,132.5c-1.1-0.8-2.3-1.3-2.6-0.9c-0.3,0.4,0.4,1.4,1.6,2.3c1.3,0.9,2.7,0.9,2.8,0.5
			C110.6,133.9,109.7,133.2,108.5,132.5z"/>
		<path class="st2" d="M130.3,142.1c-0.9-0.3-2-0.8-3.2-1.5c-2.3-1.5-4.2-3.1-4.5-2.7c-0.3,0.3,1,2.4,3.7,4.2
			c1.4,0.8,2.8,1.2,3.9,1.2c1.1,0,1.7-0.2,1.7-0.5C131.8,142.6,131.2,142.3,130.3,142.1z"/>
		<path class="st2" d="M293,68.8c0.6-0.4,1.4-1.2,1.9-2.2c0.6-1,0.9-1.9,1.1-2.6c0.2-0.7,0.3-1.1,0.1-1.3c-0.2-0.1-0.6,0.1-1.1,0.7
			c-0.5,0.6-1,1.4-1.5,2.3c-1,1.8-2.1,3.1-1.8,3.5C291.9,69.4,292.3,69.2,293,68.8z"/>
		<path class="st2" d="M300,55.9c0.5,0,1-0.9,1.4-2.2c0.4-1.3,0.5-2.5,0.1-2.7c-0.4-0.2-1.2,0.8-1.7,2.2
			C299.3,54.5,299.5,55.8,300,55.9z"/>
		<path class="st2" d="M9.6,37.8c-0.5,0.8-0.9,2-1.1,3.3c-0.4,2.7-0.2,4.7,0.2,4.8c0.5,0.1,1-2,1.4-4.5c0.2-1.2,0.4-2.3,0.6-3.1
			c0.2-0.8,0.3-1.3,0-1.5C10.5,36.7,10.1,37,9.6,37.8z"/>
		<path class="st2" d="M224.8,24.8c-0.5-0.9-1.3-1.2-1.6-1c-0.4,0.3-0.2,1,0.1,1.7c0.3,0.7,0.8,1.2,1.3,1.1
			C225,26.6,225.2,25.7,224.8,24.8z"/>
		<path class="st2" d="M83.1,111.8c0.3-0.3,0.1-1.1-0.5-1.6c-0.5-0.5-1.2-0.7-1.6-0.5c-0.4,0.3-0.2,1,0.4,1.7
			C82,111.9,82.8,112.1,83.1,111.8z"/>
		<path class="st2" d="M287.4,42.1c-0.1-0.5-7.9,0.7-17.4,2.6c-9.5,1.9-17.1,3.8-17,4.2c0.1,0.4,7.9-0.7,17.4-2.6
			C279.9,44.5,287.5,42.6,287.4,42.1z"/>
		<path class="st2" d="M273.7,40.5c6-1.5,10.6-3.8,10.4-4.1c-0.2-0.5-4.9,1.1-10.8,2.5c-5.9,1.4-10.8,2-10.8,2.5
			C262.5,41.8,267.6,42,273.7,40.5z"/>
		<path class="st2" d="M265,54.6c-4.5,0.6-8.1,1.5-8,2c0.1,0.5,3.8,0.3,8.2-0.3c4.5-0.6,8.1-1.5,8-2C273.1,53.9,269.4,54,265,54.6z"
			/>
		<path class="st2" d="M208.5,28.1c0.4-0.1,0.4-1.2-0.1-2.3c-0.6-1-1.3-1.7-1.7-1.5c-0.4,0.2-0.3,1.2,0.3,2.2
			C207.4,27.5,208.1,28.2,208.5,28.1z"/>
		<g>
			<g>
				<line class="st3" x1="269.2" y1="66.6" x2="269.2" y2="66.6"/>
			</g>
		</g>
		<g>
			<g>
				<path class="st3" d="M256.6,71.7"/>
			</g>
		</g>
		<g>
			<g>
				<path class="st3" d="M210.6,84.4"/>
			</g>
		</g>
		<g>
			<g>
				<path class="st4" d="M209.9,85.1"/>
			</g>
		</g>
		<g>
			<g>
				<path class="st4" d="M215.1,91.5"/>
			</g>
		</g>
		<g>
			<g>
				<path class="st4" d="M195.8,111.1"/>
			</g>
		</g>
		<g>
			<g>
				<path class="st3" d="M45.1,25.3"/>
			</g>
		</g>
		<g>
			<g>
				<path class="st3" d="M57.8,14.6"/>
			</g>
		</g>
	</g>
</g>
<g id="TEXTURE" class="st5">
</g>
<g id="DESIGNED_BY_FREEPIK">
</g>
</svg>
