<?xml version="1.0" encoding="utf-8"?>
<!-- Generator: Adobe Illustrator 24.3.0, SVG Export Plug-In . SVG Version: 6.00 Build 0)  -->
<svg version="1.1" id="Layer_1" xmlns="http://www.w3.org/2000/svg" xmlns:xlink="http://www.w3.org/1999/xlink" x="0px" y="0px"
	 viewBox="0 0 748 410" style="enable-background:new 0 0 748 410;" xml:space="preserve">
<style type="text/css">
	.st0{clip-path:url(#SVGID_2_);}
	.st1{fill:none;stroke:#FFFFFF;stroke-width:1.5;stroke-miterlimit:10;}
	.st2{fill:#FFFFFF;}
	.st3{clip-path:url(#SVGID_4_);}
	.st4{fill:#EAEAEA;}
	.st5{clip-path:url(#SVGID_6_);}
	.st6{fill:#00000A;}
	.st7{clip-path:url(#SVGID_8_);}
</style>
<g id="Index">
	<g id="flash_5_">
		<defs>
			<rect id="SVGID_1_" x="11" y="11" width="728" height="344"/>
		</defs>
		<clipPath id="SVGID_2_">
			<use xlink:href="#SVGID_1_"  style="overflow:visible;"/>
		</clipPath>
		<path class="st0" d="M3.4,471.3C2.7,484,1,575.7,2.1,592.7c2.3,35.1,8.9,69.1,40.1,89.3c30.4,19.6,60.6,38.5,96.5,45.3
			c16.5,3.2,32.6,7.3,48.6,12.6c4.5,1.5,38.5,9.1,50.2,17.6c16.6,12,34.5,21.6,52.6,31c19.6,10.1,39.7,19.4,59,30
			c19.4,10.6,38.2,21.5,61.3,19.1c23.1-2.4,43.4-13.3,65.4-19.9c22-6.7,44.1-13.3,66-20.3c21.8-7,44.1-13.2,65.3-22
			c16.2-6.7,31.5-15.4,47.5-22.4c3.6-2.2,7.2-4.7,10.4-7.6c15.1-13.8-0.4-30.8,3.6-47.6c3.4-14.2,12.8-24.5,21.7-35.5
			c15.5-19.1,12.2-36.3,7.4-58.7c-8.1-37.9,31.6-48.5,42.5-79.6c7.1-20.2,4-37.9-0.1-58.3c-0.5-2.4-0.9-4.8-1.4-7.2
			c-5.5-14.8-14.2-27.5-16.5-43.4c-2.2-15.1,1.6-31.2,6.6-45.3c6.5-18.4,13.1-36.2,5.7-55.6c-6.8-17.8-17.2-31.3-33.3-41.9
			c-15.6-10.3-32.6-18.5-50.8-23.1c-16.4-4.2-33.4-6.3-48.7-13.8c-35.5-17.2-72.8-2.6-108.5,7.4c-0.9,0.2-1.4-1.1-0.6-1.5
			c18.3-9.2,39-18.5,60-21.7c-11.3-3.2-21.7-8.9-33.3-12c-18.2-4.8-34.9-1-53.1-1.4c-12.8-0.3-25.1-1.8-37.8-1.2
			c-7.7,1.3-15.6,3.3-21.7,6.7c-8.4,4.6-25.2,3.3-20.3-2.4c4.1-10,8.9-19.7,12.2-30.1c5.2-16.5,8-33.9,12-50.8
			c4-16.8,6.8-33.8,10.7-50.5c2.4-10,12.8-42.9,13.6-43.6c14.4-23.6,14.5-54.2,15.9-81c1.7-30.6,1.7-61.3-1-91.8
			c-2.4-27.2-15-61.6-41-75.8c-27.8-15.2-62.7-8.2-76.7,21.4c-12.3,26.1-15.8,55-26.4,81.6c-10.7,26.7-25.4,52.3-38.1,78.1
			c-7.1,14.4-13.2,28-15.7,44c-1.9,12.2-2.9,24.6-5.8,36.7c-3.1,13-7.1,26.6-12.9,38.7c-2.6,5.4-5.8,10.5-9.1,15.6
			c-3.3,8.7-6.8,17.4-11.6,25.3c-10.8,17.8-26.1,31.6-42.6,44.1c-42.9,32.4-86.7,61-117.2,106.5c-14.9,22.2-32.8,46.8-39.4,73
			c-6.1,24.3-8.1,50.7-8.3,75.7C5,441.6,4.2,456.3,3.4,471.3"/>
	</g>
	<path d="M444.5,11.1c0-5.8-43.1-10.5-96.3-10.5s-96.3,4.8-96.3,10.6"/>
	<g>
		<path class="st1" d="M270.8,18.4c-14.8-2.5-15.4-8.5-2.2-10.9C281,5.3,299.5,6,314.5,6c21.2,0,41.5-0.5,62.6-1
			c17.6-0.2,53.1,0.8,53.1,7.8c0,6.1-15.2,7.2-33.7,8.4c-21.2,1.4-50.1,2.1-71.4,1.6C290.9,21.9,270.8,18.4,270.8,18.4L270.8,18.4z
			 M284,14c-2.3-3.7,97.1-3.7,117-2.8c28.6,1.3,18.2,4.4-5.2,5.2c-17.3,0.8-37.8,2.3-55.1,2.1C331.1,18.4,286.3,17.6,284,14L284,14z
			"/>
		<path class="st2" d="M329.1,14.4c0,0,2.7-0.2,6.9-0.4c2.1-0.1,4.5-0.1,7-0.2c2.6,0,5.3,0,7.9-0.1c1.3,0,2.7,0,4,0
			c1.3,0,2.6,0,3.9,0c2.5,0,4.9,0,7,0c4.1,0.1,6.9,0.2,6.9,0.2s-2.6,0.3-6.7,0.7c-2,0.2-4.4,0.3-7,0.5c-2.5,0.2-5.4,0.1-8.1,0.2
			c-1.4,0-2.8,0-4.2,0c-1.3,0-2.7-0.1-3.9-0.1c-2.6-0.1-4.9-0.2-7-0.3C331.8,14.7,329.1,14.4,329.1,14.4L329.1,14.4z"/>
	</g>
	<path d="M733,354.3c0,30.2-161.3,54.7-360.3,54.7S12.4,384.5,12.4,354.3"/>
</g>
<g id="Middle_1_">
	<g id="middle_2_">
		<defs>
			<rect id="SVGID_3_" x="-3227.5" y="293.5" width="745" height="300"/>
		</defs>
		<clipPath id="SVGID_4_">
			<use xlink:href="#SVGID_3_"  style="overflow:visible;"/>
		</clipPath>
		<path class="st3" d="M-3224.6,410.3c-0.7,12.7-2.4,104.5-1.3,121.4c2.3,35.1,8.9,69.1,40.1,89.3c30.4,19.6,60.6,38.5,96.5,45.3
			c16.5,3.2,32.6,7.3,48.6,12.6c4.5,1.5,38.5,9.1,50.2,17.6c16.6,12,34.5,21.6,52.6,31c19.6,10.1,39.7,19.4,59,30
			c19.4,10.6,38.2,21.5,61.3,19.1c23.1-2.4,43.4-13.3,65.4-19.9c22-6.7,44.1-13.3,66-20.3c21.8-7,44.1-13.2,65.3-22
			c16.2-6.7,31.5-15.4,47.5-22.4c3.6-2.2,7.2-4.7,10.4-7.6c15.1-13.8-0.4-30.8,3.6-47.6c3.4-14.2,12.8-24.5,21.7-35.5
			c15.5-19.1,12.2-36.3,7.4-58.7c-8.1-37.9,31.6-48.5,42.5-79.6c7.1-20.2,4-37.9-0.1-58.3c-0.5-2.4-0.9-4.8-1.4-7.2
			c-5.5-14.8-14.2-27.5-16.5-43.4c-2.2-15.1,1.6-31.2,6.6-45.3c6.5-18.4,13.1-36.2,5.7-55.6c-6.8-17.8-17.2-31.3-33.3-41.9
			c-15.6-10.3-32.6-18.5-50.8-23.1c-16.4-4.2-33.4-6.3-48.7-13.8c-35.5-17.2-72.8-2.6-108.5,7.4c-0.9,0.2-1.4-1.1-0.6-1.5
			c18.3-9.2,39-18.5,60-21.7c-11.3-3.2-21.7-8.9-33.3-12c-18.2-4.8-34.9-1-53.1-1.4c-12.8-0.3-25.1-1.8-37.8-1.2
			c-7.7,1.3-15.6,3.3-21.7,6.7c-8.4,4.6-25.2,3.3-20.3-2.4c4.1-10,8.9-19.7,12.2-30.1c5.2-16.5,8-33.9,12-50.8
			c4-16.8,6.8-33.8,10.7-50.5c2.4-10,12.8-42.9,13.6-43.6c14.4-23.6,14.5-54.2,15.9-81c1.7-30.6,1.7-61.3-1-91.8
			c-2.4-27.2-15-61.6-41-75.8c-27.8-15.2-62.7-8.2-76.7,21.4c-12.3,26.1-15.8,55-26.4,81.6c-10.7,26.7-25.4,52.3-38.1,78.1
			c-7.1,14.4-13.2,28-15.7,44c-1.9,12.2-2.9,24.6-5.8,36.7c-3.1,13-7.1,26.6-12.9,38.7c-2.6,5.4-5.8,10.5-9.1,15.6
			c-3.3,8.7-6.8,17.4-11.6,25.3c-10.8,17.8-26.1,31.6-42.6,44.1c-42.9,32.4-86.7,61-117.2,106.5c-14.9,22.2-32.8,46.8-39.4,73
			c-6.1,24.3-8.1,50.7-8.3,75.7C-3223,380.6-3223.8,395.3-3224.6,410.3"/>
	</g>
	<path d="M-2494.1,294.5c0-22.9-161.4-41.5-360.6-41.5c-199.1,0-360.5,18.6-360.5,41.5"/>
	<g>
		<path class="st1" d="M-3118.5,311.4c-43-7.3-11.2-25,27.3-32.1c36-6.4,90-4.2,133.7-4.2c61.7,0,120.8-1.4,182.5-2.8
			c51.4-0.7,185.1-4.2,185.1,16.3c0,17.7-74.5,27.6-128.5,31.1c-61.7,4.2-146.2,7.4-208.2,4.5
			C-3067.1,317.8-3118.5,311.5-3118.5,311.4L-3118.5,311.4z M-3150.5,321.2c-51-10.7-27.7-37.1,17.9-47.5
			c42.6-9.4,99.1-4.5,150.8-4.5c73.1,0,143.1-2.1,216.2-4.2c60.9-1,219.2-6.3,219.2,24c0,22.7-5.5,37.2-113.9,46.1
			c-73.1,6.3-232.6,11.8-306.2,9.3C-3084.3,340.4-3150.5,321.2-3150.5,321.2L-3150.5,321.2z M-3132.3,316.5
			c-47.9-9.7-30.9-32.8,12.1-42.2c40.1-8.5,100.2-5.7,148.9-5.7c68.7,0,134.5-1.9,203.2-3.8c57.2-0.9,206.1-5.7,206.1,21.7
			c0,23.6-38.8,37.5-143.1,41.5c-69.1,2.6-162.7,8.3-231.9,6C-3048,330.6-3132.3,316.5-3132.3,316.5L-3132.3,316.5z M-3049.3,297.5
			c-6.1-11.8,281.8-10.6,335.7-7.6c77.8,4.3,49.5,14.1-14.1,16.6c-47.1,2.5-96.6,2.5-143.7,1.8
			C-2897.5,308.4-3043.2,309.3-3049.3,297.5L-3049.3,297.5z M-3096.8,297.5c-7.5-20.7,343.3-19.9,408.8-14.5
			c94.5,7.6,60.1,24.9-17.2,29.2c-57.2,4.3-117.4,4.3-174.6,3.2C-2911.3,315.4-3089.3,318.2-3096.8,297.5L-3096.8,297.5z"/>
		<path class="st2" d="M-2985.7,298.2l10.9-0.3c7-0.1,16.9-0.4,28.8-0.5c6,0,12.4-0.1,19.3-0.3c6.8-0.1,14-0.3,21.5-0.5l23-0.4
			l23.7-0.3c15.9-0.1,31.8-0.3,46.7-0.3h21.5c6.8,0,13.3,0.1,19.3,0.2c11.9,0.2,21.9,0.5,28.8,0.6l10.9,0.3l-10.9,0.3
			c-7,0.1-16.9,0.4-28.8,0.5c-6,0.1-12.4,0.1-19.3,0.3l-21.5,0.5c-14.9,0.3-30.8,0.5-46.7,0.7c-7.9,0.1-15.9,0.1-23.7,0.2l-23,0.1
			h-21.5c-6.8,0-13.3-0.1-19.3-0.2c-11.9-0.2-21.9-0.5-28.8-0.6C-2981.8,298.3-2985.7,298.2-2985.7,298.2L-2985.7,298.2z"/>
	</g>
	<path d="M-3211.4,592.5c0,19.9,152,36,339.6,36c187.5,0,339.5-16.1,339.5-36"/>
	<path class="st4" d="M-2822.2,416.9c-18.7,0.5-35.6-9.1-53-12.1c-25.2-4.2-44.3-11.3-65.6-19.6c-1.8-0.7-0.8-2.7,1.6-2.2
		c17,3.6,33.5,7.6,50.4,11.1c0.6-3,1.5-5.9,2.4-8.8c0.2-0.6,2-0.6,2.2,0c0.8,3.2,1.4,6.5,1.9,9.7c2.3,0,4.6-0.1,6.9-0.2
		c-0.7-8-0.5-15.7,0.8-23.8c0.1-0.7,2-0.7,2.1,0c0.8,5.3,0.8,10.9,3.1,16c1.1,2.4,2.6,4.7,3.6,7c1-0.1,2-0.2,2.9-0.3
		c-2.3-12.1-1.1-24.8,3.6-36.4c0.4-0.9,2.9-0.7,2.8,0.2c-1.1,8-0.2,15.9,2.2,23.8c1,3.4,2.7,6.9,3.9,10.4c0.8-0.2,1.7-0.4,2.5-0.6
		c-1.5-13.1,3.2-26.3,6.6-39.3c0.2-0.9,2.4-0.5,2.6,0.2c1.9,7.9,2,16.3,2.3,24.3c0.1,2.7,0.5,5.3,1,8c3-3,3.7-6,4.2-9.1
		c0.1-0.6,0.2-1.3,0.3-1.9c0,0,0-0.1,0-0.1c1.2-8,2.4-15.9,5-23.8c0.4-1.1,3.1-0.7,3.3,0.2c2.3,10.5,2,21.2,2.4,31.8
		c0.4,10.6,3.6,20.8,5.1,31.3C-2814.8,415.2-2818.6,416.8-2822.2,416.9z"/>
	<path class="st4" d="M-2806.7,413.7c-0.3-20.9-6-42.6-3.4-63.3c0.2-1.4,2.5-2,2.8-0.4c3.5,20.7,8.7,42.6,8.1,63.7
		C-2799.4,418.3-2806.6,418.3-2806.7,413.7z"/>
	<path class="st4" d="M-2792.8,410.6c-1.2-6.2-0.7-12.1-0.5-18.3c0.2-5.8-0.6-11.5-0.4-17.2c0.1-2,2.9-1.9,3.1,0
		c0.6,5.8,2.4,11.4,2.6,17.2c0.2,5.6,0.1,11.2,1.3,16.6C-2785.8,412.9-2792,414.6-2792.8,410.6z"/>
	<path class="st4" d="M-2778.4,403.5c-0.6-7-0.6-14-1.2-20.9c-0.2-2,3.1-2.4,3.5-0.5c1.6,6.8,2.3,13.7,3.5,20.6
		C-2771.8,407-2778.1,407.8-2778.4,403.5z"/>
	<path class="st4" d="M-2764.8,403.1c0-5.2,0.5-10.5-0.5-15.7c-0.5-2.4,2.9-3.3,3.6-1c1.7,5.4,1.8,11.1,2.3,16.7
		C-2759.1,406.5-2764.9,406.6-2764.8,403.1z"/>
	<path class="st4" d="M-2750.9,399.5c-0.7-4.4-0.1-8.7,0.3-13.1c0.2-2.3,3.4-2.3,3.6,0c0.3,3.9,0.2,7.8,1.3,11.6
		C-2744.7,401.5-2750.4,402.9-2750.9,399.5z"/>
	<path class="st4" d="M-2735.8,395c0-3.2,0.1-6.3-0.3-9.5c-0.3-2.3,3.3-2.6,3.9-0.5c0.9,3.3,1.2,6.7,1.7,10
		C-2730.1,398.3-2735.8,398.5-2735.8,395z"/>
	<path class="st4" d="M-2824.1,514.1c-0.6,10.7-4.1,23.5-17.8,19.7c-8.4-2.3-15.4-6.4-23-10.5c-10.4-5.6-21.6-9.7-32.4-14.3
		c-18.1-7.8-36.4-17.2-51.5-29.9c-1.1-1,0.3-2.8,1.6-2c16.8,10.8,35.9,16.2,54.6,22.2c-0.4-5-1-9.8-0.3-14.9
		c0.7-5.3,1.6-10.5,2.3-15.7c0.2-1.2,2.1-1.1,2.3,0c1.3,6.6,0.4,13.5,2,19.9c1.2,4.8,3.1,9,3.3,14c0.6,0.2,1.2,0.4,1.8,0.6
		c-0.9-15.5,2.4-30.5,4.7-45.9c0.2-1.2,1.9-0.8,2,0.3c0.8,8.2,1,16.5,2,24.7c1,8.5,3.6,16.8,3,25.4c1.2,0.5,2.4,1,3.6,1.6
		c-0.8-7.2-0.2-14.8-0.3-21.8c0-9.4,0.4-18.4,3.1-27.5c0.6-2,3.9-1.7,3.7,0.5c-1.8,17.8,3.1,38.2,7.8,55.3c0.1,0.5,0.2,0.9,0.2,1.4
		c0.5,0.3,1.1,0.6,1.7,1c-4.3-20.6-4.2-40.4-1.8-61.6c0.2-1.6,2.3-1.6,2.5,0c1.5,12.1,2.9,24.2,5.8,36.1c2.1,8.6,5.5,17.3,7.1,26
		c0.7-6.1,0.5-12.3,0.4-18.4c-0.3-14.6-4.1-29-2.2-43.6c0.3-2,3.5-2.9,3.9-0.5C-2830.8,474.7-2823,494.7-2824.1,514.1z"/>
	<path class="st4" d="M-2814.1,533.2c-3.6-20.8-1.5-43.8-0.6-64.8c0.1-1.6,2.3-1.6,2.4,0c0.9,21.3,4.1,42.5,6.2,63.7
		C-2805.6,536.7-2813.3,537.8-2814.1,533.2z"/>
	<path class="st4" d="M-2802.2,536.4c-0.3-14.5,0.4-28.8-1.5-43.3c-0.2-1.4,2-1.6,2.4-0.3c3.7,14.1,6.3,28.9,6.1,43.6
		C-2795.3,540.9-2802.1,540.9-2802.2,536.4z"/>
	<path class="st4" d="M-2785.3,532.1c0.5-10.8,2.9-22-0.9-32.5c-0.5-1.4,1.7-2.3,2.4-1c5.2,10.3,4.6,22.2,4.9,33.5
		C-2778.8,536.2-2785.4,536.2-2785.3,532.1z"/>
	<path class="st4" d="M-2765.6,526.9c-0.2,4.1-6.2,4.1-6.4,0c-0.3-7.9,0.7-15.8-0.1-23.8c-0.3-2.6,4-3.2,4.6-0.6
		C-2765.8,510.5-2765.2,518.8-2765.6,526.9z"/>
	<path class="st4" d="M-2759,519.3c0.3-5.1,0.8-10.1,0.3-15.2c-0.2-2.6,4-3.1,4.5-0.6c1,5.2,1.1,10.5,1.4,15.8
		C-2752.7,523.3-2759.2,523.3-2759,519.3z"/>
	<path class="st4" d="M-2744.8,510.8c0-3.2,0.2-6.4-0.9-9.4c-0.9-2.4,3-4,4.1-1.7c1.7,3.5,1.8,7.3,2.2,11.1
		C-2739.2,514.2-2744.8,514.2-2744.8,510.8z"/>
	<path class="st4" d="M-2846.3,625c-17.7-1.9-38.4-8.8-54.6-14.9c-20-7.5-39.3-16.8-58.3-25.9c-1.4-0.7-0.2-2.4,1.3-1.8
		c12.9,5.3,25.9,9.8,39.3,13.5c-0.5-4.6,1.3-9.9,3-14c0.3-0.6,1.5-0.8,1.7,0c0.4,2.4,0.3,4.8,0.5,7.2c0.1,2.6,0.8,4.8,1.5,7.3
		c0.1,0.5,0.1,0.9,0,1.3c1.5,0.4,3.1,0.8,4.6,1.2c-1-8.4,0.9-17.4,2-25.7c0.2-1.4,2.4-1.4,2.5,0c0.7,5.1,1.6,10.1,2.2,15.2
		c0.5,4.3,2.4,8.3,1.6,12.5c0.8,0.2,1.6,0.4,2.4,0.6c0.4,0.1,0.9,0.2,1.3,0.3c-0.3-3.9,0.4-7.9,0.9-11.8c0.9-7.2,2.3-14.3,2.8-21.5
		c0.1-1.5,2.5-1.4,2.7,0c1.9,11.8,0.3,24.8,5.4,36.1c0,0,0,0.1,0,0.1c0.8,0.2,1.7,0.4,2.5,0.6c-3.2-11.6-1.1-26,2.6-36.4
		c0.3-0.8,1.7-0.8,2,0c1.8,5.9,1.1,12.1,1.9,18.2c1,7.7,3.6,14.2,7.2,21.3c0.1,0.2,0.2,0.4,0.2,0.6c0.1,0,0.2,0.1,0.3,0.1
		c-1.5-4.6-1.5-9.5-1.6-14.3c-0.2-7.9-1-16,0.5-23.8c0.2-1.1,2.3-1.1,2.6,0c2.6,11.9,4.6,22.8,9.9,33.7c-0.6-2.7-1.2-5.3-1.7-7.9
		c-1.1-6.1,0.7-12.7,1.4-18.7c0.3-2.8,4.9-2.8,5.3,0c1.8,13.6,6.8,27,10.2,40.3C-2839.4,621.3-2841.9,625.4-2846.3,625z"/>
	<path class="st4" d="M-2828.9,623c-5.7-13.6-4.3-27.3-7.4-41.4c-0.2-1.1,1.5-1.6,1.9-0.5c2.6,7.5,4,15.2,6.1,22.9
		c1.7,6.2,4.7,11.9,5.7,18.2C-2822.1,625.7-2827.7,625.8-2828.9,623z"/>
	<path class="st4" d="M-2545.4,457.2c-7,11.7-8.6,25.6-16.9,36.6c-2.4,3.2-6.9-0.3-4.3-3.3c8.6-10.1,11.8-23.6,19.8-34.1
		C-2546.2,455.5-2544.8,456.3-2545.4,457.2z"/>
	<path class="st4" d="M-2578.7,498.4c4.2-6.6,7.3-13.8,12.2-20c0.5-0.6,1.4,0.2,1.1,0.8c-3.9,6.8-5.9,14.5-9.3,21.5
		C-2576.1,503.3-2580.2,500.9-2578.7,498.4z"/>
	<path class="st4" d="M-2590,594.7c-1.6,4.8-3.9,9.2-6.3,13.6c-1.3,2.5-5.3,0-3.7-2.2c2.9-3.9,5.8-7.9,8.1-12.3
		C-2591.4,592.8-2589.6,593.6-2590,594.7z"/>
	<path class="st4" d="M-2588.8,602.5c1.7-3.2,4.4-6,6.3-9c2.2-3.4,4.1-6.9,5.3-10.7c0.5-1.4,2.5-0.8,2.2,0.6
		c-1.6,7.3-5,16.5-10.1,22.1C-2586.9,607.4-2590,604.8-2588.8,602.5z"/>
	<path class="st4" d="M-2572.6,599.1c-1.4,2.1-5.3,0.8-4.3-1.8c4-9.8,11-18.2,15-28.1c0.4-1,1.7-0.6,1.5,0.4
		C-2562.2,579.7-2566.8,590.7-2572.6,599.1z"/>
	<path class="st4" d="M-2560.7,592.6c-1.1,2.1-4.6,0.6-3.8-1.6c3.6-10.7,13.2-18.2,15.5-29.6c0.2-0.9,1.6-0.7,1.6,0.2
		C-2548.2,573-2555.7,582.7-2560.7,592.6z"/>
	<path class="st4" d="M-2548,481.7c4.8-13.1,13.1-24.8,15.1-38.8c0.2-1.2,2.2-0.9,2.2,0.3c-0.5,14.2-7.2,26.9-12,39.9
		C-2543.9,486.5-2549.2,485-2548,481.7z"/>
	<path class="st4" d="M-2530,472.5c-2.2,3.2-6.8,0.4-5.1-3c6.3-12.9,16.8-24.9,17.3-39.9c0-1.2,1.9-1.3,1.9,0
		C-2515.8,444.7-2521.6,460.1-2530,472.5z"/>
	<path class="st4" d="M-2511.8,453.8c-1.7,2.8-5.7,0.4-4.3-2.5c5-10.6,11.2-19.6,12.7-31.5c0.1-0.9,1.6-1.3,1.8-0.2
		C-2499.4,431.2-2505.7,444.1-2511.8,453.8z"/>
	<path class="st4" d="M-2505.5,304.7c2.3,13.3-3.4,25.4-11.5,37.6c-1.2,1.8-5.6,1.2-4.8-0.8c4.5-12.4,11.3-24.3,14.3-37
		C-2507.4,303.7-2505.7,304-2505.5,304.7z"/>
	<path class="st4" d="M-2517.1,319.3c-3.9,10-5.6,20.4-13.9,29.4c-2,2.2-6.9,0.3-5.3-2c6.5-9.1,12-18.4,17.4-27.8
		C-2518.5,318.3-2516.8,318.6-2517.1,319.3z"/>
	<path class="st4" d="M-2531.6,325.5c-2.2,8.1-9.5,17.7-21,22.8c-2.6,1.2-5.1-1.2-3.3-2.5c9.1-6.3,18.6-12.4,22.3-20.6
		C-2533.2,324.5-2531.4,324.8-2531.6,325.5z"/>
	<path class="st4" d="M-2570.9,345.8c4.9-5.8,11.5-10.6,14.7-17.4c0.5-1,2.2-0.7,1.9,0.5c-2.3,7.4-8,12.8-12.4,19.1
		C-2568.5,350.4-2572.8,348-2570.9,345.8z"/>
	<path class="st4" d="M-2812,622.2c-4-9.9-7.4-19.9-6.2-30.5c0.2-1.6,2.7-1.7,2.8,0c0.4,10,5,19.1,9.6,28.1
		C-2803.7,623.9-2810.3,626.4-2812,622.2z"/>
	<path class="st4" d="M-2799.7,622.7c-2.4-6.5-1.4-13.5-3.6-20.1c-0.6-1.7,2.5-3,3.3-1.3c3.1,6.4,3.3,13.4,6.1,19.9
		C-2792.5,624.5-2798.5,626.1-2799.7,622.7z"/>
	<path class="st4" d="M-2790.3,622.3c-0.7-4.1-1.4-8.2-2.5-12.3c-0.5-2,2.5-2.6,3.3-0.8c1.7,3.9,3,7.8,4.2,11.8
		C-2784.4,624.1-2789.8,625.3-2790.3,622.3z"/>
	<path class="st4" d="M-2777.6,618.3c-1.1-1.9-1.1-4.2-2-6.2c-0.8-1.6,1.6-3,2.7-1.4c1.3,1.9,2.7,4.4,3,6.7
		C-2773.7,619.2-2776.7,619.8-2777.6,618.3z"/>
</g>
<g id="Bottom_2_">
	<g>
		<g id="little_3_">
			<defs>
				<rect id="SVGID_5_" x="-1669.2" y="-907" width="681" height="184"/>
			</defs>
			<clipPath id="SVGID_6_">
				<use xlink:href="#SVGID_5_"  style="overflow:visible;"/>
			</clipPath>
			<path class="st5" d="M-1681.3-1090.2c-0.7,12.7-2.4,104.5-1.3,121.4c2.3,35.1,8.9,69.1,40.1,89.3c30.4,19.6,60.6,38.5,96.5,45.3
				c16.5,3.2,32.6,7.3,48.6,12.6c4.5,1.5,38.5,9.1,50.2,17.6c16.6,12,34.5,21.6,52.6,31c19.6,10.1,39.7,19.4,59,30
				c19.4,10.6,38.2,21.5,61.3,19.1c23.1-2.4,43.4-13.3,65.4-19.9c22-6.7,44.1-13.3,66-20.3c21.8-7,44.1-13.2,65.3-22
				c16.2-6.7,31.5-15.4,47.5-22.4c3.6-2.2,7.2-4.7,10.4-7.6c15.1-13.8-0.4-30.8,3.6-47.6c3.4-14.2,12.8-24.5,21.7-35.5
				c15.5-19.1,12.2-36.3,7.4-58.7c-8.1-37.9,31.6-48.5,42.5-79.6c7.1-20.2,4-37.9-0.1-58.3c-0.5-2.4-0.9-4.8-1.4-7.2
				c-5.5-14.8-14.2-27.5-16.5-43.4c-2.2-15.1,1.6-31.2,6.6-45.3c6.5-18.4,13.1-36.2,5.7-55.6c-6.8-17.8-17.2-31.3-33.3-41.9
				c-15.6-10.3-32.6-18.5-50.8-23.1c-16.4-4.2-33.4-6.3-48.7-13.8c-35.5-17.2-72.8-2.6-108.5,7.4c-0.9,0.2-1.4-1.1-0.6-1.5
				c18.3-9.2,39-18.5,60-21.7c-11.3-3.2-21.7-8.9-33.3-12c-18.2-4.8-34.9-1-53.1-1.4c-12.8-0.3-25.1-1.8-37.8-1.2
				c-7.7,1.3-15.6,3.3-21.7,6.7c-8.4,4.6-25.2,3.3-20.3-2.4c4.1-10,8.9-19.7,12.2-30.1c5.2-16.5,8-33.9,12-50.8
				c4-16.8,6.8-33.8,10.7-50.5c2.4-10,12.8-42.9,13.6-43.6c14.4-23.6,14.5-54.2,15.9-81c1.7-30.6,1.7-61.3-1-91.8
				c-2.4-27.2-15-61.6-41-75.8c-27.8-15.2-62.7-8.2-76.7,21.4c-12.3,26.1-15.8,55-26.4,81.6c-10.7,26.7-25.4,52.3-38.1,78.1
				c-7.1,14.4-13.2,28-15.7,44c-1.9,12.2-2.9,24.6-5.8,36.7c-3.1,13-7.1,26.6-12.9,38.7c-2.6,5.4-5.8,10.5-9.1,15.6
				c-3.3,8.7-6.8,17.4-11.6,25.3c-10.8,17.8-26.1,31.6-42.6,44.1c-42.9,32.4-86.7,61-117.2,106.5c-14.9,22.2-32.8,46.8-39.4,73
				c-6.1,24.3-8.1,50.7-8.3,75.7C-1679.7-1119.9-1680.5-1105.2-1681.3-1090.2"/>
		</g>
		<path class="st6" d="M-989-907c0-19.9-152-36.1-339.5-36.1s-339.6,16.2-339.6,36.1"/>
	</g>
	<g>
		<path class="st1" d="M-1523.6-894.7c-38.3-5.8-40.1-20-5.7-25.7c32.1-5.1,80.1-3.4,119-3.4c54.9,0,107.6-1.1,162.5-2.3
			c45.8-0.6,164.8-3.4,164.8,13.1c0,14.2-66.4,22.2-114.5,25c-54.9,3.4-130.1,5-185.4,3.6C-1471.5-886.5-1523.6-894.7-1523.6-894.7
			L-1523.6-894.7z M-1541.9-890.2c-42.1-7.8-44-26.6-6.3-34.2c35.2-6.8,88-4.5,130.7-4.5c60.3,0,118.1-1.5,178.5-3
			c50.3-0.8,181-4.5,181,17.4c0,18.9-72.9,29.5-125.7,33.3c-60.3,4.5-142.8,6.7-203.6,4.9C-1484.7-879.2-1541.9-890.1-1541.9-890.2
			L-1541.9-890.2z M-1476.1-904.6c-5.5-9.4,235.1-9.6,283.1-7.2c69.3,3.4,44.1,11.3-12.6,13.3c-42,2-86.1,2-128,1.5
			C-1356.7-897-1470.7-895.2-1476.1-904.6z M-1514.1-904.8c-6.7-16.6,285.7-17,343.9-12.7c84.1,6.1,53.5,20-15.3,23.4
			c-51,3.5-104.5,3.5-155.5,2.6C-1369.1-891.4-1507.5-888.2-1514.1-904.8L-1514.1-904.8z"/>
		<path class="st2" d="M-1407.7-905.3l8.8-0.5c5.6-0.3,13.6-0.7,23.3-1.1l15.6-0.3c5.5-0.1,11.4-0.3,17.4-0.2c6,0,12.3,0,18.6,0.1
			c6.3,0,12.8,0.2,19.2,0.2l19.2,0.4l18.6,0.4l17.3,0.3c5.5,0.2,10.7,0.1,15.5,0.1c4.8,0,9.2,0.1,13.1,0l10.1-0.3l8.8-0.2l-8.8,0.6
			l-10.1,0.7c-3.9,0.2-8.3,0.3-13.2,0.4c-4.8,0.1-10.1,0.3-15.6,0.3l-17.4,0c-12.1-0.1-24.9-0.3-37.8-0.5
			c-6.4-0.1-12.8-0.3-19.2-0.3l-18.6-0.3c-6-0.1-11.8-0.1-17.3-0.1l-15.6-0.1l-23.3,0.2L-1407.7-905.3L-1407.7-905.3z"/>
	</g>
	<path class="st4" d="M-1319-769.3c-8.7-1.7-18.7-9.8-26.9-13.2c-7.6-3.2-14.4-7.9-21.6-11.9c-14.6-8-27.2-15.3-40.3-25.5
		c-1.2-0.9,0.3-2.7,1.5-2c13.1,7.7,26.7,13.1,40.5,18.2c0.5-3.3,0.8-6.6,1.5-9.8c0.2-0.8,1.5-0.8,1.7,0c0.9,4,2.4,7.8,3.3,11.8
		c0,0.2,0,0.3,0,0.4c0.6,0.2,1.3,0.5,1.9,0.7c-0.4-6.1,0.6-12.4,2.4-18c0.4-1.2,2-1.2,2.4,0c2.1,6.9,1.7,14.3,4,21.2
		c0.7,0.3,1.5,0.5,2.2,0.8c-1.6-8.4-0.3-18.7,1.5-25.6c0.3-1.1,2-1.1,2.3,0c1.5,5.4,1.9,10.9,3.3,16.3c1.1,4.5,3,8.9,3.8,13.4
		c0.8,0.3,1.6,0.6,2.3,0.9c0.1,0.1,0.3,0.1,0.4,0.2c-1.2-9.4,0-19.9,0.8-28.1c0.2-1.8,2.6-1.8,2.8,0c0.9,8,1.9,16.3,4.8,23.9
		c1.2,3.1,2.3,6.8,4.4,9.4c0.7,0.8,1.2,1.2,1.5,1.5c0.1,0.1,0.3,0.1,0.4,0.2c0.2,0,0.5,0,0.7,0c-0.7-3.1-1.4-6.1-1.9-9.2
		c-1.7-8.6,0.2-17.5,0.8-26.1c0.2-2.5,3.4-3.6,4.8-1.3c6.5,11.1,10.7,30.4,11.4,43C-1301.9-767.9-1311.7-767.9-1319-769.3z"/>
	<path class="st4" d="M-1288.8-760.6c-0.4,3.9-5.5,3.9-6,0c-1.7-14,0.2-27.9-2.4-42c-0.3-1.4,1.8-2,2.2-0.6
		C-1291.3-790-1287.3-774.4-1288.8-760.6z"/>
	<path class="st4" d="M-1283.9-761.1c0.5-9.5,0.2-19.1-0.8-28.5c-0.2-1.6,2.3-1.8,2.7-0.4c2.4,9.5,3.7,19.1,4,28.9
		C-1277.9-757.3-1284.1-757.3-1283.9-761.1z"/>
	<path class="st4" d="M-1268.9-760.6c-0.5-5.4,0.1-10.8-0.5-16.2c-0.2-1.9,2.9-2.3,3.3-0.5c1.2,5.3,1.2,10.7,2.4,15.9
		C-1262.8-757.5-1268.5-756.7-1268.9-760.6z"/>
	<path class="st4" d="M-1257.7-763.3c-0.9-3.5,0.2-7.1-0.8-10.6c-0.5-2,2.5-3.4,3.4-1.4c1.4,3.4,1.6,7.1,2.3,10.7
		C-1252.2-761.5-1256.9-760.1-1257.7-763.3z"/>
	<path class="st4" d="M-1244.8-767.7c-0.5-1.9-0.6-3.7-0.2-5.6c0.3-1.4,2.2-0.9,2.4,0.3c0.2,1.4,0.7,2.6,1.5,3.7
		C-1239.5-766.9-1244-764.7-1244.8-767.7z"/>
</g>
<g id="Thumb_3_">
	<g id="thumb_4_">
		<defs>
			<rect id="SVGID_7_" x="-1420" y="-299" width="202" height="234"/>
		</defs>
		<clipPath id="SVGID_8_">
			<use xlink:href="#SVGID_7_"  style="overflow:visible;"/>
		</clipPath>
		<path class="st7" d="M-1667.6,395.3c-0.7,12.7-2.4,104.5-1.3,121.4c2.3,35.1,8.9,69.1,40.1,89.3c30.4,19.6,60.6,38.5,96.5,45.3
			c16.5,3.2,32.6,7.3,48.6,12.6c4.5,1.5,38.5,9.1,50.2,17.6c16.6,12,34.5,21.6,52.6,31c19.6,10.1,39.7,19.4,59,30
			c19.4,10.6,38.2,21.5,61.3,19.1c23.1-2.4,43.4-13.3,65.4-19.9c22-6.7,44.1-13.3,66-20.3c21.8-7,44.1-13.2,65.3-22
			c16.2-6.7,31.5-15.4,47.5-22.4c3.6-2.2,7.2-4.7,10.4-7.6c15.1-13.8-0.4-30.8,3.6-47.6c3.4-14.2,12.8-24.5,21.7-35.5
			c15.5-19.1,12.2-36.3,7.4-58.7c-8.1-37.9,31.6-48.5,42.5-79.6c7.1-20.2,4-37.9-0.1-58.3c-0.5-2.4-0.9-4.8-1.4-7.2
			c-5.5-14.8-14.2-27.5-16.5-43.4c-2.2-15.1,1.6-31.2,6.6-45.3c6.5-18.4,13.1-36.2,5.7-55.6c-6.8-17.8-17.2-31.3-33.3-41.9
			c-15.6-10.3-32.6-18.5-50.8-23.1c-16.4-4.2-33.4-6.3-48.7-13.8c-35.5-17.2-70.8-24.7-82.4-27.7c-18.2-4.8-34.9-1-53.1-1.4
			c-12.8-0.3-25.1-1.8-37.8-1.2c-7.7,1.3-15.6,3.3-21.7,6.7c-8.4,4.6-25.2,3.3-20.3-2.4c4.1-10,8.9-19.7,12.2-30.1
			c5.2-16.5,8-33.9,12-50.8c4-16.8,6.8-33.8,10.7-50.5c2.4-10,12.8-42.9,13.6-43.6c14.4-23.6,14.5-54.2,15.9-81
			c1.7-30.6,1.7-61.3-1-91.8c-2.4-27.2-15-61.6-41-75.8c-27.8-15.2-62.7-8.2-76.7,21.4c-12.3,26.1-15.8,55-26.4,81.6
			c-7.8,19.6-17.8,38.5-27.6,57.4c-3.6,6.9-7.1,13.8-10.5,20.7c-7.1,14.4-13.2,28-15.7,44c-1.9,12.2-2.9,24.6-5.8,36.7
			c-3.1,13-7.1,26.6-12.9,38.7c-2.6,5.4-5.8,10.5-9.1,15.6c-3.3,8.7-6.8,17.4-11.6,25.3c-10.8,17.8-26.1,31.6-42.6,44.1
			c-42.9,32.4-86.7,61-117.2,106.5c-14.9,22.2-32.8,46.8-39.4,73c-6.1,24.3-8.1,50.7-8.3,75.7
			C-1666,365.6-1666.8,380.3-1667.6,395.3"/>
	</g>
	<path d="M-1419.2-66.1c0,13.9,43.1,25.2,96.3,25.2s96.4-11.3,96.4-25.2"/>
	<path class="st4" d="M-1333-89.2c9,1.9,17.8,5,27,6.2c22.8,3.1,46.9,6.4,69.9,6.3c2.1,0,2.5,3.1,0.5,3.7c-12,3.3-23.8,2.3-36,0.7
		c-12-1.5-24.3-1.5-36.2-4c-11.7-2.4-22.9-6.7-34.4-10.1c-8-2.4-15.3-4.9-21.4-10.6c-0.7-0.7,0.2-1.9,1.1-1.4
		C-1353.5-92.2-1343.3-91.4-1333-89.2z"/>
</g>
</svg>
