<?xml version="1.0" encoding="utf-8"?>
<!-- Generator: Adobe Illustrator 24.3.0, SVG Export Plug-In . SVG Version: 6.00 Build 0)  -->
<svg version="1.1" id="Layer_1" xmlns="http://www.w3.org/2000/svg" xmlns:xlink="http://www.w3.org/1999/xlink" x="0px" y="0px"
	 viewBox="0 0 748 379" style="enable-background:new 0 0 748 379;" xml:space="preserve">
<style type="text/css">
	.st0{clip-path:url(#SVGID_2_);}
	.st1{fill:none;stroke:#FFFFFF;stroke-width:1.5;stroke-miterlimit:10;}
	.st2{fill:#FFFFFF;}
	.st3{clip-path:url(#SVGID_4_);}
	.st4{fill:#EAEAEA;}
	.st5{clip-path:url(#SVGID_6_);}
	.st6{fill:#00000A;}
	.st7{clip-path:url(#SVGID_8_);}
</style>
<g id="Index">
	<g id="flash_5_">
		<defs>
			<rect id="SVGID_1_" x="3239" y="-239" width="728" height="344"/>
		</defs>
		<clipPath id="SVGID_2_">
			<use xlink:href="#SVGID_1_"  style="overflow:visible;"/>
		</clipPath>
		<path class="st0" d="M3231.4,221.3c-0.7,12.7-2.4,104.5-1.3,121.4c2.3,35.1,8.9,69.1,40.1,89.3c30.4,19.6,60.6,38.5,96.5,45.3
			c16.5,3.2,32.6,7.3,48.6,12.6c4.5,1.5,38.5,9.1,50.2,17.6c16.6,12,34.5,21.6,52.6,31c19.6,10.1,39.7,19.4,59,30
			c19.4,10.6,38.2,21.5,61.3,19.1c23.1-2.4,43.4-13.3,65.4-19.9c22-6.7,44.1-13.3,66-20.3c21.8-7,44.1-13.2,65.3-22
			c16.2-6.7,31.5-15.4,47.5-22.4c3.6-2.2,7.2-4.7,10.4-7.6c15.1-13.8-0.4-30.8,3.6-47.6c3.4-14.2,12.8-24.5,21.7-35.5
			c15.5-19.1,12.2-36.3,7.4-58.7c-8.1-37.9,31.6-48.5,42.5-79.6c7.1-20.2,4-37.9-0.1-58.3c-0.5-2.4-0.9-4.8-1.4-7.2
			c-5.5-14.8-14.2-27.5-16.5-43.4c-2.2-15.1,1.6-31.2,6.6-45.3c6.5-18.4,13.1-36.2,5.7-55.6c-6.8-17.8-17.2-31.3-33.3-41.9
			c-15.6-10.3-32.6-18.5-50.8-23.1c-16.4-4.2-33.4-6.3-48.7-13.8c-35.5-17.2-72.8-2.6-108.5,7.4c-0.9,0.2-1.4-1.1-0.6-1.5
			c18.3-9.2,39-18.5,60-21.7c-11.3-3.2-21.7-8.9-33.3-12c-18.2-4.8-34.9-1-53.1-1.4c-12.8-0.3-25.1-1.8-37.8-1.2
			c-7.7,1.3-15.6,3.3-21.7,6.7c-8.4,4.6-25.2,3.3-20.3-2.4c4.1-10,8.9-19.7,12.2-30.1c5.2-16.5,8-33.9,12-50.8
			c4-16.8,6.8-33.8,10.7-50.5c2.4-10,12.8-42.9,13.6-43.6c14.4-23.6,14.5-54.2,15.9-81c1.7-30.6,1.7-61.3-1-91.8
			c-2.4-27.2-15-61.6-41-75.8c-27.8-15.2-62.7-8.2-76.7,21.4c-12.3,26.1-15.8,55-26.4,81.6c-10.7,26.7-25.4,52.3-38.1,78.1
			c-7.1,14.4-13.2,28-15.7,44c-1.9,12.2-2.9,24.6-5.8,36.7c-3.1,13-7.1,26.6-12.9,38.7c-2.6,5.4-5.8,10.5-9.1,15.6
			c-3.3,8.7-6.8,17.4-11.6,25.3c-10.8,17.8-26.1,31.6-42.6,44.1c-42.9,32.4-86.7,61-117.2,106.5c-14.9,22.2-32.8,46.8-39.4,73
			c-6.1,24.3-8.1,50.7-8.3,75.7C3233,191.6,3232.2,206.3,3231.4,221.3"/>
	</g>
	<path d="M3672.5-238.9c0-5.8-43.1-10.5-96.3-10.5c-53.2,0-96.3,4.8-96.3,10.6"/>
	<g>
		<path class="st1" d="M3499.1-231.3c-15.2-2.5-15.8-8.7-2.3-11.2c12.7-2.2,31.7-1.5,47-1.5c21.7,0,42.5-0.5,64.3-1
			c18.1-0.3,54.5,0.8,54.5,8c0,6.2-15.6,7.4-34.6,8.6c-21.7,1.5-51.4,2.2-73.3,1.6C3519.7-227.7,3499.1-231.3,3499.1-231.3
			L3499.1-231.3z M3509.1-232.2c-13.4-1.8-14-6-2-7.8c11.2-1.5,28.1-1,41.7-1c19.3,0,37.7-0.3,57-0.7c16-0.2,48.3,0.6,48.3,5.5
			c0,4.3-13.8,5.1-30.7,6c-19.3,1-45.6,1.5-65,1.1C3527.3-229.7,3509.1-232.2,3509.1-232.2L3509.1-232.2z M3517.9-236.2
			c-2.2-3.5,92.9-3.6,111.9-2.7c27.4,1.3,17.4,4.2-5,4.9c-16.6,0.7-36.2,2.2-52.8,2C3562.9-231.9,3520-232.7,3517.9-236.2
			L3517.9-236.2z"/>
		<path class="st2" d="M3560.1-235.6c0,0,2.7-0.2,6.9-0.4c2.1-0.1,4.5-0.1,7-0.2c2.6,0,5.3,0,7.9-0.1c1.3,0,2.7,0,4,0
			c1.3,0,2.6,0,3.9,0c2.5,0,4.9,0,7,0c4.1,0.1,6.9,0.2,6.9,0.2s-2.6,0.3-6.7,0.7c-2,0.2-4.4,0.3-7,0.5c-2.5,0.2-5.4,0.1-8.1,0.2
			c-1.4,0-2.8,0-4.2,0c-1.3,0-2.7-0.1-3.9-0.1c-2.6-0.1-4.9-0.2-7-0.3C3562.8-235.3,3560.1-235.6,3560.1-235.6L3560.1-235.6z"/>
	</g>
	<path d="M3961,104.3c0,30.2-161.3,54.7-360.3,54.7s-360.3-24.5-360.3-54.7"/>
</g>
<g id="Middle_1_">
	<g id="middle_2_">
		<defs>
			<rect id="SVGID_3_" x="0.5" y="43.5" width="745" height="300"/>
		</defs>
		<clipPath id="SVGID_4_">
			<use xlink:href="#SVGID_3_"  style="overflow:visible;"/>
		</clipPath>
		<path class="st3" d="M3.4,160.3C2.7,173,1,264.7,2.1,281.7c2.3,35.1,8.9,69.1,40.1,89.3c30.4,19.6,60.6,38.5,96.5,45.3
			c16.5,3.2,32.6,7.3,48.6,12.6c4.5,1.5,38.5,9.1,50.2,17.6c16.6,12,34.5,21.6,52.6,31c19.6,10.1,39.7,19.4,59,30
			c19.4,10.6,38.2,21.5,61.3,19.1c23.1-2.4,43.4-13.3,65.4-19.9c22-6.7,44.1-13.3,66-20.3c21.8-7,44.1-13.2,65.3-22
			c16.2-6.7,31.5-15.4,47.5-22.4c3.6-2.2,7.2-4.7,10.4-7.6c15.1-13.8-0.4-30.8,3.6-47.6c3.4-14.2,12.8-24.5,21.7-35.5
			c15.5-19.1,12.2-36.3,7.4-58.7c-8.1-37.9,31.6-48.5,42.5-79.6c7.1-20.2,4-37.9-0.1-58.3c-0.5-2.4-0.9-4.8-1.4-7.2
			c-5.5-14.8-14.2-27.5-16.5-43.4c-2.2-15.1,1.6-31.2,6.6-45.3c6.5-18.4,13.1-36.2,5.7-55.6c-6.8-17.8-17.2-31.3-33.3-41.9
			c-15.6-10.3-32.6-18.5-50.8-23.1c-16.4-4.2-33.4-6.3-48.7-13.8c-35.5-17.2-72.8-2.6-108.5,7.4c-0.9,0.2-1.4-1.1-0.6-1.5
			c18.3-9.2,39-18.5,60-21.7c-11.3-3.2-21.7-8.9-33.3-12c-18.2-4.8-34.9-1-53.1-1.4c-12.8-0.3-25.1-1.8-37.8-1.2
			c-7.7,1.3-15.6,3.3-21.7,6.7c-8.4,4.6-25.2,3.3-20.3-2.4c4.1-10,8.9-19.7,12.2-30.1c5.2-16.5,8-33.9,12-50.8
			c4-16.8,6.8-33.8,10.7-50.5c2.4-10,12.8-42.9,13.6-43.6c14.4-23.6,14.5-54.2,15.9-81c1.7-30.6,1.7-61.3-1-91.8
			c-2.4-27.2-15-61.6-41-75.8c-27.8-15.2-62.7-8.2-76.7,21.4c-12.3,26.1-15.8,55-26.4,81.6c-10.7,26.7-25.4,52.3-38.1,78.1
			c-7.1,14.4-13.2,28-15.7,44c-1.9,12.2-2.9,24.6-5.8,36.7c-3.1,13-7.1,26.6-12.9,38.7c-2.6,5.4-5.8,10.5-9.1,15.6
			c-3.3,8.7-6.8,17.4-11.6,25.3c-10.8,17.8-26.1,31.6-42.6,44.1C127-107.3,83.2-78.7,52.7-33.2C37.9-11,19.9,13.6,13.4,39.8
			c-6.1,24.3-8.1,50.7-8.3,75.7C5,130.6,4.2,145.3,3.4,160.3"/>
	</g>
	<path d="M734,44.5C734,21.6,572.5,3,373.4,3S12.9,21.6,12.9,44.5"/>
	<g>
		<path class="st1" d="M109.5,61.4c-43-7.3-11.2-25,27.3-32.1c36-6.4,90-4.2,133.7-4.2c61.7,0,120.8-1.4,182.5-2.8
			C504.4,21.6,638,18,638,38.5c0,17.7-74.5,27.6-128.5,31.1c-61.7,4.2-146.2,7.4-208.2,4.5C160.9,67.8,109.5,61.5,109.5,61.4
			L109.5,61.4z M77.5,71.2c-51-10.7-27.7-37.1,17.9-47.5c42.6-9.4,99.1-4.5,150.8-4.5c73.1,0,143.1-2.1,216.2-4.2
			c60.9-1,219.2-6.3,219.2,24c0,22.7-5.5,37.2-113.9,46.1c-73.1,6.3-232.6,11.8-306.2,9.3C143.7,90.4,77.5,71.2,77.5,71.2L77.5,71.2
			z M95.7,66.5c-47.9-9.7-30.9-32.8,12.1-42.2c40.1-8.5,100.2-5.7,148.9-5.7c68.7,0,134.5-1.9,203.2-3.8
			c57.2-0.9,206.1-5.7,206.1,21.7c0,23.6-38.8,37.5-143.1,41.5c-69.1,2.6-162.7,8.3-231.9,6C180,80.6,95.7,66.5,95.7,66.5L95.7,66.5
			z M178.7,47.5c-6.1-11.8,281.8-10.6,335.7-7.6c77.8,4.3,49.5,14.1-14.1,16.6c-47.1,2.5-96.6,2.5-143.7,1.8
			C330.5,58.4,184.8,59.3,178.7,47.5L178.7,47.5z M131.2,47.5C123.8,26.8,474.6,27.6,540,33c94.5,7.6,60.1,24.9-17.2,29.2
			c-57.2,4.3-117.4,4.3-174.6,3.2C316.7,65.4,138.7,68.2,131.2,47.5L131.2,47.5z"/>
		<path class="st2" d="M242.3,48.2l10.9-0.3c7-0.1,16.9-0.4,28.8-0.5c6,0,12.4-0.1,19.3-0.3c6.8-0.1,14-0.3,21.5-0.5l23-0.4
			l23.7-0.3c15.9-0.1,31.8-0.3,46.7-0.3h21.5c6.8,0,13.3,0.1,19.3,0.2c11.9,0.2,21.9,0.5,28.8,0.6l10.9,0.3l-10.9,0.3
			c-7,0.1-16.9,0.4-28.8,0.5c-6,0.1-12.4,0.1-19.3,0.3l-21.5,0.5c-14.9,0.3-30.8,0.5-46.7,0.7c-7.9,0.1-15.9,0.1-23.7,0.2l-23,0.1
			h-21.5c-6.8,0-13.3-0.1-19.3-0.2c-11.9-0.2-21.9-0.5-28.8-0.6C246.2,48.3,242.3,48.2,242.3,48.2L242.3,48.2z"/>
	</g>
	<path d="M16.5,342.5c0,19.9,152,36,339.6,36s339.6-16.1,339.6-36"/>
	<path class="st4" d="M405.8,166.9c-18.7,0.5-35.6-9.1-53-12.1c-25.2-4.2-44.3-11.3-65.6-19.6c-1.8-0.7-0.8-2.7,1.6-2.2
		c17,3.6,33.5,7.6,50.4,11.1c0.6-3,1.5-5.9,2.4-8.8c0.2-0.6,2-0.6,2.2,0c0.8,3.2,1.4,6.5,1.9,9.7c2.3,0,4.6-0.1,6.9-0.2
		c-0.7-8-0.5-15.7,0.8-23.8c0.1-0.7,2-0.7,2.1,0c0.8,5.3,0.8,10.9,3.1,16c1.1,2.4,2.6,4.7,3.6,7c1-0.1,2-0.2,2.9-0.3
		c-2.3-12.1-1.1-24.8,3.6-36.4c0.4-0.9,2.9-0.7,2.8,0.2c-1.1,8-0.2,15.9,2.2,23.8c1,3.4,2.7,6.9,3.9,10.4c0.8-0.2,1.7-0.4,2.5-0.6
		c-1.5-13.1,3.2-26.3,6.6-39.3c0.2-0.9,2.4-0.5,2.6,0.2c1.9,7.9,2,16.3,2.3,24.3c0.1,2.7,0.5,5.3,1,8c3-3,3.7-6,4.2-9.1
		c0.1-0.6,0.2-1.3,0.3-1.9c0,0,0-0.1,0-0.1c1.2-8,2.4-15.9,5-23.8c0.4-1.1,3.1-0.7,3.3,0.2c2.3,10.5,2,21.2,2.4,31.8
		c0.4,10.6,3.6,20.8,5.1,31.3C413.2,165.2,409.4,166.8,405.8,166.9z"/>
	<path class="st4" d="M421.3,163.7c-0.3-20.9-6-42.6-3.4-63.3c0.2-1.4,2.5-2,2.8-0.4c3.5,20.7,8.7,42.6,8.1,63.7
		C428.6,168.3,421.4,168.3,421.3,163.7z"/>
	<path class="st4" d="M435.2,160.6c-1.2-6.2-0.7-12.1-0.5-18.3c0.2-5.8-0.6-11.5-0.4-17.2c0.1-2,2.9-1.9,3.1,0
		c0.6,5.8,2.4,11.4,2.6,17.2c0.2,5.6,0.1,11.2,1.3,16.6C442.2,162.9,436,164.6,435.2,160.6z"/>
	<path class="st4" d="M449.6,153.5c-0.6-7-0.6-14-1.2-20.9c-0.2-2,3.1-2.4,3.5-0.5c1.6,6.8,2.3,13.7,3.5,20.6
		C456.2,157,449.9,157.8,449.6,153.5z"/>
	<path class="st4" d="M463.2,153.1c0-5.2,0.5-10.5-0.5-15.7c-0.5-2.4,2.9-3.3,3.6-1c1.7,5.4,1.8,11.1,2.3,16.7
		C468.9,156.5,463.1,156.6,463.2,153.1z"/>
	<path class="st4" d="M477.1,149.5c-0.7-4.4-0.1-8.7,0.3-13.1c0.2-2.3,3.4-2.3,3.6,0c0.3,3.9,0.2,7.8,1.3,11.6
		C483.3,151.5,477.6,152.9,477.1,149.5z"/>
	<path class="st4" d="M492.2,145c0-3.2,0.1-6.3-0.3-9.5c-0.3-2.3,3.3-2.6,3.9-0.5c0.9,3.3,1.2,6.7,1.7,10
		C497.9,148.3,492.2,148.5,492.2,145z"/>
	<path class="st4" d="M403.9,264.1c-0.6,10.7-4.1,23.5-17.8,19.7c-8.4-2.3-15.4-6.4-23-10.5c-10.4-5.6-21.6-9.7-32.4-14.3
		c-18.1-7.8-36.4-17.2-51.5-29.9c-1.1-1,0.3-2.8,1.6-2c16.8,10.8,35.9,16.2,54.6,22.2c-0.4-5-1-9.8-0.3-14.9
		c0.7-5.3,1.6-10.5,2.3-15.7c0.2-1.2,2.1-1.1,2.3,0c1.3,6.6,0.4,13.5,2,19.9c1.2,4.8,3.1,9,3.3,14c0.6,0.2,1.2,0.4,1.8,0.6
		c-0.9-15.5,2.4-30.5,4.7-45.9c0.2-1.2,1.9-0.8,2,0.3c0.8,8.2,1,16.5,2,24.7c1,8.5,3.6,16.8,3,25.4c1.2,0.5,2.4,1,3.6,1.6
		c-0.8-7.2-0.2-14.8-0.3-21.8c0-9.4,0.4-18.4,3.1-27.5c0.6-2,3.9-1.7,3.7,0.5c-1.8,17.8,3.1,38.2,7.8,55.3c0.1,0.5,0.2,0.9,0.2,1.4
		c0.5,0.3,1.1,0.6,1.7,1c-4.3-20.6-4.2-40.4-1.8-61.6c0.2-1.6,2.3-1.6,2.5,0c1.5,12.1,2.9,24.2,5.8,36.1c2.1,8.6,5.5,17.3,7.1,26
		c0.7-6.1,0.5-12.3,0.4-18.4c-0.3-14.6-4.1-29-2.2-43.6c0.3-2,3.5-2.9,3.9-0.5C397.2,224.7,405,244.7,403.9,264.1z"/>
	<path class="st4" d="M413.9,283.2c-3.6-20.8-1.5-43.8-0.6-64.8c0.1-1.6,2.3-1.6,2.4,0c0.9,21.3,4.1,42.5,6.2,63.7
		C422.4,286.7,414.7,287.8,413.9,283.2z"/>
	<path class="st4" d="M425.8,286.4c-0.3-14.5,0.4-28.8-1.5-43.3c-0.2-1.4,2-1.6,2.4-0.3c3.7,14.1,6.3,28.9,6.1,43.6
		C432.7,290.9,425.9,290.9,425.8,286.4z"/>
	<path class="st4" d="M442.7,282.1c0.5-10.8,2.9-22-0.9-32.5c-0.5-1.4,1.7-2.3,2.4-1c5.2,10.3,4.6,22.2,4.9,33.5
		C449.2,286.2,442.6,286.2,442.7,282.1z"/>
	<path class="st4" d="M462.4,276.9c-0.2,4.1-6.2,4.1-6.4,0c-0.3-7.9,0.7-15.8-0.1-23.8c-0.3-2.6,4-3.2,4.6-0.6
		C462.2,260.5,462.8,268.8,462.4,276.9z"/>
	<path class="st4" d="M469,269.3c0.3-5.1,0.8-10.1,0.3-15.2c-0.2-2.6,4-3.1,4.5-0.6c1,5.2,1.1,10.5,1.4,15.8
		C475.3,273.3,468.8,273.3,469,269.3z"/>
	<path class="st4" d="M483.2,260.8c0-3.2,0.2-6.4-0.9-9.4c-0.9-2.4,3-4,4.1-1.7c1.7,3.5,1.8,7.3,2.2,11.1
		C488.8,264.2,483.2,264.2,483.2,260.8z"/>
	<path class="st4" d="M381.7,375c-17.7-1.9-38.4-8.8-54.6-14.9c-20-7.5-39.3-16.8-58.3-25.9c-1.4-0.7-0.2-2.4,1.3-1.8
		c12.9,5.3,25.9,9.8,39.3,13.5c-0.5-4.6,1.3-9.9,3-14c0.3-0.6,1.5-0.8,1.7,0c0.4,2.4,0.3,4.8,0.5,7.2c0.1,2.6,0.8,4.8,1.5,7.3
		c0.1,0.5,0.1,0.9,0,1.3c1.5,0.4,3.1,0.8,4.6,1.2c-1-8.4,0.9-17.4,2-25.7c0.2-1.4,2.4-1.4,2.5,0c0.7,5.1,1.6,10.1,2.2,15.2
		c0.5,4.3,2.4,8.3,1.6,12.5c0.8,0.2,1.6,0.4,2.4,0.6c0.4,0.1,0.9,0.2,1.3,0.3c-0.3-3.9,0.4-7.9,0.9-11.8c0.9-7.2,2.3-14.3,2.8-21.5
		c0.1-1.5,2.5-1.4,2.7,0c1.9,11.8,0.3,24.8,5.4,36.1c0,0,0,0.1,0,0.1c0.8,0.2,1.7,0.4,2.5,0.6c-3.2-11.6-1.1-26,2.6-36.4
		c0.3-0.8,1.7-0.8,2,0c1.8,5.9,1.1,12.1,1.9,18.2c1,7.7,3.6,14.2,7.2,21.3c0.1,0.2,0.2,0.4,0.2,0.6c0.1,0,0.2,0.1,0.3,0.1
		c-1.5-4.6-1.5-9.5-1.6-14.3c-0.2-7.9-1-16,0.5-23.8c0.2-1.1,2.3-1.1,2.6,0c2.6,11.9,4.6,22.8,9.9,33.7c-0.6-2.7-1.2-5.3-1.7-7.9
		c-1.1-6.1,0.7-12.7,1.4-18.7c0.3-2.8,4.9-2.8,5.3,0c1.8,13.6,6.8,27,10.2,40.3C388.6,371.3,386.1,375.4,381.7,375z"/>
	<path class="st4" d="M399.1,373c-5.7-13.6-4.3-27.3-7.4-41.4c-0.2-1.1,1.5-1.6,1.9-0.5c2.6,7.5,4,15.2,6.1,22.9
		c1.7,6.2,4.7,11.9,5.7,18.2C405.9,375.7,400.3,375.8,399.1,373z"/>
	<path class="st4" d="M682.6,207.2c-7,11.7-8.6,25.6-16.9,36.6c-2.4,3.2-6.9-0.3-4.3-3.3c8.6-10.1,11.8-23.6,19.8-34.1
		C681.8,205.5,683.2,206.3,682.6,207.2z"/>
	<path class="st4" d="M649.3,248.4c4.2-6.6,7.3-13.8,12.2-20c0.5-0.6,1.4,0.2,1,0.8c-3.9,6.8-5.9,14.5-9.3,21.5
		C651.9,253.3,647.8,250.9,649.3,248.4z"/>
	<path class="st4" d="M638,344.7c-1.6,4.8-3.9,9.2-6.3,13.6c-1.3,2.5-5.3,0-3.7-2.2c2.9-3.9,5.8-7.9,8.1-12.3
		C636.6,342.8,638.4,343.6,638,344.7z"/>
	<path class="st4" d="M639.2,352.5c1.7-3.2,4.4-6,6.3-9c2.2-3.4,4.1-6.9,5.3-10.7c0.5-1.4,2.5-0.8,2.2,0.6
		c-1.6,7.3-5,16.5-10.1,22.1C641.1,357.4,638,354.8,639.2,352.5z"/>
	<path class="st4" d="M655.4,349.1c-1.4,2.1-5.3,0.8-4.3-1.8c4-9.8,11-18.2,15-28.1c0.4-1,1.7-0.6,1.5,0.4
		C665.8,329.7,661.2,340.7,655.4,349.1z"/>
	<path class="st4" d="M667.3,342.6c-1.1,2.1-4.6,0.6-3.8-1.6c3.6-10.7,13.2-18.2,15.5-29.6c0.2-0.9,1.6-0.7,1.6,0.2
		C679.8,323,672.3,332.7,667.3,342.6z"/>
	<path class="st4" d="M680,231.7c4.8-13.1,13.1-24.8,15.1-38.8c0.2-1.2,2.2-0.9,2.2,0.3c-0.5,14.2-7.2,26.9-12,39.9
		C684.1,236.5,678.8,235,680,231.7z"/>
	<path class="st4" d="M698,222.5c-2.2,3.2-6.8,0.4-5.1-3c6.3-12.9,16.8-24.9,17.3-39.9c0-1.2,1.9-1.3,1.9,0
		C712.2,194.7,706.4,210.1,698,222.5z"/>
	<path class="st4" d="M716.2,203.8c-1.7,2.8-5.7,0.4-4.3-2.5c5-10.6,11.2-19.6,12.7-31.5c0.1-0.9,1.6-1.3,1.8-0.2
		C728.6,181.2,722.3,194.1,716.2,203.8z"/>
	<path class="st4" d="M722.5,54.7C724.8,68,719,80.1,711,92.3c-1.2,1.8-5.6,1.2-4.8-0.8c4.5-12.4,11.3-24.3,14.3-37
		C720.6,53.7,722.3,54,722.5,54.7z"/>
	<path class="st4" d="M710.9,69.3c-3.9,10-5.6,20.4-13.9,29.4c-2,2.2-6.9,0.3-5.3-2c6.5-9.1,12-18.4,17.4-27.8
		C709.5,68.3,711.2,68.6,710.9,69.3z"/>
	<path class="st4" d="M696.4,75.5c-2.2,8.1-9.5,17.7-21,22.8c-2.6,1.2-5.1-1.2-3.3-2.5c9.1-6.3,18.6-12.4,22.3-20.6
		C694.8,74.5,696.6,74.8,696.4,75.5z"/>
	<path class="st4" d="M657.1,95.8c4.9-5.8,11.5-10.6,14.7-17.4c0.5-1,2.2-0.7,1.9,0.5c-2.3,7.4-8,12.8-12.4,19.1
		C659.5,100.4,655.2,98,657.1,95.8z"/>
	<path class="st4" d="M416,372.2c-4-9.9-7.4-19.9-6.2-30.5c0.2-1.6,2.7-1.7,2.8,0c0.4,10,5,19.1,9.6,28.1
		C424.3,373.9,417.7,376.4,416,372.2z"/>
	<path class="st4" d="M428.3,372.7c-2.4-6.5-1.4-13.5-3.6-20.1c-0.6-1.7,2.5-3,3.3-1.3c3.1,6.4,3.3,13.4,6.1,19.9
		C435.5,374.5,429.5,376.1,428.3,372.7z"/>
	<path class="st4" d="M437.7,372.3c-0.7-4.1-1.4-8.2-2.5-12.3c-0.5-2,2.5-2.6,3.3-0.8c1.7,3.9,3,7.8,4.2,11.8
		C443.6,374.1,438.2,375.3,437.7,372.3z"/>
	<path class="st4" d="M450.4,368.3c-1.1-1.9-1.1-4.2-2-6.2c-0.8-1.6,1.6-3,2.7-1.4c1.3,1.9,2.7,4.4,3,6.7
		C454.3,369.2,451.3,369.8,450.4,368.3z"/>
</g>
<g id="Bottom_2_">
	<g>
		<g id="little_3_">
			<defs>
				<rect id="SVGID_5_" x="1558.8" y="-1157" width="681" height="184"/>
			</defs>
			<clipPath id="SVGID_6_">
				<use xlink:href="#SVGID_5_"  style="overflow:visible;"/>
			</clipPath>
			<path class="st5" d="M1546.7-1340.2c-0.7,12.7-2.4,104.5-1.3,121.4c2.3,35.1,8.9,69.1,40.1,89.3c30.4,19.6,60.6,38.5,96.5,45.3
				c16.5,3.2,32.6,7.3,48.6,12.6c4.5,1.5,38.5,9.1,50.2,17.6c16.6,12,34.5,21.6,52.6,31c19.6,10.1,39.7,19.4,59,30
				c19.4,10.6,38.2,21.5,61.3,19.1c23.1-2.4,43.4-13.3,65.4-19.9c22-6.7,44.1-13.3,66-20.3c21.8-7,44.1-13.2,65.3-22
				c16.2-6.7,31.5-15.4,47.5-22.4c3.6-2.2,7.2-4.7,10.4-7.6c15.1-13.8-0.4-30.8,3.6-47.6c3.4-14.2,12.8-24.5,21.7-35.5
				c15.5-19.1,12.2-36.3,7.4-58.7c-8.1-37.9,31.6-48.5,42.5-79.6c7.1-20.2,4-37.9-0.1-58.3c-0.5-2.4-0.9-4.8-1.4-7.2
				c-5.5-14.8-14.2-27.5-16.5-43.4c-2.2-15.1,1.6-31.2,6.6-45.3c6.5-18.4,13.1-36.2,5.7-55.6c-6.8-17.8-17.2-31.3-33.3-41.9
				c-15.6-10.3-32.6-18.5-50.8-23.1c-16.4-4.2-33.4-6.3-48.7-13.8c-35.5-17.2-72.8-2.6-108.5,7.4c-0.9,0.2-1.4-1.1-0.6-1.5
				c18.3-9.2,39-18.5,60-21.7c-11.3-3.2-21.7-8.9-33.3-12c-18.2-4.8-34.9-1-53.1-1.4c-12.8-0.3-25.1-1.8-37.8-1.2
				c-7.7,1.3-15.6,3.3-21.7,6.7c-8.4,4.6-25.2,3.3-20.3-2.4c4.1-10,8.9-19.7,12.2-30.1c5.2-16.5,8-33.9,12-50.8
				c4-16.8,6.8-33.8,10.7-50.5c2.4-10,12.8-42.9,13.6-43.6c14.4-23.6,14.5-54.2,15.9-81c1.7-30.6,1.7-61.3-1-91.8
				c-2.4-27.2-15-61.6-41-75.8c-27.8-15.2-62.7-8.2-76.7,21.4c-12.3,26.1-15.8,55-26.4,81.6c-10.7,26.7-25.4,52.3-38.1,78.1
				c-7.1,14.4-13.2,28-15.7,44c-1.9,12.2-2.9,24.6-5.8,36.7c-3.1,13-7.1,26.6-12.9,38.7c-2.6,5.4-5.8,10.5-9.1,15.6
				c-3.3,8.7-6.8,17.4-11.6,25.3c-10.8,17.8-26.1,31.6-42.6,44.1c-42.9,32.4-86.7,61-117.2,106.5c-14.9,22.2-32.8,46.8-39.4,73
				c-6.1,24.3-8.1,50.7-8.3,75.7C1548.3-1369.9,1547.5-1355.2,1546.7-1340.2"/>
		</g>
		<path class="st6" d="M2239.1-1157c0-19.9-152-36.1-339.6-36.1s-339.6,16.2-339.6,36.1"/>
	</g>
	<g>
		<path class="st1" d="M1704.4-1144.7c-38.3-5.8-40.1-20-5.7-25.7c32.1-5.1,80.1-3.4,119-3.4c54.9,0,107.6-1.1,162.5-2.3
			c45.8-0.6,164.8-3.4,164.8,13.1c0,14.2-66.4,22.2-114.5,25c-54.9,3.4-130.1,5-185.4,3.6
			C1756.5-1136.5,1704.4-1144.7,1704.4-1144.7L1704.4-1144.7z M1686.1-1140.2c-42.1-7.8-44-26.6-6.3-34.2c35.2-6.8,88-4.5,130.7-4.5
			c60.3,0,118.1-1.5,178.5-3c50.3-0.8,181-4.5,181,17.4c0,18.9-72.9,29.5-125.7,33.3c-60.3,4.5-142.8,6.7-203.6,4.9
			C1743.3-1129.2,1686.1-1140.1,1686.1-1140.2L1686.1-1140.2z M1751.9-1154.6c-5.5-9.4,235.1-9.6,283.1-7.2
			c69.3,3.4,44.1,11.3-12.6,13.3c-42,2-86.1,2-128,1.5C1871.3-1147,1757.3-1145.2,1751.9-1154.6z M1713.9-1154.8
			c-6.7-16.6,285.7-17,343.9-12.7c84.1,6.1,53.5,20-15.3,23.4c-51,3.5-104.5,3.5-155.5,2.6
			C1858.9-1141.4,1720.5-1138.2,1713.9-1154.8L1713.9-1154.8z"/>
		<path class="st2" d="M1820.3-1155.3l8.8-0.5c5.6-0.3,13.6-0.7,23.3-1.1l15.6-0.3c5.5-0.1,11.4-0.3,17.4-0.2c6,0,12.3,0,18.6,0.1
			c6.3,0,12.8,0.2,19.2,0.2l19.2,0.4l18.6,0.4l17.3,0.3c5.5,0.2,10.7,0.1,15.5,0.1c4.8,0,9.2,0.1,13.1,0l10.1-0.3l8.8-0.2l-8.8,0.6
			l-10.1,0.7c-3.9,0.2-8.3,0.3-13.2,0.4c-4.8,0.1-10.1,0.3-15.6,0.3l-17.4,0c-12.1-0.1-24.9-0.3-37.8-0.5
			c-6.4-0.1-12.8-0.3-19.2-0.3l-18.6-0.3c-6-0.1-11.8-0.1-17.3-0.1l-15.6-0.1l-23.3,0.2L1820.3-1155.3L1820.3-1155.3z"/>
	</g>
	<path class="st4" d="M1909-1019.3c-8.7-1.7-18.7-9.8-26.9-13.2c-7.6-3.2-14.4-7.9-21.6-11.9c-14.6-8-27.2-15.3-40.3-25.5
		c-1.2-0.9,0.3-2.7,1.5-2c13.1,7.7,26.7,13.1,40.5,18.2c0.5-3.3,0.8-6.6,1.5-9.8c0.2-0.8,1.5-0.8,1.7,0c0.9,4,2.4,7.8,3.3,11.8
		c0,0.2,0,0.3,0,0.4c0.6,0.2,1.3,0.5,1.9,0.7c-0.4-6.1,0.6-12.4,2.4-18c0.4-1.2,2-1.2,2.4,0c2.1,6.9,1.7,14.3,4,21.2
		c0.7,0.3,1.5,0.5,2.2,0.8c-1.6-8.4-0.3-18.7,1.5-25.6c0.3-1.1,2-1.1,2.3,0c1.5,5.4,1.9,10.9,3.3,16.3c1.1,4.5,3,8.9,3.8,13.4
		c0.8,0.3,1.6,0.6,2.3,0.9c0.1,0.1,0.3,0.1,0.4,0.2c-1.2-9.4,0-19.9,0.8-28.1c0.2-1.8,2.6-1.8,2.8,0c0.9,8,1.9,16.3,4.8,23.9
		c1.2,3.1,2.3,6.8,4.4,9.4c0.7,0.8,1.2,1.2,1.5,1.5c0.1,0.1,0.3,0.1,0.4,0.2c0.2,0,0.5,0,0.7,0c-0.7-3.1-1.4-6.1-1.9-9.2
		c-1.7-8.6,0.2-17.5,0.8-26.1c0.2-2.5,3.4-3.6,4.8-1.3c6.5,11.1,10.7,30.4,11.4,43C1926.1-1017.9,1916.3-1017.9,1909-1019.3z"/>
	<path class="st4" d="M1939.2-1010.6c-0.4,3.9-5.5,3.9-6,0c-1.7-14,0.2-27.9-2.4-42c-0.3-1.4,1.8-2,2.2-0.6
		C1936.7-1040,1940.7-1024.4,1939.2-1010.6z"/>
	<path class="st4" d="M1944.1-1011.1c0.5-9.5,0.2-19.1-0.8-28.5c-0.2-1.6,2.3-1.8,2.7-0.4c2.4,9.5,3.7,19.1,4,28.9
		C1950.1-1007.3,1943.9-1007.3,1944.1-1011.1z"/>
	<path class="st4" d="M1959.1-1010.6c-0.5-5.4,0.1-10.8-0.5-16.2c-0.2-1.9,2.9-2.3,3.3-0.5c1.2,5.3,1.2,10.7,2.4,15.9
		C1965.2-1007.5,1959.5-1006.7,1959.1-1010.6z"/>
	<path class="st4" d="M1970.3-1013.3c-0.9-3.5,0.2-7.1-0.8-10.6c-0.5-2,2.5-3.4,3.4-1.4c1.4,3.4,1.6,7.1,2.3,10.7
		C1975.8-1011.5,1971.1-1010.1,1970.3-1013.3z"/>
	<path class="st4" d="M1983.2-1017.7c-0.5-1.9-0.6-3.7-0.2-5.6c0.3-1.4,2.2-0.9,2.4,0.3c0.2,1.4,0.7,2.6,1.5,3.7
		C1988.5-1016.9,1984-1014.7,1983.2-1017.7z"/>
</g>
<g id="Thumb_3_">
	<g id="thumb_4_">
		<defs>
			<rect id="SVGID_7_" x="1808" y="-549" width="202" height="234"/>
		</defs>
		<clipPath id="SVGID_8_">
			<use xlink:href="#SVGID_7_"  style="overflow:visible;"/>
		</clipPath>
		<path class="st7" d="M1560.4,145.3c-0.7,12.7-2.4,104.5-1.3,121.4c2.3,35.1,8.9,69.1,40.1,89.3c30.4,19.6,60.6,38.5,96.5,45.3
			c16.5,3.2,32.6,7.3,48.6,12.6c4.5,1.5,38.5,9.1,50.2,17.6c16.6,12,34.5,21.6,52.6,31c19.6,10.1,39.7,19.4,59,30
			c19.4,10.6,38.2,21.5,61.3,19.1c23.1-2.4,43.4-13.3,65.4-19.9c22-6.7,44.1-13.3,66-20.3c21.8-7,44.1-13.2,65.3-22
			c16.2-6.7,31.5-15.4,47.5-22.4c3.6-2.2,7.2-4.7,10.4-7.6c15.1-13.8-0.4-30.8,3.6-47.6c3.4-14.2,12.8-24.5,21.7-35.5
			c15.5-19.1,12.2-36.3,7.4-58.7c-8.1-37.9,31.6-48.5,42.5-79.6c7.1-20.2,4-37.9-0.1-58.3c-0.5-2.4-0.9-4.8-1.4-7.2
			c-5.5-14.8-14.2-27.5-16.5-43.4c-2.2-15.1,1.6-31.2,6.6-45.3c6.5-18.4,13.1-36.2,5.7-55.6c-6.8-17.8-17.2-31.3-33.3-41.9
			c-15.6-10.3-32.6-18.5-50.8-23.1c-16.4-4.2-33.4-6.3-48.7-13.8c-35.5-17.2-70.8-24.7-82.4-27.7c-18.2-4.8-34.9-1-53.1-1.4
			c-12.8-0.3-25.1-1.8-37.8-1.2c-7.7,1.3-15.6,3.3-21.7,6.7c-8.4,4.6-25.2,3.3-20.3-2.4c4.1-10,8.9-19.7,12.2-30.1
			c5.2-16.5,8-33.9,12-50.8c4-16.8,6.8-33.8,10.7-50.5c2.4-10,12.8-42.9,13.6-43.6c14.4-23.6,14.5-54.2,15.9-81
			c1.7-30.6,1.7-61.3-1-91.8c-2.4-27.2-15-61.6-41-75.8c-27.8-15.2-62.7-8.2-76.7,21.4c-12.3,26.1-15.8,55-26.4,81.6
			c-7.8,19.6-17.8,38.5-27.6,57.4c-3.6,6.9-7.1,13.8-10.5,20.7c-7.1,14.4-13.2,28-15.7,44c-1.9,12.2-2.9,24.6-5.8,36.7
			c-3.1,13-7.1,26.6-12.9,38.7c-2.6,5.4-5.8,10.5-9.1,15.6c-3.3,8.7-6.8,17.4-11.6,25.3c-10.8,17.8-26.1,31.6-42.6,44.1
			c-42.9,32.4-86.7,61-117.2,106.5c-14.9,22.2-32.8,46.8-39.4,73c-6.1,24.3-8.1,50.7-8.3,75.7C1562,115.6,1561.2,130.3,1560.4,145.3
			"/>
	</g>
	<path d="M1808.8-316.1c0,13.9,43.1,25.2,96.3,25.2s96.4-11.3,96.4-25.2"/>
	<path class="st4" d="M1895-339.2c9,1.9,17.8,5,27,6.2c22.8,3.1,46.9,6.4,69.9,6.3c2.1,0,2.5,3.1,0.5,3.7c-12,3.3-23.8,2.3-36,0.7
		c-12-1.5-24.3-1.5-36.2-4c-11.7-2.4-22.9-6.7-34.4-10.1c-8-2.4-15.3-4.9-21.4-10.6c-0.7-0.7,0.2-1.9,1.1-1.4
		C1874.5-342.2,1884.7-341.4,1895-339.2z"/>
</g>
</svg>
