<?xml version="1.0" encoding="utf-8"?>
<!-- Generator: Adobe Illustrator 24.3.0, SVG Export Plug-In . SVG Version: 6.00 Build 0)  -->
<svg version="1.1" id="Layer_1" xmlns="http://www.w3.org/2000/svg" xmlns:xlink="http://www.w3.org/1999/xlink" x="0px" y="0px"
	 viewBox="0 0 284 392" style="enable-background:new 0 0 284 392;" xml:space="preserve">
<style type="text/css">
	.st0{fill:#FFFFFF;}
</style>
<path d="M234.4,13.6h0.5c0.6,0.1,0.9,0.4,0.9,0.9V15c0,0.9-2.3,1.8-7,2.8l-2.3-0.9c-26.8,4-59.8,9.5-98.8,16.3
	c-14,49.9-24.1,88-30.3,114.2c0,0.3,0.2,0.8,0.5,1.4c-0.8,2.7-1.7,4.4-2.8,5.1c-1.2-0.5-1.9-0.9-1.9-1.4
	C96,139.4,106.3,99.7,124,33.6h-0.5C88.6,39.2,50,45.6,7.8,52.8c-0.6-0.3-1.1-0.5-1.4-0.5v-1.9l118.9-20.5c0.2-1.6,0.7-2.3,1.4-2.3
	h0.9l1.9,1.9C186.4,20.1,221.4,14.8,234.4,13.6z"/>
<path d="M157,5.7h0.5c0.6,0.1,0.9,0.4,0.9,0.9v0.5c0,2-2,9.6-6.1,22.8L136,101.2h0.5c7.3-10.6,12.7-15.9,16.3-15.9
	c1.9,0.7,2.8,1.8,2.8,3.3c-1.2,5.1-1.9,8.4-1.9,9.8v2.8c0,0.5,0.5,0.9,1.4,1.4h0.9c4,0,9.3-4.4,15.9-13.1h0.5
	c0.6,0.1,0.9,0.4,0.9,0.9V91c-6.3,9.6-12,14.5-17.3,14.5c-3.2,0-4.9-1.9-5.1-5.6v-0.5l1.9-10.7H151c-6.7,5.4-12,12.4-15.9,21
	c-1.6,3.7-2.7,5.6-3.3,5.6h-0.5c-0.6,0-0.9-0.5-0.9-1.4C140.7,68.1,149.2,32.2,156,6.2L157,5.7z"/>
<path d="M184.3,82.5c1.5,0,3,1.4,4.7,4.2c-1.9,6.4-2.8,10.9-2.8,13.5c0.6,1.4,1.2,2.2,1.9,2.3c3.8,0,9.2-4.4,16.3-13.1h0.9v1.9
	c-6.5,9.3-12.3,14-17.3,14c-2.4,0-4-2.3-4.7-7h-0.5c-6.7,6.8-11.5,10.3-14.5,10.3c-2.8-0.6-4.2-2.2-4.2-4.7c0-8,5.9-15,17.7-21
	L184.3,82.5z M167.1,103.5v0.9c0,0.5,0.5,0.9,1.4,1.4c6.4-1.5,12.4-7.5,17.7-18.2v-0.5c0-0.5-0.6-1.1-1.9-1.9
	c-4.5,0-9.5,3.7-14.9,11.2C167.9,99.3,167.1,101.7,167.1,103.5z"/>
<path d="M217.8,86.2h1.4c1.6,0.9,2.3,2,2.3,3.3c-0.9,5.1-1.4,8.3-1.4,9.8v2.8h0.9c2.6,0,6.9-4.4,13.1-13.1h1.4
	c0,0.6,0.2,0.9,0.5,0.9c-4.9,8.9-9.7,14.1-14.5,15.4h-1.9c-1.9-1-2.8-2.7-2.8-5.1c0-1.2,0.5-4.7,1.4-10.7h-1.4
	c-2.8,1.9-7.6,7.3-14.5,16.3h-0.9c-0.6,0-0.9-0.3-0.9-0.9c2.3-11.2,3.8-16.8,4.7-16.8h0.9c0.6,0,0.9,0.5,0.9,1.4
	c-0.6,2.7-0.9,4.6-0.9,5.6h1.4C211.9,89.2,215.3,86.2,217.8,86.2z"/>
<path d="M253.8,9.5c1.2,0.5,1.9,0.9,1.9,1.4v1.9c-2.2,3-8.5,28.5-19.1,76.5h0.9l10.3-7.5l1.9,1.4c0,0.6-4.2,4-12.6,10.3v0.9
	c4.2,4.7,6.7,7,7.5,7h1.9c3.1,0,7-4.2,11.7-12.6h1.9c0,0.6,0.2,0.9,0.5,0.9c-5.2,10.3-10,15.4-14.5,15.4c-1.8,0-5.4-2.6-10.7-7.9
	c-0.7,0.9-2.4,6.6-5.1,17.3h-0.9c-0.2,0-0.7-0.5-1.4-1.4c11.5-50.1,19.7-84.3,24.7-102.6C253.3,10.1,253.8,9.8,253.8,9.5z"/>
<path d="M260.2,77h0.9c0.5,0,1,0.8,1.4,2.3l-3.3,9.3c5.9,6,8.9,9.6,8.9,10.7h1.4c0.5-0.2,3.3-3.6,8.4-10.3h1.4v0.5
	c0,1.9-3.4,6.7-10.3,14.5c0,4-2.5,6.1-7.5,6.5c-4.7-1.4-7-3.4-7-6.1c7.5-1.5,11.2-2.6,11.2-3.3c0-2.6-3.4-6.5-10.3-11.7
	c-1.2-2.4-1.9-4.3-1.9-5.6C253.7,81,255.9,78.7,260.2,77z M258.3,80.7c-1.2,1.3-1.9,2.6-1.9,3.7v0.5c0.1,0.6,0.4,0.9,0.9,0.9
	l1.9-4.7L258.3,80.7z M259.7,105.9v0.9c0.1,0.6,0.4,0.9,0.9,0.9h3.3c0.4,0,1.2-0.8,2.3-2.3V105C265.3,105,263.1,105.3,259.7,105.9z"
	/>
<path d="M227.2,120.6c0.6,0.3,1.1,0.5,1.4,0.5v1.4c0,0.7-1.4,1.3-4.2,1.9c-0.2,0-1.5-0.2-3.7-0.5c-10.5,1.2-45.3,6.8-104.4,16.8
	l-17.3,62c0.3,0,0.5,0.2,0.5,0.5c36.9-4.7,64-7.8,81.1-9.3c1.2,0.5,1.9,0.9,1.9,1.4v0.9c0,1-7.5,1.9-22.4,2.8
	c-38.6,4.7-59.4,7.3-62.5,7.9c-10.1,35.5-15.7,53.7-16.8,54.6h-1.4c0-0.3-0.2-0.8-0.5-1.4c9.6-33.1,14.8-50.2,15.4-51.3
	c-0.3-0.9-0.6-1.4-0.9-1.4c-11.8,0.9-27.8,2.8-48,5.6c-0.6-0.3-1.1-0.5-1.4-0.5v-1.9c34.5-4.5,51.8-7.1,51.8-7.9
	c11.2-39.6,16.8-59.8,16.8-60.6v-0.9h-0.5c-14.6,1.9-42,6.2-82.1,13.1c-0.6-0.3-1.1-0.5-1.4-0.5v-1.9l85.3-14.5
	c1.2-4.4,2.2-6.5,2.8-6.5h0.9c0.6,0.1,0.9,0.4,0.9,0.9c0,0.3-0.3,1.9-0.9,4.7C171.7,128,208.2,122.8,227.2,120.6z"/>
<path d="M189.2,193.7c4.7,0,7.3,3,7.9,8.9h0.5c2.5,0,6.7-2,12.6-6.1h0.9c0.6,0.1,0.9,0.4,0.9,0.9v0.5c-1.2,2.5-6.8,5.6-16.8,9.3
	c-3.1,5.6-6.2,8.4-9.3,8.4c-4-1-6.1-3.7-6.1-7.9C181.5,198.3,184.7,193.7,189.2,193.7z M185,201.1c-1.5,2.9-2.1,5.3-1.8,7.2
	s0.9,3.1,1.8,3.6h1.4c2.6,0,4.7-2,6.1-6.1C190.9,205.3,188.4,203.7,185,201.1z M188.3,197.4v0.9c0.5,2.8,2.4,4.2,5.6,4.2v-1.4
	C192.9,197.6,191,196.3,188.3,197.4z"/>
<path d="M208,186.2c2.3,0,4.2,2.8,5.6,8.4h1.4c1.7,0,4.7-0.5,8.9-1.4c0.6,0.1,0.9,0.4,0.9,0.9v0.5c-2.5,6.8-3.7,11.3-3.7,13.5v3.3
	c0,0.5,0.5,0.9,1.4,1.4h1.9c3.3,0,8.1-5.4,14.5-16.3h0.5c0.6,0.1,0.9,0.4,0.9,0.9v0.5c-3.3,8.3-8.1,14.1-14.5,17.3
	c-0.5,0.3-1.4,0.5-2.8,0.5c-2.8,0-4.4-1.9-4.7-5.6v-0.9c0-1.3,0.8-5.2,2.3-11.7V197h-0.5c-0.7,0-2.4,0.2-5.1,0.5l-2.8-0.5
	c0,0.3-0.6,0.9-1.9,1.9c-0.6-0.3-1.1-0.5-1.4-0.5V196c-2.5-2.5-3.7-4.5-3.7-6.1V188C205.8,186.8,206.8,186.2,208,186.2z M208,189.5
	v1.4c0,0.5,0.5,0.9,1.4,1.4h0.5v-1.4c0-0.5-0.5-0.9-1.4-1.4H208z"/>
<path d="M140.8,259h0.9c0.6,0.1,0.9,0.4,0.9,0.9v0.9c0,2-1.7,4.8-5.1,8.4c-22.9,43.5-43.6,78.5-62,104.9
	c-7.8,9.6-13.2,14.5-16.3,14.5h-1.9c-3.4,0-6.4-7.9-8.9-23.8c-1.6-14.9-2.3-32.6-2.3-53.2v-0.5c0-7.8,0.2-18.8,0.5-33.1
	c0.5-1.2,0.9-1.9,1.4-1.9h1c0.3,0,0.8,0.6,1.4,1.9l-0.5,3.3c0,11.3-0.2,21.7-0.5,31.2c0,48.5,3.3,72.7,9.8,72.7
	c4.6-1.5,11.3-8.6,20-21.4c15.3-23.2,35.5-58,60.6-104.4L140.8,259z"/>
<path d="M125.1,325.9h1.4c0,0.3,0.2,0.8,0.5,1.4c-2.8,8-4.2,13.8-4.2,17.3v4.2h1.9c3.8,0,10.8-6.1,21-18.2h1.4
	c0,0.6,0.2,0.9,0.5,0.9c-9.5,13.7-17.7,20.5-24.7,20.5h-0.5c-1.9-0.9-2.8-2.9-2.8-6.1C121.8,332.6,123.7,325.9,125.1,325.9z
	 M129.8,315.2h1.4c0.6,0.1,0.9,0.4,0.9,0.9v0.9c-1.8,2.5-2.9,3.7-3.3,3.7h-0.5c-1.2-0.5-1.9-1.6-1.9-3.3
	C126.5,317.1,127.6,316.4,129.8,315.2z"/>
<path d="M148.2,318h0.9c0.5,0,1,0.8,1.4,2.3l-3.3,9.3c5.9,6,8.9,9.6,8.9,10.7h1.4c0.5-0.2,3.3-3.6,8.4-10.3h1.4v0.5
	c0,1.9-3.4,6.7-10.3,14.5c0,4-2.5,6.1-7.5,6.5c-4.7-1.4-7-3.4-7-6.1c7.5-1.5,11.2-2.6,11.2-3.3c0-2.6-3.4-6.5-10.3-11.7
	c-1.2-2.4-1.9-4.3-1.9-5.6C141.7,322,143.8,319.7,148.2,318z M146.3,321.7c-1.2,1.3-1.9,2.6-1.9,3.7v0.5c0.1,0.6,0.4,0.9,0.9,0.9
	l1.9-4.7L146.3,321.7z M147.7,346.9v0.9c0.1,0.6,0.4,0.9,0.9,0.9h3.3c0.4,0,1.2-0.8,2.3-2.3V346C153.2,346,151.1,346.3,147.7,346.9z
	"/>
<path d="M203.1,264.4h0.9c0.6,0,0.9,0.5,0.9,1.4c-1.9,5.9-2.8,9.6-2.8,11.2h0.5c12.4-0.6,24.2-0.9,35.4-0.9c1.2,0.5,1.9,0.9,1.9,1.4
	v0.5l-0.9,1.4l-38.2,0.9c-9.9,33.3-14.9,56.7-14.9,69.9l0.5,2.3h1.4c7.9-5.8,15.1-13.4,21.4-22.8h0.9c0.6,0.1,0.9,0.4,0.9,0.9
	c-3.4,7.9-11,16.2-22.8,25.2h-2.3c-2.2-1.1-3.3-3.7-3.3-7.9c0-4,1.1-11.7,3.3-22.8h-0.5c-7.9,11.5-14,17.3-18.2,17.3
	c-2.5,0-3.7-1.6-3.7-4.7c1.1-5.8,2.3-9.2,3.7-10.3h1.4v1.4c-1.6,4.7-2.3,7.5-2.3,8.4v2.3h2.8c5.4-4.1,10.6-10.3,15.4-18.7
	c3.4-4.8,7.6-18.3,12.6-40.6h-0.9c-0.9,0-1.4,0.2-1.4,0.5c-0.3,0-0.8-0.2-1.4-0.5c-4,0-15.2,0.3-33.6,0.9c-0.6-0.3-1.1-0.5-1.4-0.5
	v-1.9c0.3,0,0.8-0.2,1.4-0.5c15.1-0.3,28-0.8,38.7-1.4C200.7,268.6,202.2,264.4,203.1,264.4z M170,318.9h0.9c0,0.6,0.2,0.9,0.5,0.9
	c-0.7,1.9-1.3,2.8-1.9,2.8H169c-0.6,0-0.9-0.3-0.9-0.9v-0.9C168.1,320.3,168.7,319.7,170,318.9z"/>
<path class="st0" d="M233.4,12.6h0.5c0.6,0.1,0.9,0.4,0.9,0.9V14c0,0.9-2.3,1.8-7,2.8l-2.3-0.9c-26.8,4-59.8,9.5-98.8,16.3
	c-14,49.9-24.1,88-30.3,114.2c0,0.3,0.2,0.8,0.5,1.4c-0.8,2.7-1.7,4.4-2.8,5.1c-1.2-0.5-1.9-0.9-1.9-1.4
	C95,138.4,105.3,98.7,123,32.6h-0.5C87.6,38.2,49,44.6,6.8,51.8c-0.6-0.3-1.1-0.5-1.4-0.5v-1.9l118.9-20.5c0.2-1.6,0.7-2.3,1.4-2.3
	h0.9l1.9,1.9C185.4,19.1,220.4,13.8,233.4,12.6z"/>
<path class="st0" d="M156,4.7h0.5c0.6,0.1,0.9,0.4,0.9,0.9v0.5c0,2-2,9.6-6.1,22.8L135,100.2h0.5c7.3-10.6,12.7-15.9,16.3-15.9
	c1.9,0.7,2.8,1.8,2.8,3.3c-1.2,5.1-1.9,8.4-1.9,9.8v2.8c0,0.5,0.5,0.9,1.4,1.4h0.9c4,0,9.3-4.4,15.9-13.1h0.5
	c0.6,0.1,0.9,0.4,0.9,0.9V90c-6.3,9.6-12,14.5-17.3,14.5c-3.2,0-4.9-1.9-5.1-5.6v-0.5l1.9-10.7H150c-6.7,5.4-12,12.4-15.9,21
	c-1.6,3.7-2.7,5.6-3.3,5.6h-0.5c-0.6,0-0.9-0.5-0.9-1.4C139.7,67.1,148.2,31.2,155,5.2L156,4.7z"/>
<path class="st0" d="M183.3,81.5c1.5,0,3,1.4,4.7,4.2c-1.9,6.4-2.8,10.9-2.8,13.5c0.6,1.4,1.2,2.2,1.9,2.3c3.8,0,9.2-4.4,16.3-13.1
	h0.9v1.9c-6.5,9.3-12.3,14-17.3,14c-2.4,0-4-2.3-4.7-7h-0.5c-6.7,6.8-11.5,10.3-14.5,10.3c-2.8-0.6-4.2-2.2-4.2-4.7
	c0-8,5.9-15,17.7-21L183.3,81.5z M166.1,102.5v0.9c0,0.5,0.5,0.9,1.4,1.4c6.4-1.5,12.4-7.5,17.7-18.2v-0.5c0-0.5-0.6-1.1-1.9-1.9
	c-4.5,0-9.5,3.7-14.9,11.2C166.9,98.3,166.1,100.7,166.1,102.5z"/>
<path class="st0" d="M216.8,85.2h1.4c1.6,0.9,2.3,2,2.3,3.3c-0.9,5.1-1.4,8.3-1.4,9.8v2.8h0.9c2.6,0,6.9-4.4,13.1-13.1h1.4
	c0,0.6,0.2,0.9,0.5,0.9c-4.9,8.9-9.7,14.1-14.5,15.4h-1.9c-1.9-1-2.8-2.7-2.8-5.1c0-1.2,0.5-4.7,1.4-10.7h-1.4
	c-2.8,1.9-7.6,7.3-14.5,16.3h-0.9c-0.6,0-0.9-0.3-0.9-0.9c2.3-11.2,3.8-16.8,4.7-16.8h0.9c0.6,0,0.9,0.5,0.9,1.4
	c-0.6,2.7-0.9,4.6-0.9,5.6h1.4C210.9,88.2,214.3,85.2,216.8,85.2z"/>
<path class="st0" d="M252.8,8.5c1.2,0.5,1.9,0.9,1.9,1.4v1.9c-2.2,3-8.5,28.5-19.1,76.5h0.9l10.3-7.5l1.9,1.4c0,0.6-4.2,4-12.6,10.3
	v0.9c4.2,4.7,6.7,7,7.5,7h1.9c3.1,0,7-4.2,11.7-12.6h1.9c0,0.6,0.2,0.9,0.5,0.9c-5.2,10.3-10,15.4-14.5,15.4
	c-1.8,0-5.4-2.6-10.7-7.9c-0.7,0.9-2.4,6.6-5.1,17.3h-0.9c-0.2,0-0.7-0.5-1.4-1.4C238.5,62,246.7,27.8,251.7,9.5
	C252.3,9.1,252.8,8.8,252.8,8.5z"/>
<path class="st0" d="M259.2,76h0.9c0.5,0,1,0.8,1.4,2.3l-3.3,9.3c5.9,6,8.9,9.6,8.9,10.7h1.4c0.5-0.2,3.3-3.6,8.4-10.3h1.4v0.5
	c0,1.9-3.4,6.7-10.3,14.5c0,4-2.5,6.1-7.5,6.5c-4.7-1.4-7-3.4-7-6.1c7.5-1.5,11.2-2.6,11.2-3.3c0-2.6-3.4-6.5-10.3-11.7
	c-1.2-2.4-1.9-4.3-1.9-5.6C252.7,80,254.9,77.7,259.2,76z M257.3,79.7c-1.2,1.3-1.9,2.6-1.9,3.7v0.5c0.1,0.6,0.4,0.9,0.9,0.9
	l1.9-4.7L257.3,79.7z M258.7,104.9v0.9c0.1,0.6,0.4,0.9,0.9,0.9h3.3c0.4,0,1.2-0.8,2.3-2.3V104C264.3,104,262.1,104.3,258.7,104.9z"
	/>
<path class="st0" d="M226.2,119.6c0.6,0.3,1.1,0.5,1.4,0.5v1.4c0,0.7-1.4,1.3-4.2,1.9c-0.2,0-1.5-0.2-3.7-0.5
	c-10.5,1.2-45.3,6.8-104.4,16.8l-17.3,62c0.3,0,0.5,0.2,0.5,0.5c36.9-4.7,64-7.8,81.1-9.3c1.2,0.5,1.9,0.9,1.9,1.4v0.9
	c0,1-7.5,1.9-22.4,2.8c-38.6,4.7-59.4,7.3-62.5,7.9c-10.1,35.5-15.7,53.7-16.8,54.6h-1.4c0-0.3-0.2-0.8-0.5-1.4
	c9.6-33.1,14.8-50.2,15.4-51.3c-0.3-0.9-0.6-1.4-0.9-1.4c-11.8,0.9-27.8,2.8-48,5.6c-0.6-0.3-1.1-0.5-1.4-0.5v-1.9
	c34.5-4.5,51.8-7.1,51.8-7.9c11.2-39.6,16.8-59.8,16.8-60.6v-0.9h-0.5c-14.6,1.9-42,6.2-82.1,13.1c-0.6-0.3-1.1-0.5-1.4-0.5v-1.9
	l85.3-14.5c1.2-4.4,2.2-6.5,2.8-6.5h0.9c0.6,0.1,0.9,0.4,0.9,0.9c0,0.3-0.3,1.9-0.9,4.7C170.7,127,207.2,121.8,226.2,119.6z"/>
<path class="st0" d="M188.2,192.7c4.7,0,7.3,3,7.9,8.9h0.5c2.5,0,6.7-2,12.6-6.1h0.9c0.6,0.1,0.9,0.4,0.9,0.9v0.5
	c-1.2,2.5-6.8,5.6-16.8,9.3c-3.1,5.6-6.2,8.4-9.3,8.4c-4-1-6.1-3.7-6.1-7.9C180.5,197.3,183.7,192.7,188.2,192.7z M184,200.1
	c-1.5,2.9-2.1,5.3-1.8,7.2s0.9,3.1,1.8,3.6h1.4c2.6,0,4.7-2,6.1-6.1C189.9,204.3,187.4,202.7,184,200.1z M187.3,196.4v0.9
	c0.5,2.8,2.4,4.2,5.6,4.2v-1.4C191.9,196.6,190,195.3,187.3,196.4z"/>
<path class="st0" d="M207,185.2c2.3,0,4.2,2.8,5.6,8.4h1.4c1.7,0,4.7-0.5,8.9-1.4c0.6,0.1,0.9,0.4,0.9,0.9v0.5
	c-2.5,6.8-3.7,11.3-3.7,13.5v3.3c0,0.5,0.5,0.9,1.4,1.4h1.9c3.3,0,8.1-5.4,14.5-16.3h0.5c0.6,0.1,0.9,0.4,0.9,0.9v0.5
	c-3.3,8.3-8.1,14.1-14.5,17.3c-0.5,0.3-1.4,0.5-2.8,0.5c-2.8,0-4.4-1.9-4.7-5.6v-0.9c0-1.3,0.8-5.2,2.3-11.7V196h-0.5
	c-0.7,0-2.4,0.2-5.1,0.5l-2.8-0.5c0,0.3-0.6,0.9-1.9,1.9c-0.6-0.3-1.1-0.5-1.4-0.5V195c-2.5-2.5-3.7-4.5-3.7-6.1V187
	C204.8,185.8,205.8,185.2,207,185.2z M207,188.5v1.4c0,0.5,0.5,0.9,1.4,1.4h0.5v-1.4c0-0.5-0.5-0.9-1.4-1.4H207z"/>
<path class="st0" d="M139.8,258h0.9c0.6,0.1,0.9,0.4,0.9,0.9v0.9c0,2-1.7,4.8-5.1,8.4c-22.9,43.5-43.6,78.5-62,104.9
	c-7.8,9.6-13.2,14.5-16.3,14.5h-1.9c-3.4,0-6.4-7.9-8.9-23.8c-1.6-14.9-2.3-32.6-2.3-53.2v-0.5c0-7.8,0.2-18.8,0.5-33.1
	c0.5-1.2,0.9-1.9,1.4-1.9h1c0.3,0,0.8,0.6,1.4,1.9l-0.5,3.3c0,11.3-0.2,21.7-0.5,31.2c0,48.5,3.3,72.7,9.8,72.7
	c4.6-1.5,11.3-8.6,20-21.4c15.3-23.2,35.5-58,60.6-104.4L139.8,258z"/>
<path class="st0" d="M124.1,324.9h1.4c0,0.3,0.2,0.8,0.5,1.4c-2.8,8-4.2,13.8-4.2,17.3v4.2h1.9c3.8,0,10.8-6.1,21-18.2h1.4
	c0,0.6,0.2,0.9,0.5,0.9c-9.5,13.7-17.7,20.5-24.7,20.5h-0.5c-1.9-0.9-2.8-2.9-2.8-6.1C120.8,331.6,122.7,324.9,124.1,324.9z
	 M128.8,314.2h1.4c0.6,0.1,0.9,0.4,0.9,0.9v0.9c-1.8,2.5-2.9,3.7-3.3,3.7h-0.5c-1.2-0.5-1.9-1.6-1.9-3.3
	C125.5,316.1,126.6,315.4,128.8,314.2z"/>
<path class="st0" d="M147.2,317h0.9c0.5,0,1,0.8,1.4,2.3l-3.3,9.3c5.9,6,8.9,9.6,8.9,10.7h1.4c0.5-0.2,3.3-3.6,8.4-10.3h1.4v0.5
	c0,1.9-3.4,6.7-10.3,14.5c0,4-2.5,6.1-7.5,6.5c-4.7-1.4-7-3.4-7-6.1c7.5-1.5,11.2-2.6,11.2-3.3c0-2.6-3.4-6.5-10.3-11.7
	c-1.2-2.4-1.9-4.3-1.9-5.6C140.7,321,142.8,318.7,147.2,317z M145.3,320.7c-1.2,1.3-1.9,2.6-1.9,3.7v0.5c0.1,0.6,0.4,0.9,0.9,0.9
	l1.9-4.7L145.3,320.7z M146.7,345.9v0.9c0.1,0.6,0.4,0.9,0.9,0.9h3.3c0.4,0,1.2-0.8,2.3-2.3V345C152.2,345,150.1,345.3,146.7,345.9z
	"/>
<path class="st0" d="M202.1,263.4h0.9c0.6,0,0.9,0.5,0.9,1.4c-1.9,5.9-2.8,9.6-2.8,11.2h0.5c12.4-0.6,24.2-0.9,35.4-0.9
	c1.2,0.5,1.9,0.9,1.9,1.4v0.5l-0.9,1.4l-38.2,0.9c-9.9,33.3-14.9,56.7-14.9,69.9l0.5,2.3h1.4c7.9-5.8,15.1-13.4,21.4-22.8h0.9
	c0.6,0.1,0.9,0.4,0.9,0.9c-3.4,7.9-11,16.2-22.8,25.2h-2.3c-2.2-1.1-3.3-3.7-3.3-7.9c0-4,1.1-11.7,3.3-22.8h-0.5
	c-7.9,11.5-14,17.3-18.2,17.3c-2.5,0-3.7-1.6-3.7-4.7c1.1-5.8,2.3-9.2,3.7-10.3h1.4v1.4c-1.6,4.7-2.3,7.5-2.3,8.4v2.3h2.8
	c5.4-4.1,10.6-10.3,15.4-18.7c3.4-4.8,7.6-18.3,12.6-40.6h-0.9c-0.9,0-1.4,0.2-1.4,0.5c-0.3,0-0.8-0.2-1.4-0.5
	c-4,0-15.2,0.3-33.6,0.9c-0.6-0.3-1.1-0.5-1.4-0.5v-1.9c0.3,0,0.8-0.2,1.4-0.5c15.1-0.3,28-0.8,38.7-1.4
	C199.7,267.6,201.2,263.4,202.1,263.4z M169,317.9h0.9c0,0.6,0.2,0.9,0.5,0.9c-0.7,1.9-1.3,2.8-1.9,2.8H168c-0.6,0-0.9-0.3-0.9-0.9
	v-0.9C167.1,319.3,167.7,318.7,169,317.9z"/>
</svg>
