<?xml version="1.0" encoding="utf-8"?>
<!-- Generator: Adobe Illustrator 24.3.0, SVG Export Plug-In . SVG Version: 6.00 Build 0)  -->
<svg version="1.1" id="Layer_1" xmlns="http://www.w3.org/2000/svg" xmlns:xlink="http://www.w3.org/1999/xlink" x="0px" y="0px"
	 viewBox="0 0 748 257" style="enable-background:new 0 0 748 257;" xml:space="preserve">
<style type="text/css">
	.st0{clip-path:url(#SVGID_2_);}
	.st1{fill:#00000A;}
	.st2{fill:none;stroke:#FFFFFF;stroke-width:1.5;stroke-miterlimit:10;}
	.st3{fill:#FFFFFF;}
	.st4{fill:#EAEAEA;}
	.st5{clip-path:url(#SVGID_4_);}
	.st6{clip-path:url(#SVGID_6_);}
	.st7{clip-path:url(#SVGID_8_);}
	.st8{clip-path:url(#SVGID_10_);}
	.st9{clip-path:url(#SVGID_12_);}
	.st10{clip-path:url(#SVGID_14_);}
	.st11{clip-path:url(#SVGID_16_);}
	.st12{clip-path:url(#SVGID_18_);}
	.st13{clip-path:url(#SVGID_20_);}
	.st14{clip-path:url(#SVGID_22_);}
	.st15{clip-path:url(#SVGID_24_);}
	.st16{clip-path:url(#SVGID_26_);}
</style>
<g id="Bottom">
	<g>
		<g id="little">
			<defs>
				<rect id="SVGID_1_" x="1686.8" y="948" width="681" height="184"/>
			</defs>
			<clipPath id="SVGID_2_">
				<use xlink:href="#SVGID_1_"  style="overflow:visible;"/>
			</clipPath>
			<path class="st0" d="M1674.7,764.8c-0.7,12.7-2.4,104.5-1.3,121.4c2.3,35.1,8.9,69.1,40.1,89.3c30.4,19.6,60.6,38.5,96.5,45.3
				c16.5,3.2,32.6,7.3,48.6,12.6c4.5,1.5,38.5,9.1,50.2,17.6c16.6,12,34.5,21.6,52.6,31c19.6,10.1,39.7,19.4,59,30
				c19.4,10.6,38.2,21.5,61.3,19.1c23.1-2.4,43.4-13.3,65.4-19.9c22-6.7,44.1-13.3,66-20.3c21.8-7,44.1-13.2,65.3-22
				c16.2-6.7,31.5-15.4,47.5-22.4c3.6-2.2,7.2-4.7,10.4-7.6c15.1-13.8-0.4-30.8,3.6-47.6c3.4-14.2,12.8-24.5,21.7-35.5
				c15.5-19.1,12.2-36.3,7.4-58.7c-8.1-37.9,31.6-48.5,42.5-79.6c7.1-20.2,4-37.9-0.1-58.3c-0.5-2.4-0.9-4.8-1.4-7.2
				c-5.5-14.8-14.2-27.5-16.5-43.4c-2.2-15.1,1.6-31.2,6.6-45.3c6.5-18.4,13.1-36.2,5.7-55.6c-6.8-17.8-17.2-31.3-33.3-41.9
				c-15.6-10.3-32.6-18.5-50.8-23.1c-16.4-4.2-33.4-6.3-48.7-13.8c-35.5-17.2-72.8-2.6-108.5,7.4c-0.9,0.2-1.4-1.1-0.6-1.5
				c18.3-9.2,39-18.5,60-21.7c-11.3-3.2-21.7-8.9-33.3-12c-18.2-4.8-34.9-1-53.1-1.4c-12.8-0.3-25.1-1.8-37.8-1.2
				c-7.7,1.3-15.6,3.3-21.7,6.7c-8.4,4.6-25.2,3.3-20.3-2.4c4.1-10,8.9-19.7,12.2-30.1c5.2-16.5,8-33.9,12-50.8
				c4-16.8,6.8-33.8,10.7-50.5c2.4-10,12.8-42.9,13.6-43.6c14.4-23.6,14.5-54.2,15.9-81c1.7-30.6,1.7-61.3-1-91.8
				c-2.4-27.2-15-61.6-41-75.8c-27.8-15.2-62.7-8.2-76.7,21.4c-12.3,26.1-15.8,55-26.4,81.6c-10.7,26.7-25.4,52.3-38.1,78.1
				c-7.1,14.4-13.2,28-15.7,44c-1.9,12.2-2.9,24.6-5.8,36.7c-3.1,13-7.1,26.6-12.9,38.7c-2.6,5.4-5.8,10.5-9.1,15.6
				c-3.3,8.7-6.8,17.4-11.6,25.3c-10.8,17.8-26.1,31.6-42.6,44.1c-42.9,32.4-86.7,61-117.2,106.5c-14.9,22.2-32.8,46.8-39.4,73
				c-6.1,24.3-8.1,50.7-8.3,75.7C1676.3,735.1,1675.5,749.8,1674.7,764.8"/>
		</g>
		<path class="st1" d="M2367.1,948c0-19.9-152-36.1-339.6-36.1s-339.6,16.2-339.6,36.1"/>
	</g>
	<g>
		<path class="st2" d="M1832.4,960.3c-38.3-5.8-40.1-20-5.7-25.7c32.1-5.1,80.1-3.4,119-3.4c54.9,0,107.6-1.1,162.5-2.3
			c45.8-0.6,164.8-3.4,164.8,13.1c0,14.2-66.4,22.2-114.5,25c-54.9,3.4-130.1,5-185.4,3.6C1884.5,968.5,1832.4,960.3,1832.4,960.3
			L1832.4,960.3z M1814.1,964.8c-42.1-7.8-44-26.6-6.3-34.2c35.2-6.8,88-4.5,130.7-4.5c60.3,0,118.1-1.5,178.5-3
			c50.3-0.8,181-4.5,181,17.4c0,18.9-72.9,29.5-125.7,33.3c-60.3,4.5-142.8,6.7-203.6,4.9C1871.3,975.8,1814.1,964.9,1814.1,964.8
			L1814.1,964.8z M1879.9,950.4c-5.5-9.4,235.1-9.6,283.1-7.2c69.3,3.4,44.1,11.3-12.6,13.3c-42,2-86.1,2-128,1.5
			C1999.3,958,1885.3,959.8,1879.9,950.4z M1841.9,950.2c-6.7-16.6,285.7-17,343.9-12.7c84.1,6.1,53.5,20-15.3,23.4
			c-51,3.5-104.5,3.5-155.5,2.6C1986.9,963.6,1848.5,966.8,1841.9,950.2L1841.9,950.2z"/>
		<path class="st3" d="M1948.3,949.7l8.8-0.5c5.6-0.3,13.6-0.7,23.3-1.1l15.6-0.3c5.5-0.1,11.4-0.3,17.4-0.2c6,0,12.3,0,18.6,0.1
			c6.3,0,12.8,0.2,19.2,0.2l19.2,0.4l18.6,0.4l17.3,0.3c5.5,0.2,10.7,0.1,15.5,0.1c4.8,0,9.2,0.1,13.1,0l10.1-0.3l8.8-0.2l-8.8,0.6
			l-10.1,0.7c-3.9,0.2-8.3,0.3-13.2,0.4c-4.8,0.1-10.1,0.3-15.6,0.3l-17.4,0c-12.1-0.1-24.9-0.3-37.8-0.5
			c-6.4-0.1-12.8-0.3-19.2-0.3l-18.6-0.3c-6-0.1-11.8-0.1-17.3-0.1l-15.6-0.1l-23.3,0.2L1948.3,949.7L1948.3,949.7z"/>
	</g>
	<path class="st4" d="M2037,1085.7c-8.7-1.7-18.7-9.8-26.9-13.2c-7.6-3.2-14.4-7.9-21.6-11.9c-14.6-8-27.2-15.3-40.3-25.5
		c-1.2-0.9,0.3-2.7,1.5-2c13.1,7.7,26.7,13.1,40.5,18.2c0.5-3.3,0.8-6.6,1.5-9.8c0.2-0.8,1.5-0.8,1.7,0c0.9,4,2.4,7.8,3.3,11.8
		c0,0.2,0,0.3,0,0.4c0.6,0.2,1.3,0.5,1.9,0.7c-0.4-6.1,0.6-12.4,2.4-18c0.4-1.2,2-1.2,2.4,0c2.1,6.9,1.7,14.3,4,21.2
		c0.7,0.3,1.5,0.5,2.2,0.8c-1.6-8.4-0.3-18.7,1.5-25.6c0.3-1.1,2-1.1,2.3,0c1.5,5.4,1.9,10.9,3.3,16.3c1.1,4.5,3,8.9,3.8,13.4
		c0.8,0.3,1.6,0.6,2.3,0.9c0.1,0.1,0.3,0.1,0.4,0.2c-1.2-9.4,0-19.9,0.8-28.1c0.2-1.8,2.6-1.8,2.8,0c0.9,8,1.9,16.3,4.8,23.9
		c1.2,3.1,2.3,6.8,4.4,9.4c0.7,0.8,1.2,1.2,1.5,1.5c0.1,0.1,0.3,0.1,0.4,0.2c0.2,0,0.5,0,0.7,0c-0.7-3.1-1.4-6.1-1.9-9.2
		c-1.7-8.6,0.2-17.5,0.8-26.1c0.2-2.5,3.4-3.6,4.8-1.3c6.5,11.1,10.7,30.4,11.4,43C2054.1,1087.1,2044.3,1087.1,2037,1085.7z"/>
	<path class="st4" d="M2067.2,1094.4c-0.4,3.9-5.5,3.9-6,0c-1.7-14,0.2-27.9-2.4-42c-0.3-1.4,1.8-2,2.2-0.6
		C2064.7,1065,2068.7,1080.6,2067.2,1094.4z"/>
	<path class="st4" d="M2072.1,1093.9c0.5-9.5,0.2-19.1-0.8-28.5c-0.2-1.6,2.3-1.8,2.7-0.4c2.4,9.5,3.7,19.1,4,28.9
		C2078.1,1097.7,2071.9,1097.7,2072.1,1093.9z"/>
	<path class="st4" d="M2087.1,1094.4c-0.5-5.4,0.1-10.8-0.5-16.2c-0.2-1.9,2.9-2.3,3.3-0.5c1.2,5.3,1.2,10.7,2.4,15.9
		C2093.2,1097.5,2087.5,1098.3,2087.1,1094.4z"/>
	<path class="st4" d="M2098.3,1091.7c-0.9-3.5,0.2-7.1-0.8-10.6c-0.5-2,2.5-3.4,3.4-1.4c1.4,3.4,1.6,7.1,2.3,10.7
		C2103.8,1093.5,2099.1,1094.9,2098.3,1091.7z"/>
	<path class="st4" d="M2111.2,1087.3c-0.5-1.9-0.6-3.7-0.2-5.6c0.3-1.4,2.2-0.9,2.4,0.3c0.2,1.4,0.7,2.6,1.5,3.7
		C2116.5,1088.1,2112,1090.3,2111.2,1087.3z"/>
</g>
<g id="Middle">
	<g id="middle">
		<defs>
			<rect id="SVGID_3_" x="1671.5" y="648.5" width="745" height="300"/>
		</defs>
		<clipPath id="SVGID_4_">
			<use xlink:href="#SVGID_3_"  style="overflow:visible;"/>
		</clipPath>
		<path class="st5" d="M1674.4,765.3c-0.7,12.7-2.4,104.5-1.3,121.4c2.3,35.1,8.9,69.1,40.1,89.3c30.4,19.6,60.6,38.5,96.5,45.3
			c16.5,3.2,32.6,7.3,48.6,12.6c4.5,1.5,38.5,9.1,50.2,17.6c16.6,12,34.5,21.6,52.6,31c19.6,10.1,39.7,19.4,59,30
			c19.4,10.6,38.2,21.5,61.3,19.1c23.1-2.4,43.4-13.3,65.4-19.9c22-6.7,44.1-13.3,66-20.3c21.8-7,44.1-13.2,65.3-22
			c16.2-6.7,31.5-15.4,47.5-22.4c3.6-2.2,7.2-4.7,10.4-7.6c15.1-13.8-0.4-30.8,3.6-47.6c3.4-14.2,12.8-24.5,21.7-35.5
			c15.5-19.1,12.2-36.3,7.4-58.7c-8.1-37.9,31.6-48.5,42.5-79.6c7.1-20.2,4-37.9-0.1-58.3c-0.5-2.4-0.9-4.8-1.4-7.2
			c-5.5-14.8-14.2-27.5-16.5-43.4c-2.2-15.1,1.6-31.2,6.6-45.3c6.5-18.4,13.1-36.2,5.7-55.6c-6.8-17.8-17.2-31.3-33.3-41.9
			c-15.6-10.3-32.6-18.5-50.8-23.1c-16.4-4.2-33.4-6.3-48.7-13.8c-35.5-17.2-72.8-2.6-108.5,7.4c-0.9,0.2-1.4-1.1-0.6-1.5
			c18.3-9.2,39-18.5,60-21.7c-11.3-3.2-21.7-8.9-33.3-12c-18.2-4.8-34.9-1-53.1-1.4c-12.8-0.3-25.1-1.8-37.8-1.2
			c-7.7,1.3-15.6,3.3-21.7,6.7c-8.4,4.6-25.2,3.3-20.3-2.4c4.1-10,8.9-19.7,12.2-30.1c5.2-16.5,8-33.9,12-50.8
			c4-16.8,6.8-33.8,10.7-50.5c2.4-10,12.8-42.9,13.6-43.6c14.4-23.6,14.5-54.2,15.9-81c1.7-30.6,1.7-61.3-1-91.8
			c-2.4-27.2-15-61.6-41-75.8c-27.8-15.2-62.7-8.2-76.7,21.4c-12.3,26.1-15.8,55-26.4,81.6c-10.7,26.7-25.4,52.3-38.1,78.1
			c-7.1,14.4-13.2,28-15.7,44c-1.9,12.2-2.9,24.6-5.8,36.7c-3.1,13-7.1,26.6-12.9,38.7c-2.6,5.4-5.8,10.5-9.1,15.6
			c-3.3,8.7-6.8,17.4-11.6,25.3c-10.8,17.8-26.1,31.6-42.6,44.1c-42.9,32.4-86.7,61-117.2,106.5c-14.9,22.2-32.8,46.8-39.4,73
			c-6.1,24.3-8.1,50.7-8.3,75.7C1676,735.6,1675.2,750.3,1674.4,765.3"/>
	</g>
	<path d="M2404.9,649.5c0-22.9-161.4-41.5-360.5-41.5s-360.6,18.6-360.6,41.5"/>
	<g>
		<path class="st2" d="M1780.5,666.4c-43-7.3-11.2-25,27.3-32.1c36-6.4,90-4.2,133.7-4.2c61.7,0,120.8-1.4,182.5-2.8
			c51.4-0.7,185.1-4.2,185.1,16.3c0,17.7-74.5,27.6-128.5,31.1c-61.7,4.2-146.2,7.4-208.2,4.5
			C1831.9,672.8,1780.5,666.5,1780.5,666.4L1780.5,666.4z M1748.5,676.2c-51-10.7-27.7-37.1,17.9-47.5c42.6-9.4,99.1-4.5,150.8-4.5
			c73.1,0,143.1-2.1,216.2-4.2c60.9-1,219.2-6.3,219.2,24c0,22.7-5.5,37.2-113.9,46.1c-73.1,6.3-232.6,11.8-306.2,9.3
			C1814.7,695.4,1748.5,676.2,1748.5,676.2L1748.5,676.2z M1766.7,671.5c-47.9-9.7-30.9-32.8,12.1-42.2
			c40.1-8.5,100.2-5.7,148.9-5.7c68.7,0,134.5-1.9,203.2-3.8c57.2-0.9,206.1-5.7,206.1,21.7c0,23.6-38.8,37.5-143.1,41.5
			c-69.1,2.6-162.7,8.3-231.9,6C1851,685.6,1766.7,671.5,1766.7,671.5L1766.7,671.5z M1849.7,652.5c-6.1-11.8,281.8-10.6,335.7-7.6
			c77.8,4.3,49.5,14.1-14.1,16.6c-47.1,2.5-96.6,2.5-143.7,1.8C2001.5,663.4,1855.8,664.3,1849.7,652.5L1849.7,652.5z M1802.2,652.5
			c-7.5-20.7,343.3-19.9,408.8-14.5c94.5,7.6,60.1,24.9-17.2,29.2c-57.2,4.3-117.4,4.3-174.6,3.2
			C1987.7,670.4,1809.7,673.2,1802.2,652.5L1802.2,652.5z"/>
		<path class="st3" d="M1913.3,653.2l10.9-0.3c7-0.1,16.9-0.4,28.8-0.5c6,0,12.4-0.1,19.3-0.3c6.8-0.1,14-0.3,21.5-0.5l23-0.4
			l23.7-0.3c15.9-0.1,31.8-0.3,46.7-0.3h21.5c6.8,0,13.3,0.1,19.3,0.2c11.9,0.2,21.9,0.5,28.8,0.6l10.9,0.3l-10.9,0.3
			c-7,0.1-16.9,0.4-28.8,0.5c-6,0.1-12.4,0.1-19.3,0.3l-21.5,0.5c-14.9,0.3-30.8,0.5-46.7,0.7c-7.9,0.1-15.9,0.1-23.7,0.2l-23,0.1
			h-21.5c-6.8,0-13.3-0.1-19.3-0.2c-11.9-0.2-21.9-0.5-28.8-0.6C1917.2,653.3,1913.3,653.2,1913.3,653.2L1913.3,653.2z"/>
	</g>
	<path d="M1687.6,947.5c0,19.9,152,36,339.5,36s339.5-16.1,339.5-36"/>
	<path class="st4" d="M2076.8,771.9c-18.7,0.5-35.6-9.1-53-12.1c-25.2-4.2-44.3-11.3-65.6-19.6c-1.8-0.7-0.8-2.7,1.6-2.2
		c17,3.6,33.5,7.6,50.4,11.1c0.6-3,1.5-5.9,2.4-8.8c0.2-0.6,2-0.6,2.2,0c0.8,3.2,1.4,6.5,1.9,9.7c2.3,0,4.6-0.1,6.9-0.2
		c-0.7-8-0.5-15.7,0.8-23.8c0.1-0.7,2-0.7,2.1,0c0.8,5.3,0.8,10.9,3.1,16c1.1,2.4,2.6,4.7,3.6,7c1-0.1,2-0.2,2.9-0.3
		c-2.3-12.1-1.1-24.8,3.6-36.4c0.4-0.9,2.9-0.7,2.8,0.2c-1.1,8-0.2,15.9,2.2,23.8c1,3.4,2.7,6.9,3.9,10.4c0.8-0.2,1.7-0.4,2.5-0.6
		c-1.5-13.1,3.2-26.3,6.6-39.3c0.2-0.9,2.4-0.5,2.6,0.2c1.9,7.9,2,16.3,2.3,24.3c0.1,2.7,0.5,5.3,1,8c3-3,3.7-6,4.2-9.1
		c0.1-0.6,0.2-1.3,0.3-1.9c0,0,0-0.1,0-0.1c1.2-8,2.4-15.9,5-23.8c0.4-1.1,3.1-0.7,3.3,0.2c2.3,10.5,2,21.2,2.4,31.8
		c0.4,10.6,3.6,20.8,5.1,31.3C2084.2,770.2,2080.4,771.8,2076.8,771.9z"/>
	<path class="st4" d="M2092.3,768.7c-0.3-20.9-6-42.6-3.4-63.3c0.2-1.4,2.5-2,2.8-0.4c3.5,20.7,8.7,42.6,8.1,63.7
		C2099.6,773.3,2092.4,773.3,2092.3,768.7z"/>
	<path class="st4" d="M2106.2,765.6c-1.2-6.2-0.7-12.1-0.5-18.3c0.2-5.8-0.6-11.5-0.4-17.2c0.1-2,2.9-1.9,3.1,0
		c0.6,5.8,2.4,11.4,2.6,17.2c0.2,5.6,0.1,11.2,1.3,16.6C2113.2,767.9,2107,769.6,2106.2,765.6z"/>
	<path class="st4" d="M2120.6,758.5c-0.6-7-0.6-14-1.2-20.9c-0.2-2,3.1-2.4,3.5-0.5c1.6,6.8,2.3,13.7,3.5,20.6
		C2127.2,762,2120.9,762.8,2120.6,758.5z"/>
	<path class="st4" d="M2134.2,758.1c0-5.2,0.5-10.5-0.5-15.7c-0.5-2.4,2.9-3.3,3.6-1c1.7,5.4,1.8,11.1,2.3,16.7
		C2139.9,761.5,2134.1,761.6,2134.2,758.1z"/>
	<path class="st4" d="M2148.1,754.5c-0.7-4.4-0.1-8.7,0.3-13.1c0.2-2.3,3.4-2.3,3.6,0c0.3,3.9,0.2,7.8,1.3,11.6
		C2154.3,756.5,2148.6,757.9,2148.1,754.5z"/>
	<path class="st4" d="M2163.2,750c0-3.2,0.1-6.3-0.3-9.5c-0.3-2.3,3.3-2.6,3.9-0.5c0.9,3.3,1.2,6.7,1.7,10
		C2168.9,753.3,2163.2,753.5,2163.2,750z"/>
	<path class="st4" d="M2074.9,883.1c-0.6,10.7-4.1,23.5-17.8,19.7c-8.4-2.3-15.4-6.4-23-10.5c-10.4-5.6-21.6-9.7-32.4-14.3
		c-18.1-7.8-36.4-17.2-51.5-29.9c-1.1-1,0.3-2.8,1.6-2c16.8,10.8,35.9,16.2,54.6,22.2c-0.4-5-1-9.8-0.3-14.9
		c0.7-5.3,1.6-10.5,2.3-15.7c0.2-1.2,2.1-1.1,2.3,0c1.3,6.6,0.4,13.5,2,19.9c1.2,4.8,3.1,9,3.3,14c0.6,0.2,1.2,0.4,1.8,0.6
		c-0.9-15.5,2.4-30.5,4.7-45.9c0.2-1.2,1.9-0.8,2,0.3c0.8,8.2,1,16.5,2,24.7c1,8.5,3.6,16.8,3,25.4c1.2,0.5,2.4,1,3.6,1.6
		c-0.8-7.2-0.2-14.8-0.3-21.8c0-9.4,0.4-18.4,3.1-27.5c0.6-2,3.9-1.7,3.7,0.5c-1.8,17.8,3.1,38.2,7.8,55.3c0.1,0.5,0.2,0.9,0.2,1.4
		c0.5,0.3,1.1,0.6,1.7,1c-4.3-20.6-4.2-40.4-1.8-61.6c0.2-1.6,2.3-1.6,2.5,0c1.5,12.1,2.9,24.2,5.8,36.1c2.1,8.6,5.5,17.3,7.1,26
		c0.7-6.1,0.5-12.3,0.4-18.4c-0.3-14.6-4.1-29-2.2-43.6c0.3-2,3.5-2.9,3.9-0.5C2068.2,843.7,2076,863.7,2074.9,883.1z"/>
	<path class="st4" d="M2084.9,902.2c-3.6-20.8-1.5-43.8-0.6-64.8c0.1-1.6,2.3-1.6,2.4,0c0.9,21.3,4.1,42.5,6.2,63.7
		C2093.4,905.7,2085.7,906.8,2084.9,902.2z"/>
	<path class="st4" d="M2096.8,905.4c-0.3-14.5,0.4-28.8-1.5-43.3c-0.2-1.4,2-1.6,2.4-0.3c3.7,14.1,6.3,28.9,6.1,43.6
		C2103.7,909.9,2096.9,909.9,2096.8,905.4z"/>
	<path class="st4" d="M2113.7,901.1c0.5-10.8,2.9-22-0.9-32.5c-0.5-1.4,1.7-2.3,2.4-1c5.2,10.3,4.6,22.2,4.9,33.5
		C2120.2,905.2,2113.6,905.2,2113.7,901.1z"/>
	<path class="st4" d="M2133.4,895.9c-0.2,4.1-6.2,4.1-6.4,0c-0.3-7.9,0.7-15.8-0.1-23.8c-0.3-2.6,4-3.2,4.6-0.6
		C2133.2,879.5,2133.8,887.8,2133.4,895.9z"/>
	<path class="st4" d="M2140,888.3c0.3-5.1,0.8-10.1,0.3-15.2c-0.2-2.6,4-3.1,4.5-0.6c1,5.2,1.1,10.5,1.4,15.8
		C2146.3,892.3,2139.8,892.3,2140,888.3z"/>
	<path class="st4" d="M2154.2,879.8c0-3.2,0.2-6.4-0.9-9.4c-0.9-2.4,3-4,4.1-1.7c1.7,3.5,1.8,7.3,2.2,11.1
		C2159.8,883.2,2154.2,883.2,2154.2,879.8z"/>
	<path class="st4" d="M2052.7,983c-17.7-1.9-38.4-8.8-54.6-14.9c-20-7.5-39.3-16.8-58.3-25.9c-1.4-0.7-0.2-2.4,1.3-1.8
		c12.9,5.3,25.9,9.8,39.3,13.5c-0.5-4.6,1.3-9.9,3-14c0.3-0.6,1.5-0.8,1.7,0c0.4,2.4,0.3,4.8,0.5,7.2c0.1,2.6,0.8,4.8,1.5,7.3
		c0.1,0.5,0.1,0.9,0,1.3c1.5,0.4,3.1,0.8,4.6,1.2c-1-8.4,0.9-17.4,2-25.7c0.2-1.4,2.4-1.4,2.5,0c0.7,5.1,1.6,10.1,2.2,15.2
		c0.5,4.3,2.4,8.3,1.6,12.5c0.8,0.2,1.6,0.4,2.4,0.6c0.4,0.1,0.9,0.2,1.3,0.3c-0.3-3.9,0.4-7.9,0.9-11.8c0.9-7.2,2.3-14.3,2.8-21.5
		c0.1-1.5,2.5-1.4,2.7,0c1.9,11.8,0.3,24.8,5.4,36.1c0,0,0,0.1,0,0.1c0.8,0.2,1.7,0.4,2.5,0.6c-3.2-11.6-1.1-26,2.6-36.4
		c0.3-0.8,1.7-0.8,2,0c1.8,5.9,1.1,12.1,1.9,18.2c1,7.7,3.6,14.2,7.2,21.3c0.1,0.2,0.2,0.4,0.2,0.6c0.1,0,0.2,0.1,0.3,0.1
		c-1.5-4.6-1.5-9.5-1.6-14.3c-0.2-7.9-1-16,0.5-23.8c0.2-1.1,2.3-1.1,2.6,0c2.6,11.9,4.6,22.8,9.9,33.7c-0.6-2.7-1.2-5.3-1.7-7.9
		c-1.1-6.1,0.7-12.7,1.4-18.7c0.3-2.8,4.9-2.8,5.3,0c1.8,13.6,6.8,27,10.2,40.3C2059.6,979.3,2057.1,983.4,2052.7,983z"/>
	<path class="st4" d="M2070.1,981c-5.7-13.6-4.3-27.3-7.4-41.4c-0.2-1.1,1.5-1.6,1.9-0.5c2.6,7.5,4,15.2,6.1,22.9
		c1.7,6.2,4.7,11.9,5.7,18.2C2076.9,983.7,2071.3,983.8,2070.1,981z"/>
	<path class="st4" d="M2353.6,812.2c-7,11.7-8.6,25.6-16.9,36.6c-2.4,3.2-6.9-0.3-4.3-3.3c8.6-10.1,11.8-23.6,19.8-34.1
		C2352.8,810.5,2354.2,811.3,2353.6,812.2z"/>
	<path class="st4" d="M2320.3,853.4c4.2-6.6,7.3-13.8,12.2-20c0.5-0.6,1.4,0.2,1.1,0.8c-3.9,6.8-5.9,14.5-9.3,21.5
		C2322.9,858.3,2318.8,855.9,2320.3,853.4z"/>
	<path class="st4" d="M2309,949.7c-1.6,4.8-3.9,9.2-6.3,13.6c-1.3,2.5-5.3,0-3.7-2.2c2.9-3.9,5.8-7.9,8.1-12.3
		C2307.6,947.8,2309.4,948.6,2309,949.7z"/>
	<path class="st4" d="M2310.2,957.5c1.7-3.2,4.4-6,6.3-9c2.2-3.4,4.1-6.9,5.3-10.7c0.5-1.4,2.5-0.8,2.2,0.6
		c-1.6,7.3-5,16.5-10.1,22.1C2312.1,962.4,2309,959.8,2310.2,957.5z"/>
	<path class="st4" d="M2326.4,954.1c-1.4,2.1-5.3,0.8-4.3-1.8c4-9.8,11-18.2,15-28.1c0.4-1,1.7-0.6,1.5,0.4
		C2336.8,934.7,2332.2,945.7,2326.4,954.1z"/>
	<path class="st4" d="M2338.3,947.6c-1.1,2.1-4.6,0.6-3.8-1.6c3.6-10.7,13.2-18.2,15.5-29.6c0.2-0.9,1.6-0.7,1.6,0.2
		C2350.8,928,2343.3,937.7,2338.3,947.6z"/>
	<path class="st4" d="M2351,836.7c4.8-13.1,13.1-24.8,15.1-38.8c0.2-1.2,2.2-0.9,2.2,0.3c-0.5,14.2-7.2,26.9-12,39.9
		C2355.1,841.5,2349.8,840,2351,836.7z"/>
	<path class="st4" d="M2369,827.5c-2.2,3.2-6.8,0.4-5.1-3c6.3-12.9,16.8-24.9,17.3-39.9c0-1.2,1.9-1.3,1.9,0
		C2383.2,799.7,2377.4,815.1,2369,827.5z"/>
	<path class="st4" d="M2387.2,808.8c-1.7,2.8-5.7,0.4-4.3-2.5c5-10.6,11.2-19.6,12.7-31.5c0.1-0.9,1.6-1.3,1.8-0.2
		C2399.6,786.2,2393.3,799.1,2387.2,808.8z"/>
	<path class="st4" d="M2393.5,659.7c2.3,13.3-3.4,25.4-11.5,37.6c-1.2,1.8-5.6,1.2-4.8-0.8c4.5-12.4,11.3-24.3,14.3-37
		C2391.6,658.7,2393.3,659,2393.5,659.7z"/>
	<path class="st4" d="M2381.9,674.3c-3.9,10-5.6,20.4-13.9,29.4c-2,2.2-6.9,0.3-5.3-2c6.5-9.1,12-18.4,17.4-27.8
		C2380.5,673.3,2382.2,673.6,2381.9,674.3z"/>
	<path class="st4" d="M2367.4,680.5c-2.2,8.1-9.5,17.7-21,22.8c-2.6,1.2-5.1-1.2-3.3-2.5c9.1-6.3,18.6-12.4,22.3-20.6
		C2365.8,679.5,2367.6,679.8,2367.4,680.5z"/>
	<path class="st4" d="M2328.1,700.8c4.9-5.8,11.5-10.6,14.7-17.4c0.5-1,2.2-0.7,1.9,0.5c-2.3,7.4-8,12.8-12.4,19.1
		C2330.5,705.4,2326.2,703,2328.1,700.8z"/>
	<path class="st4" d="M2087,980.2c-4-9.9-7.4-19.9-6.2-30.5c0.2-1.6,2.7-1.7,2.8,0c0.4,10,5,19.1,9.6,28.1
		C2095.3,981.9,2088.7,984.4,2087,980.2z"/>
	<path class="st4" d="M2099.3,980.7c-2.4-6.5-1.4-13.5-3.6-20.1c-0.6-1.7,2.5-3,3.3-1.3c3.1,6.4,3.3,13.4,6.1,19.9
		C2106.5,982.5,2100.5,984.1,2099.3,980.7z"/>
	<path class="st4" d="M2108.7,980.3c-0.7-4.1-1.4-8.2-2.5-12.3c-0.5-2,2.5-2.6,3.3-0.8c1.7,3.9,3,7.8,4.2,11.8
		C2114.6,982.1,2109.2,983.3,2108.7,980.3z"/>
	<path class="st4" d="M2121.4,976.3c-1.1-1.9-1.1-4.2-2-6.2c-0.8-1.6,1.6-3,2.7-1.4c1.3,1.9,2.7,4.4,3,6.7
		C2125.3,977.2,2122.3,977.8,2121.4,976.3z"/>
</g>
<g id="Index">
	<g id="flash_5_">
		<defs>
			<rect id="SVGID_5_" x="1682" y="309" width="728" height="344"/>
		</defs>
		<clipPath id="SVGID_6_">
			<use xlink:href="#SVGID_5_"  style="overflow:visible;"/>
		</clipPath>
		<path class="st6" d="M1674.4,769.3c-0.7,12.7-2.4,104.5-1.3,121.4c2.3,35.1,8.9,69.1,40.1,89.3c30.4,19.6,60.6,38.5,96.5,45.3
			c16.5,3.2,32.6,7.3,48.6,12.6c4.5,1.5,38.5,9.1,50.2,17.6c16.6,12,34.5,21.6,52.6,31c19.6,10.1,39.7,19.4,59,30
			c19.4,10.6,38.2,21.5,61.3,19.1c23.1-2.4,43.4-13.3,65.4-19.9c22-6.7,44.1-13.3,66-20.3c21.8-7,44.1-13.2,65.3-22
			c16.2-6.7,31.5-15.4,47.5-22.4c3.6-2.2,7.2-4.7,10.4-7.6c15.1-13.8-0.4-30.8,3.6-47.6c3.4-14.2,12.8-24.5,21.7-35.5
			c15.5-19.1,12.2-36.3,7.4-58.7c-8.1-37.9,31.6-48.5,42.5-79.6c7.1-20.2,4-37.9-0.1-58.3c-0.5-2.4-0.9-4.8-1.4-7.2
			c-5.5-14.8-14.2-27.5-16.5-43.4c-2.2-15.1,1.6-31.2,6.6-45.3c6.5-18.4,13.1-36.2,5.7-55.6c-6.8-17.8-17.2-31.3-33.3-41.9
			c-15.6-10.3-32.6-18.5-50.8-23.1c-16.4-4.2-33.4-6.3-48.7-13.8c-35.5-17.2-72.8-2.6-108.5,7.4c-0.9,0.2-1.4-1.1-0.6-1.5
			c18.3-9.2,39-18.5,60-21.7c-11.3-3.2-21.7-8.9-33.3-12c-18.2-4.8-34.9-1-53.1-1.4c-12.8-0.3-25.1-1.8-37.8-1.2
			c-7.7,1.3-15.6,3.3-21.7,6.7c-8.4,4.6-25.2,3.3-20.3-2.4c4.1-10,8.9-19.7,12.2-30.1c5.2-16.5,8-33.9,12-50.8
			c4-16.8,6.8-33.8,10.7-50.5c2.4-10,12.8-42.9,13.6-43.6c14.4-23.6,14.5-54.2,15.9-81c1.7-30.6,1.7-61.3-1-91.8
			c-2.4-27.2-15-61.6-41-75.8c-27.8-15.2-62.7-8.2-76.7,21.4c-12.3,26.1-15.8,55-26.4,81.6c-10.7,26.7-25.4,52.3-38.1,78.1
			c-7.1,14.4-13.2,28-15.7,44c-1.9,12.2-2.9,24.6-5.8,36.7c-3.1,13-7.1,26.6-12.9,38.7c-2.6,5.4-5.8,10.5-9.1,15.6
			c-3.3,8.7-6.8,17.4-11.6,25.3c-10.8,17.8-26.1,31.6-42.6,44.1c-42.9,32.4-86.7,61-117.2,106.5c-14.9,22.2-32.8,46.8-39.4,73
			c-6.1,24.3-8.1,50.7-8.3,75.7C1676,739.6,1675.2,754.3,1674.4,769.3"/>
	</g>
	<path d="M2115.5,309.1c0-5.8-43.1-10.5-96.3-10.5s-96.3,4.8-96.3,10.6"/>
	<g>
		<path class="st2" d="M1942.1,316.7c-15.2-2.5-15.8-8.7-2.3-11.2c12.7-2.2,31.7-1.5,47-1.5c21.7,0,42.5-0.5,64.3-1
			c18.1-0.3,54.5,0.8,54.5,8c0,6.2-15.6,7.4-34.6,8.6c-21.7,1.5-51.4,2.2-73.3,1.6C1962.7,320.3,1942.1,316.7,1942.1,316.7
			L1942.1,316.7z M1952.1,315.8c-13.4-1.8-14-6-2-7.8c11.2-1.5,28.1-1,41.7-1c19.3,0,37.7-0.3,57-0.7c16-0.2,48.3,0.6,48.3,5.5
			c0,4.3-13.8,5.1-30.7,6c-19.3,1-45.6,1.5-65,1.1C1970.3,318.3,1952.1,315.8,1952.1,315.8L1952.1,315.8z M1960.9,311.8
			c-2.2-3.5,92.9-3.6,111.9-2.7c27.4,1.3,17.4,4.2-5,4.9c-16.6,0.7-36.2,2.2-52.8,2C2005.9,316.1,1963,315.3,1960.9,311.8
			L1960.9,311.8z"/>
		<path class="st3" d="M2003.1,312.4c0,0,2.7-0.2,6.9-0.4c2.1-0.1,4.5-0.1,7-0.2c2.6,0,5.3,0,7.9-0.1c1.3,0,2.7,0,4,0
			c1.3,0,2.6,0,3.9,0c2.5,0,4.9,0,7,0c4.1,0.1,6.9,0.2,6.9,0.2s-2.6,0.3-6.7,0.7c-2,0.2-4.4,0.3-7,0.5c-2.5,0.2-5.4,0.1-8.1,0.2
			c-1.4,0-2.8,0-4.2,0c-1.3,0-2.7-0.1-3.9-0.1c-2.6-0.1-4.9-0.2-7-0.3C2005.8,312.7,2003.1,312.4,2003.1,312.4L2003.1,312.4z"/>
	</g>
	<path d="M2404,652.3c0,30.2-161.3,54.7-360.3,54.7s-360.3-24.5-360.3-54.7"/>
</g>
<g id="Thumb">
	<g id="thumb">
		<defs>
			<rect id="SVGID_7_" x="1922" y="75" width="202" height="234"/>
		</defs>
		<clipPath id="SVGID_8_">
			<use xlink:href="#SVGID_7_"  style="overflow:visible;"/>
		</clipPath>
		<path class="st7" d="M1674.4,769.3c-0.7,12.7-2.4,104.5-1.3,121.4c2.3,35.1,8.9,69.1,40.1,89.3c30.4,19.6,60.6,38.5,96.5,45.3
			c16.5,3.2,32.6,7.3,48.6,12.6c4.5,1.5,38.5,9.1,50.2,17.6c16.6,12,34.5,21.6,52.6,31c19.6,10.1,39.7,19.4,59,30
			c19.4,10.6,38.2,21.5,61.3,19.1c23.1-2.4,43.4-13.3,65.4-19.9c22-6.7,44.1-13.3,66-20.3c21.8-7,44.1-13.2,65.3-22
			c16.2-6.7,31.5-15.4,47.5-22.4c3.6-2.2,7.2-4.7,10.4-7.6c15.1-13.8-0.4-30.8,3.6-47.6c3.4-14.2,12.8-24.5,21.7-35.5
			c15.5-19.1,12.2-36.3,7.4-58.7c-8.1-37.9,31.6-48.5,42.5-79.6c7.1-20.2,4-37.9-0.1-58.3c-0.5-2.4-0.9-4.8-1.4-7.2
			c-5.5-14.8-14.2-27.5-16.5-43.4c-2.2-15.1,1.6-31.2,6.6-45.3c6.5-18.4,13.1-36.2,5.7-55.6c-6.8-17.8-17.2-31.3-33.3-41.9
			c-15.6-10.3-32.6-18.5-50.8-23.1c-16.4-4.2-33.4-6.3-48.7-13.8c-35.5-17.2-70.8-24.7-82.4-27.7c-18.2-4.8-34.9-1-53.1-1.4
			c-12.8-0.3-25.1-1.8-37.8-1.2c-7.7,1.3-15.6,3.3-21.7,6.7c-8.4,4.6-25.2,3.3-20.3-2.4c4.1-10,8.9-19.7,12.2-30.1
			c5.2-16.5,8-33.9,12-50.8c4-16.8,6.8-33.8,10.7-50.5c2.4-10,12.8-42.9,13.6-43.6c14.4-23.6,14.5-54.2,15.9-81
			c1.7-30.6,1.7-61.3-1-91.8c-2.4-27.2-15-61.6-41-75.8c-27.8-15.2-62.7-8.2-76.7,21.4c-12.3,26.1-15.8,55-26.4,81.6
			c-7.8,19.6-17.8,38.5-27.6,57.4c-3.6,6.9-7.1,13.8-10.5,20.7c-7.1,14.4-13.2,28-15.7,44c-1.9,12.2-2.9,24.6-5.8,36.7
			c-3.1,13-7.1,26.6-12.9,38.7c-2.6,5.4-5.8,10.5-9.1,15.6c-3.3,8.7-6.8,17.4-11.6,25.3c-10.8,17.8-26.1,31.6-42.6,44.1
			c-42.9,32.4-86.7,61-117.2,106.5c-14.9,22.2-32.8,46.8-39.4,73c-6.1,24.3-8.1,50.7-8.3,75.7C1676,739.6,1675.2,754.3,1674.4,769.3
			"/>
	</g>
	<path d="M1922.8,307.9c0,13.9,43.1,25.2,96.3,25.2s96.4-11.3,96.4-25.2"/>
	<path class="st4" d="M2009,284.8c9,1.9,17.8,5,27,6.2c22.8,3.1,46.9,6.4,69.9,6.3c2.1,0,2.5,3.1,0.5,3.7c-12,3.3-23.8,2.3-36,0.7
		c-12-1.5-24.3-1.5-36.2-4c-11.7-2.4-22.9-6.7-34.4-10.1c-8-2.4-15.3-4.9-21.4-10.6c-0.7-0.7,0.2-1.9,1.1-1.4
		C1988.5,281.8,1998.7,282.6,2009,284.8z"/>
</g>
<g id="Bottom_1_">
	<g>
		<g id="little_2_">
			<defs>
				<rect id="SVGID_9_" x="-1541.2" y="891" width="681" height="184"/>
			</defs>
			<clipPath id="SVGID_10_">
				<use xlink:href="#SVGID_9_"  style="overflow:visible;"/>
			</clipPath>
			<path class="st8" d="M-1553.3,707.8c-0.7,12.7-2.4,104.5-1.3,121.4c2.3,35.1,8.9,69.1,40.1,89.3c30.4,19.6,60.6,38.5,96.5,45.3
				c16.5,3.2,32.6,7.3,48.6,12.6c4.5,1.5,38.5,9.1,50.2,17.6c16.6,12,34.5,21.6,52.6,31c19.6,10.1,39.7,19.4,59,30
				c19.4,10.6,38.2,21.5,61.3,19.1c23.1-2.4,43.4-13.3,65.4-19.9c22-6.7,44.1-13.3,66-20.3c21.8-7,44.1-13.2,65.3-22
				c16.2-6.7,31.5-15.4,47.5-22.4c3.6-2.2,7.2-4.7,10.4-7.6c15.1-13.8-0.4-30.8,3.6-47.6c3.4-14.2,12.8-24.5,21.7-35.5
				c15.5-19.1,12.2-36.3,7.4-58.7c-8.1-37.9,31.6-48.5,42.5-79.6c7.1-20.2,4-37.9-0.1-58.3c-0.5-2.4-0.9-4.8-1.4-7.2
				c-5.5-14.8-14.2-27.5-16.5-43.4c-2.2-15.1,1.6-31.2,6.6-45.3c6.5-18.4,13.1-36.2,5.7-55.6c-6.8-17.8-17.2-31.3-33.3-41.9
				c-15.6-10.3-32.6-18.5-50.8-23.1c-16.4-4.2-33.4-6.3-48.7-13.8c-35.5-17.2-72.8-2.6-108.5,7.4c-0.9,0.2-1.4-1.1-0.6-1.5
				c18.3-9.2,39-18.5,60-21.7c-11.3-3.2-21.7-8.9-33.3-12c-18.2-4.8-34.9-1-53.1-1.4c-12.8-0.3-25.1-1.8-37.8-1.2
				c-7.7,1.3-15.6,3.3-21.7,6.7c-8.4,4.6-25.2,3.3-20.3-2.4c4.1-10,8.9-19.7,12.2-30.1c5.2-16.5,8-33.9,12-50.8
				c4-16.8,6.8-33.8,10.7-50.5c2.4-10,12.8-42.9,13.6-43.6c14.4-23.6,14.5-54.2,15.9-81c1.7-30.6,1.7-61.3-1-91.8
				c-2.4-27.2-15-61.6-41-75.8c-27.8-15.2-62.7-8.2-76.7,21.4c-12.3,26.1-15.8,55-26.4,81.6c-10.7,26.7-25.4,52.3-38.1,78.1
				c-7.1,14.4-13.2,28-15.7,44c-1.9,12.2-2.9,24.6-5.8,36.7c-3.1,13-7.1,26.6-12.9,38.7c-2.6,5.4-5.8,10.5-9.1,15.6
				c-3.3,8.7-6.8,17.4-11.6,25.3c-10.8,17.8-26.1,31.6-42.6,44.1c-42.9,32.4-86.7,61-117.2,106.5c-14.9,22.2-32.8,46.8-39.4,73
				c-6.1,24.3-8.1,50.7-8.3,75.7C-1551.7,678.1-1552.5,692.8-1553.3,707.8"/>
		</g>
		<path class="st1" d="M-861,891c0-19.9-152-36.1-339.5-36.1s-339.6,16.2-339.6,36.1"/>
	</g>
	<g>
		<path class="st2" d="M-1395.6,903.3c-38.3-5.8-40.1-20-5.7-25.7c32.1-5.1,80.1-3.4,119-3.4c54.9,0,107.6-1.1,162.5-2.3
			c45.8-0.6,164.8-3.4,164.8,13.1c0,14.2-66.4,22.2-114.5,25c-54.9,3.4-130.1,5-185.4,3.6C-1343.5,911.5-1395.6,903.3-1395.6,903.3
			L-1395.6,903.3z M-1413.9,907.8c-42.1-7.8-44-26.6-6.3-34.2c35.2-6.8,88-4.5,130.7-4.5c60.3,0,118.1-1.5,178.5-3
			c50.3-0.8,181-4.5,181,17.4c0,18.9-72.9,29.5-125.7,33.3c-60.3,4.5-142.8,6.7-203.6,4.9C-1356.7,918.8-1413.9,907.9-1413.9,907.8
			L-1413.9,907.8z M-1348.1,893.4c-5.5-9.4,235.1-9.6,283.1-7.2c69.3,3.4,44.1,11.3-12.6,13.3c-42,2-86.1,2-128,1.5
			C-1228.7,901-1342.7,902.8-1348.1,893.4z M-1386.1,893.2c-6.7-16.6,285.7-17,343.9-12.7c84.1,6.1,53.5,20-15.3,23.4
			c-51,3.5-104.5,3.5-155.5,2.6C-1241.1,906.6-1379.5,909.8-1386.1,893.2L-1386.1,893.2z"/>
		<path class="st3" d="M-1279.7,892.7l8.8-0.5c5.6-0.3,13.6-0.7,23.3-1.1l15.6-0.3c5.5-0.1,11.4-0.3,17.4-0.2c6,0,12.3,0,18.6,0.1
			c6.3,0,12.8,0.2,19.2,0.2l19.2,0.4l18.6,0.4l17.3,0.3c5.5,0.2,10.7,0.1,15.5,0.1c4.8,0,9.2,0.1,13.1,0l10.1-0.3l8.8-0.2l-8.8,0.6
			l-10.1,0.7c-3.9,0.2-8.3,0.3-13.2,0.4c-4.8,0.1-10.1,0.3-15.6,0.3l-17.4,0c-12.1-0.1-24.9-0.3-37.8-0.5
			c-6.4-0.1-12.8-0.3-19.2-0.3l-18.6-0.3c-6-0.1-11.8-0.1-17.3-0.1l-15.6-0.1l-23.3,0.2L-1279.7,892.7L-1279.7,892.7z"/>
	</g>
	<path class="st4" d="M-1191,1028.7c-8.7-1.7-18.7-9.8-26.9-13.2c-7.6-3.2-14.4-7.9-21.6-11.9c-14.6-8-27.2-15.3-40.3-25.5
		c-1.2-0.9,0.3-2.7,1.5-2c13.1,7.7,26.7,13.1,40.5,18.2c0.5-3.3,0.8-6.6,1.5-9.8c0.2-0.8,1.5-0.8,1.7,0c0.9,4,2.4,7.8,3.3,11.8
		c0,0.2,0,0.3,0,0.4c0.6,0.2,1.3,0.5,1.9,0.7c-0.4-6.1,0.6-12.4,2.4-18c0.4-1.2,2-1.2,2.4,0c2.1,6.9,1.7,14.3,4,21.2
		c0.7,0.3,1.5,0.5,2.2,0.8c-1.6-8.4-0.3-18.7,1.5-25.6c0.3-1.1,2-1.1,2.3,0c1.5,5.4,1.9,10.9,3.3,16.3c1.1,4.5,3,8.9,3.8,13.4
		c0.8,0.3,1.6,0.6,2.3,0.9c0.1,0.1,0.3,0.1,0.4,0.2c-1.2-9.4,0-19.9,0.8-28.1c0.2-1.8,2.6-1.8,2.8,0c0.9,8,1.9,16.3,4.8,23.9
		c1.2,3.1,2.3,6.8,4.4,9.4c0.7,0.8,1.2,1.2,1.5,1.5c0.1,0.1,0.3,0.1,0.4,0.2c0.2,0,0.5,0,0.7,0c-0.7-3.1-1.4-6.1-1.9-9.2
		c-1.7-8.6,0.2-17.5,0.8-26.1c0.2-2.5,3.4-3.6,4.8-1.3c6.5,11.1,10.7,30.4,11.4,43C-1173.9,1030.1-1183.7,1030.1-1191,1028.7z"/>
	<path class="st4" d="M-1160.8,1037.4c-0.4,3.9-5.5,3.9-6,0c-1.7-14,0.2-27.9-2.4-42c-0.3-1.4,1.8-2,2.2-0.6
		C-1163.3,1008-1159.3,1023.6-1160.8,1037.4z"/>
	<path class="st4" d="M-1155.9,1036.9c0.5-9.5,0.2-19.1-0.8-28.5c-0.2-1.6,2.3-1.8,2.7-0.4c2.4,9.5,3.7,19.1,4,28.9
		C-1149.9,1040.7-1156.1,1040.7-1155.9,1036.9z"/>
	<path class="st4" d="M-1140.9,1037.4c-0.5-5.4,0.1-10.8-0.5-16.2c-0.2-1.9,2.9-2.3,3.3-0.5c1.2,5.3,1.2,10.7,2.4,15.9
		C-1134.8,1040.5-1140.5,1041.3-1140.9,1037.4z"/>
	<path class="st4" d="M-1129.7,1034.7c-0.9-3.5,0.2-7.1-0.8-10.6c-0.5-2,2.5-3.4,3.4-1.4c1.4,3.4,1.6,7.1,2.3,10.7
		C-1124.2,1036.5-1128.9,1037.9-1129.7,1034.7z"/>
	<path class="st4" d="M-1116.8,1030.3c-0.5-1.9-0.6-3.7-0.2-5.6c0.3-1.4,2.2-0.9,2.4,0.3c0.2,1.4,0.7,2.6,1.5,3.7
		C-1111.5,1031.1-1116,1033.3-1116.8,1030.3z"/>
</g>
<g id="Middle_1_">
	<g id="middle_2_">
		<defs>
			<rect id="SVGID_11_" x="-1556.5" y="591.5" width="745" height="300"/>
		</defs>
		<clipPath id="SVGID_12_">
			<use xlink:href="#SVGID_11_"  style="overflow:visible;"/>
		</clipPath>
		<path class="st9" d="M-1553.6,708.3c-0.7,12.7-2.4,104.5-1.3,121.4c2.3,35.1,8.9,69.1,40.1,89.3c30.4,19.6,60.6,38.5,96.5,45.3
			c16.5,3.2,32.6,7.3,48.6,12.6c4.5,1.5,38.5,9.1,50.2,17.6c16.6,12,34.5,21.6,52.6,31c19.6,10.1,39.7,19.4,59,30
			c19.4,10.6,38.2,21.5,61.3,19.1c23.1-2.4,43.4-13.3,65.4-19.9c22-6.7,44.1-13.3,66-20.3c21.8-7,44.1-13.2,65.3-22
			c16.2-6.7,31.5-15.4,47.5-22.4c3.6-2.2,7.2-4.7,10.4-7.6c15.1-13.8-0.4-30.8,3.6-47.6c3.4-14.2,12.8-24.5,21.7-35.5
			c15.5-19.1,12.2-36.3,7.4-58.7c-8.1-37.9,31.6-48.5,42.5-79.6c7.1-20.2,4-37.9-0.1-58.3c-0.5-2.4-0.9-4.8-1.4-7.2
			c-5.5-14.8-14.2-27.5-16.5-43.4c-2.2-15.1,1.6-31.2,6.6-45.3c6.5-18.4,13.1-36.2,5.7-55.6c-6.8-17.8-17.2-31.3-33.3-41.9
			c-15.6-10.3-32.6-18.5-50.8-23.1c-16.4-4.2-33.4-6.3-48.7-13.8c-35.5-17.2-72.8-2.6-108.5,7.4c-0.9,0.2-1.4-1.1-0.6-1.5
			c18.3-9.2,39-18.5,60-21.7c-11.3-3.2-21.7-8.9-33.3-12c-18.2-4.8-34.9-1-53.1-1.4c-12.8-0.3-25.1-1.8-37.8-1.2
			c-7.7,1.3-15.6,3.3-21.7,6.7c-8.4,4.6-25.2,3.3-20.3-2.4c4.1-10,8.9-19.7,12.2-30.1c5.2-16.5,8-33.9,12-50.8
			c4-16.8,6.8-33.8,10.7-50.5c2.4-10,12.8-42.9,13.6-43.6c14.4-23.6,14.5-54.2,15.9-81c1.7-30.6,1.7-61.3-1-91.8
			c-2.4-27.2-15-61.6-41-75.8c-27.8-15.2-62.7-8.2-76.7,21.4c-12.3,26.1-15.8,55-26.4,81.6c-10.7,26.7-25.4,52.3-38.1,78.1
			c-7.1,14.4-13.2,28-15.7,44c-1.9,12.2-2.9,24.6-5.8,36.7c-3.1,13-7.1,26.6-12.9,38.7c-2.6,5.4-5.8,10.5-9.1,15.6
			c-3.3,8.7-6.8,17.4-11.6,25.3c-10.8,17.8-26.1,31.6-42.6,44.1c-42.9,32.4-86.7,61-117.2,106.5c-14.9,22.2-32.8,46.8-39.4,73
			c-6.1,24.3-8.1,50.7-8.3,75.7C-1552,678.6-1552.8,693.3-1553.6,708.3"/>
	</g>
	<path d="M-823,592.5c0-22.9-161.4-41.5-360.5-41.5s-360.6,18.6-360.6,41.5"/>
	<g>
		<path class="st2" d="M-1447.5,609.4c-43-7.3-11.2-25,27.3-32.1c36-6.4,90-4.2,133.7-4.2c61.7,0,120.8-1.4,182.5-2.8
			c51.4-0.7,185.1-4.2,185.1,16.3c0,17.7-74.5,27.6-128.5,31.1c-61.7,4.2-146.2,7.4-208.2,4.5
			C-1396.1,615.8-1447.5,609.5-1447.5,609.4L-1447.5,609.4z M-1479.5,619.2c-51-10.7-27.7-37.1,17.9-47.5
			c42.6-9.4,99.1-4.5,150.8-4.5c73.1,0,143.1-2.1,216.2-4.2c60.9-1,219.2-6.3,219.3,24c0,22.7-5.5,37.2-113.9,46.1
			c-73.1,6.3-232.6,11.8-306.2,9.3C-1413.3,638.4-1479.5,619.2-1479.5,619.2L-1479.5,619.2z M-1461.3,614.5
			c-47.9-9.7-30.9-32.8,12.1-42.2c40.1-8.5,100.2-5.7,148.9-5.7c68.7,0,134.5-1.9,203.2-3.8c57.2-0.9,206.1-5.7,206.1,21.7
			c0,23.6-38.8,37.5-143.1,41.5c-69.1,2.6-162.7,8.3-231.9,6C-1377,628.6-1461.3,614.5-1461.3,614.5L-1461.3,614.5z M-1378.3,595.5
			c-6.1-11.8,281.8-10.6,335.7-7.6c77.8,4.3,49.5,14.1-14.1,16.6c-47.1,2.5-96.6,2.5-143.7,1.8
			C-1226.5,606.4-1372.2,607.3-1378.3,595.5L-1378.3,595.5z M-1425.8,595.5c-7.5-20.7,343.3-19.9,408.8-14.5
			c94.5,7.6,60.1,24.9-17.2,29.2c-57.2,4.3-117.4,4.3-174.6,3.2C-1240.3,613.4-1418.3,616.2-1425.8,595.5L-1425.8,595.5z"/>
		<path class="st3" d="M-1314.7,596.2l10.9-0.3c7-0.1,16.9-0.4,28.8-0.5c6,0,12.4-0.1,19.3-0.3c6.8-0.1,14-0.3,21.5-0.5l23-0.4
			l23.7-0.3c15.9-0.1,31.8-0.3,46.7-0.3h21.5c6.8,0,13.3,0.1,19.3,0.2c11.9,0.2,21.9,0.5,28.8,0.6l10.9,0.3l-10.9,0.3
			c-7,0.1-16.9,0.4-28.8,0.5c-6,0.1-12.4,0.1-19.3,0.3l-21.5,0.5c-14.9,0.3-30.8,0.5-46.7,0.7c-7.9,0.1-15.9,0.1-23.7,0.2l-23,0.1
			h-21.5c-6.8,0-13.3-0.1-19.3-0.2c-11.9-0.2-21.9-0.5-28.8-0.6C-1310.8,596.3-1314.7,596.2-1314.7,596.2L-1314.7,596.2z"/>
	</g>
	<path d="M-1540.4,890.5c0,19.9,152,36,339.5,36s339.6-16.1,339.6-36"/>
	<path class="st4" d="M-1151.2,714.9c-18.7,0.5-35.6-9.1-53-12.1c-25.2-4.2-44.3-11.3-65.6-19.6c-1.8-0.7-0.8-2.7,1.6-2.2
		c17,3.6,33.5,7.6,50.4,11.1c0.6-3,1.5-5.9,2.4-8.8c0.2-0.6,2-0.6,2.2,0c0.8,3.2,1.4,6.5,1.9,9.7c2.3,0,4.6-0.1,6.9-0.2
		c-0.7-8-0.5-15.7,0.8-23.8c0.1-0.7,2-0.7,2.1,0c0.8,5.3,0.8,10.9,3.1,16c1.1,2.4,2.6,4.7,3.6,7c1-0.1,2-0.2,2.9-0.3
		c-2.3-12.1-1.1-24.8,3.6-36.4c0.4-0.9,2.9-0.7,2.8,0.2c-1.1,8-0.2,15.9,2.2,23.8c1,3.4,2.7,6.9,3.9,10.4c0.8-0.2,1.7-0.4,2.5-0.6
		c-1.5-13.1,3.2-26.3,6.6-39.3c0.2-0.9,2.4-0.5,2.6,0.2c1.9,7.9,2,16.3,2.3,24.3c0.1,2.7,0.5,5.3,1,8c3-3,3.7-6,4.2-9.1
		c0.1-0.6,0.2-1.3,0.3-1.9c0,0,0-0.1,0-0.1c1.2-8,2.4-15.9,5-23.8c0.4-1.1,3.1-0.7,3.3,0.2c2.3,10.5,2,21.2,2.4,31.8
		c0.4,10.6,3.6,20.8,5.1,31.3C-1143.8,713.2-1147.6,714.8-1151.2,714.9z"/>
	<path class="st4" d="M-1135.7,711.7c-0.3-20.9-6-42.6-3.4-63.3c0.2-1.4,2.5-2,2.8-0.4c3.5,20.7,8.7,42.6,8.1,63.7
		C-1128.4,716.3-1135.6,716.3-1135.7,711.7z"/>
	<path class="st4" d="M-1121.8,708.6c-1.2-6.2-0.7-12.1-0.5-18.3c0.2-5.8-0.6-11.5-0.4-17.2c0.1-2,2.9-1.9,3.1,0
		c0.6,5.8,2.4,11.4,2.6,17.2c0.2,5.6,0.1,11.2,1.3,16.6C-1114.8,710.9-1121,712.6-1121.8,708.6z"/>
	<path class="st4" d="M-1107.4,701.5c-0.6-7-0.6-14-1.2-20.9c-0.2-2,3.1-2.4,3.5-0.5c1.6,6.8,2.3,13.7,3.5,20.6
		C-1100.8,705-1107.1,705.8-1107.4,701.5z"/>
	<path class="st4" d="M-1093.8,701.1c0-5.2,0.5-10.5-0.5-15.7c-0.5-2.4,2.9-3.3,3.6-1c1.7,5.4,1.8,11.1,2.3,16.7
		C-1088.1,704.5-1093.9,704.6-1093.8,701.1z"/>
	<path class="st4" d="M-1079.9,697.5c-0.7-4.4-0.1-8.7,0.3-13.1c0.2-2.3,3.4-2.3,3.6,0c0.3,3.9,0.2,7.8,1.3,11.6
		C-1073.7,699.5-1079.4,700.9-1079.9,697.5z"/>
	<path class="st4" d="M-1064.8,693c0-3.2,0.1-6.3-0.3-9.5c-0.3-2.3,3.3-2.6,3.9-0.5c0.9,3.3,1.2,6.7,1.7,10
		C-1059.1,696.3-1064.8,696.5-1064.8,693z"/>
	<path class="st4" d="M-1153.1,826.1c-0.6,10.7-4.1,23.5-17.8,19.7c-8.4-2.3-15.4-6.4-23-10.5c-10.4-5.6-21.6-9.7-32.4-14.3
		c-18.1-7.8-36.4-17.2-51.5-29.9c-1.1-1,0.3-2.8,1.6-2c16.8,10.8,35.9,16.2,54.6,22.2c-0.4-5-1-9.8-0.3-14.9
		c0.7-5.3,1.6-10.5,2.3-15.7c0.2-1.2,2.1-1.1,2.3,0c1.3,6.6,0.4,13.5,2,19.9c1.2,4.8,3.1,9,3.3,14c0.6,0.2,1.2,0.4,1.8,0.6
		c-0.9-15.5,2.4-30.5,4.7-45.9c0.2-1.2,1.9-0.8,2,0.3c0.8,8.2,1,16.5,2,24.7c1,8.5,3.6,16.8,3,25.4c1.2,0.5,2.4,1,3.6,1.6
		c-0.8-7.2-0.2-14.8-0.3-21.8c0-9.4,0.4-18.4,3.1-27.5c0.6-2,3.9-1.7,3.7,0.5c-1.8,17.8,3.1,38.2,7.8,55.3c0.1,0.5,0.2,0.9,0.2,1.4
		c0.5,0.3,1.1,0.6,1.7,1c-4.3-20.6-4.2-40.4-1.8-61.6c0.2-1.6,2.3-1.6,2.5,0c1.5,12.1,2.9,24.2,5.8,36.1c2.1,8.6,5.5,17.3,7.1,26
		c0.7-6.1,0.5-12.3,0.4-18.4c-0.3-14.6-4.1-29-2.2-43.6c0.3-2,3.5-2.9,3.9-0.5C-1159.8,786.7-1152,806.7-1153.1,826.1z"/>
	<path class="st4" d="M-1143.1,845.2c-3.6-20.8-1.5-43.8-0.6-64.8c0.1-1.6,2.3-1.6,2.4,0c0.9,21.3,4.1,42.5,6.2,63.7
		C-1134.6,848.7-1142.3,849.8-1143.1,845.2z"/>
	<path class="st4" d="M-1131.2,848.4c-0.3-14.5,0.4-28.8-1.5-43.3c-0.2-1.4,2-1.6,2.4-0.3c3.7,14.1,6.3,28.9,6.1,43.6
		C-1124.3,852.9-1131.1,852.9-1131.2,848.4z"/>
	<path class="st4" d="M-1114.3,844.1c0.5-10.8,2.9-22-0.9-32.5c-0.5-1.4,1.7-2.3,2.4-1c5.2,10.3,4.6,22.2,4.9,33.5
		C-1107.8,848.2-1114.4,848.2-1114.3,844.1z"/>
	<path class="st4" d="M-1094.6,838.9c-0.2,4.1-6.2,4.1-6.4,0c-0.3-7.9,0.7-15.8-0.1-23.8c-0.3-2.6,4-3.2,4.6-0.6
		C-1094.8,822.5-1094.2,830.8-1094.6,838.9z"/>
	<path class="st4" d="M-1088,831.3c0.3-5.1,0.8-10.1,0.3-15.2c-0.2-2.6,4-3.1,4.5-0.6c1,5.2,1.1,10.5,1.4,15.8
		C-1081.7,835.3-1088.2,835.3-1088,831.3z"/>
	<path class="st4" d="M-1073.8,822.8c0-3.2,0.2-6.4-0.9-9.4c-0.9-2.4,3-4,4.1-1.7c1.7,3.5,1.8,7.3,2.2,11.1
		C-1068.2,826.2-1073.8,826.2-1073.8,822.8z"/>
	<path class="st4" d="M-1175.3,926c-17.7-1.9-38.4-8.8-54.6-14.9c-20-7.5-39.3-16.8-58.3-25.9c-1.4-0.7-0.2-2.4,1.3-1.8
		c12.9,5.3,25.9,9.8,39.3,13.5c-0.5-4.6,1.3-9.9,3-14c0.3-0.6,1.5-0.8,1.7,0c0.4,2.4,0.3,4.8,0.5,7.2c0.1,2.6,0.8,4.8,1.5,7.3
		c0.1,0.5,0.1,0.9,0,1.3c1.5,0.4,3.1,0.8,4.6,1.2c-1-8.4,0.9-17.4,2-25.7c0.2-1.4,2.4-1.4,2.5,0c0.7,5.1,1.6,10.1,2.2,15.2
		c0.5,4.3,2.4,8.3,1.6,12.5c0.8,0.2,1.6,0.4,2.4,0.6c0.4,0.1,0.9,0.2,1.3,0.3c-0.3-3.9,0.4-7.9,0.9-11.8c0.9-7.2,2.3-14.3,2.8-21.5
		c0.1-1.5,2.5-1.4,2.7,0c1.9,11.8,0.3,24.8,5.4,36.1c0,0,0,0.1,0,0.1c0.8,0.2,1.7,0.4,2.5,0.6c-3.2-11.6-1.1-26,2.6-36.4
		c0.3-0.8,1.7-0.8,2,0c1.8,5.9,1.1,12.1,1.9,18.2c1,7.7,3.6,14.2,7.2,21.3c0.1,0.2,0.2,0.4,0.2,0.6c0.1,0,0.2,0.1,0.3,0.1
		c-1.5-4.6-1.5-9.5-1.6-14.3c-0.2-7.9-1-16,0.5-23.8c0.2-1.1,2.3-1.1,2.6,0c2.6,11.9,4.6,22.8,9.9,33.7c-0.6-2.7-1.2-5.3-1.7-7.9
		c-1.1-6.1,0.7-12.7,1.4-18.7c0.3-2.8,4.9-2.8,5.3,0c1.8,13.6,6.8,27,10.2,40.3C-1168.4,922.3-1170.9,926.4-1175.3,926z"/>
	<path class="st4" d="M-1157.9,924c-5.7-13.6-4.3-27.3-7.4-41.4c-0.2-1.1,1.5-1.6,1.9-0.5c2.6,7.5,4,15.2,6.1,22.9
		c1.7,6.2,4.7,11.9,5.7,18.2C-1151.1,926.7-1156.7,926.8-1157.9,924z"/>
	<path class="st4" d="M-874.4,755.2c-7,11.7-8.6,25.6-16.9,36.6c-2.4,3.2-6.9-0.3-4.3-3.3c8.6-10.1,11.8-23.6,19.8-34.1
		C-875.2,753.5-873.8,754.3-874.4,755.2z"/>
	<path class="st4" d="M-907.7,796.4c4.2-6.6,7.3-13.8,12.2-20c0.5-0.6,1.4,0.2,1,0.8c-3.9,6.8-5.9,14.5-9.3,21.5
		C-905.1,801.3-909.2,798.9-907.7,796.4z"/>
	<path class="st4" d="M-919,892.7c-1.6,4.8-3.9,9.2-6.3,13.6c-1.3,2.5-5.3,0-3.7-2.2c2.9-3.9,5.8-7.9,8.1-12.3
		C-920.4,890.8-918.6,891.6-919,892.7z"/>
	<path class="st4" d="M-917.8,900.5c1.7-3.2,4.4-6,6.3-9c2.2-3.4,4.1-6.9,5.3-10.7c0.5-1.4,2.5-0.8,2.2,0.6
		c-1.6,7.3-5,16.5-10.1,22.1C-915.9,905.4-919,902.8-917.8,900.5z"/>
	<path class="st4" d="M-901.6,897.1c-1.4,2.1-5.3,0.8-4.3-1.8c4-9.8,11-18.2,15-28.1c0.4-1,1.7-0.6,1.5,0.4
		C-891.2,877.7-895.8,888.7-901.6,897.1z"/>
	<path class="st4" d="M-889.7,890.6c-1.1,2.1-4.6,0.6-3.8-1.6c3.6-10.7,13.2-18.2,15.5-29.6c0.2-0.9,1.6-0.7,1.6,0.2
		C-877.2,871-884.7,880.7-889.7,890.6z"/>
	<path class="st4" d="M-877,779.7c4.8-13.1,13.1-24.8,15.1-38.8c0.2-1.2,2.2-0.9,2.2,0.3c-0.5,14.2-7.2,26.9-12,39.9
		C-872.9,784.5-878.2,783-877,779.7z"/>
	<path class="st4" d="M-859,770.5c-2.2,3.2-6.8,0.4-5.1-3c6.3-12.9,16.8-24.9,17.3-39.9c0-1.2,1.9-1.3,1.9,0
		C-844.8,742.7-850.6,758.1-859,770.5z"/>
	<path class="st4" d="M-840.8,751.8c-1.7,2.8-5.7,0.4-4.3-2.5c5-10.6,11.2-19.6,12.7-31.5c0.1-0.9,1.6-1.3,1.8-0.2
		C-828.4,729.2-834.7,742.1-840.8,751.8z"/>
	<path class="st4" d="M-834.5,602.7c2.3,13.3-3.4,25.4-11.5,37.6c-1.2,1.8-5.6,1.2-4.8-0.8c4.5-12.4,11.3-24.3,14.3-37
		C-836.4,601.7-834.7,602-834.5,602.7z"/>
	<path class="st4" d="M-846.1,617.3c-3.9,10-5.6,20.4-13.9,29.4c-2,2.2-6.9,0.3-5.3-2c6.5-9.1,12-18.4,17.4-27.8
		C-847.5,616.3-845.8,616.6-846.1,617.3z"/>
	<path class="st4" d="M-860.6,623.5c-2.2,8.1-9.5,17.7-21,22.8c-2.6,1.2-5.1-1.2-3.3-2.5c9.1-6.3,18.6-12.4,22.3-20.6
		C-862.2,622.5-860.4,622.8-860.6,623.5z"/>
	<path class="st4" d="M-899.9,643.8c4.9-5.8,11.5-10.6,14.7-17.4c0.5-1,2.2-0.7,1.9,0.5c-2.3,7.4-8,12.8-12.4,19.1
		C-897.5,648.4-901.8,646-899.9,643.8z"/>
	<path class="st4" d="M-1141,923.2c-4-9.9-7.4-19.9-6.2-30.5c0.2-1.6,2.7-1.7,2.8,0c0.4,10,5,19.1,9.6,28.1
		C-1132.7,924.9-1139.3,927.4-1141,923.2z"/>
	<path class="st4" d="M-1128.7,923.7c-2.4-6.5-1.4-13.5-3.6-20.1c-0.6-1.7,2.5-3,3.3-1.3c3.1,6.4,3.3,13.4,6.1,19.9
		C-1121.5,925.5-1127.5,927.1-1128.7,923.7z"/>
	<path class="st4" d="M-1119.3,923.3c-0.7-4.1-1.4-8.2-2.5-12.3c-0.5-2,2.5-2.6,3.3-0.8c1.7,3.9,3,7.8,4.2,11.8
		C-1113.4,925.1-1118.8,926.3-1119.3,923.3z"/>
	<path class="st4" d="M-1106.6,919.3c-1.1-1.9-1.1-4.2-2-6.2c-0.8-1.6,1.6-3,2.7-1.4c1.3,1.9,2.7,4.4,3,6.7
		C-1102.7,920.2-1105.7,920.8-1106.6,919.3z"/>
</g>
<g id="Index_1_">
	<g id="flash_1_">
		<defs>
			<rect id="SVGID_13_" x="-1546" y="252" width="728" height="344"/>
		</defs>
		<clipPath id="SVGID_14_">
			<use xlink:href="#SVGID_13_"  style="overflow:visible;"/>
		</clipPath>
		<path class="st10" d="M-1553.6,712.3c-0.7,12.7-2.4,104.5-1.3,121.4c2.3,35.1,8.9,69.1,40.1,89.3c30.4,19.6,60.6,38.5,96.5,45.3
			c16.5,3.2,32.6,7.3,48.6,12.6c4.5,1.5,38.5,9.1,50.2,17.6c16.6,12,34.5,21.6,52.6,31c19.6,10.1,39.7,19.4,59,30
			c19.4,10.6,38.2,21.5,61.3,19.1c23.1-2.4,43.4-13.3,65.4-19.9c22-6.7,44.1-13.3,66-20.3c21.8-7,44.1-13.2,65.3-22
			c16.2-6.7,31.5-15.4,47.5-22.4c3.6-2.2,7.2-4.7,10.4-7.6c15.1-13.8-0.4-30.8,3.6-47.6c3.4-14.2,12.8-24.5,21.7-35.5
			c15.5-19.1,12.2-36.3,7.4-58.7c-8.1-37.9,31.6-48.5,42.5-79.6c7.1-20.2,4-37.9-0.1-58.3c-0.5-2.4-0.9-4.8-1.4-7.2
			c-5.5-14.8-14.2-27.5-16.5-43.4c-2.2-15.1,1.6-31.2,6.6-45.3c6.5-18.4,13.1-36.2,5.7-55.6c-6.8-17.8-17.2-31.3-33.3-41.9
			c-15.6-10.3-32.6-18.5-50.8-23.1c-16.4-4.2-33.4-6.3-48.7-13.8c-35.5-17.2-72.8-2.6-108.5,7.4c-0.9,0.2-1.4-1.1-0.6-1.5
			c18.3-9.2,39-18.5,60-21.7c-11.3-3.2-21.7-8.9-33.3-12c-18.2-4.8-34.9-1-53.1-1.4c-12.8-0.3-25.1-1.8-37.8-1.2
			c-7.7,1.3-15.6,3.3-21.7,6.7c-8.4,4.6-25.2,3.3-20.3-2.4c4.1-10,8.9-19.7,12.2-30.1c5.2-16.5,8-33.9,12-50.8
			c4-16.8,6.8-33.8,10.7-50.5c2.4-10,12.8-42.9,13.6-43.6c14.4-23.6,14.5-54.2,15.9-81c1.7-30.6,1.7-61.3-1-91.8
			c-2.4-27.2-15-61.6-41-75.8c-27.8-15.2-62.7-8.2-76.7,21.4c-12.3,26.1-15.8,55-26.4,81.6c-10.7,26.7-25.4,52.3-38.1,78.1
			c-7.1,14.4-13.2,28-15.7,44c-1.9,12.2-2.9,24.6-5.8,36.7c-3.1,13-7.1,26.6-12.9,38.7c-2.6,5.4-5.8,10.5-9.1,15.6
			c-3.3,8.7-6.8,17.4-11.6,25.3c-10.8,17.8-26.1,31.6-42.6,44.1c-42.9,32.4-86.7,61-117.2,106.5c-14.9,22.2-32.8,46.8-39.4,73
			c-6.1,24.3-8.1,50.7-8.3,75.7C-1552,682.6-1552.8,697.3-1553.6,712.3"/>
	</g>
	<path d="M-1112.5,252.1c0-5.8-43.1-10.5-96.3-10.5c-53.2,0-96.3,4.8-96.3,10.6"/>
	<g>
		<path class="st2" d="M-1285.9,259.7c-15.2-2.5-15.8-8.7-2.3-11.2c12.7-2.2,31.7-1.5,47-1.5c21.7,0,42.5-0.5,64.3-1
			c18.1-0.3,54.5,0.8,54.5,8c0,6.2-15.6,7.4-34.6,8.6c-21.7,1.5-51.4,2.2-73.3,1.6C-1265.3,263.3-1285.9,259.7-1285.9,259.7
			L-1285.9,259.7z M-1275.9,258.8c-13.4-1.8-14-6-2-7.8c11.2-1.5,28.1-1,41.7-1c19.3,0,37.7-0.3,57-0.7c16-0.2,48.3,0.6,48.3,5.5
			c0,4.3-13.8,5.1-30.7,6c-19.3,1-45.6,1.5-65,1.1C-1257.7,261.3-1275.9,258.8-1275.9,258.8L-1275.9,258.8z M-1267.1,254.8
			c-2.2-3.5,92.9-3.6,111.9-2.7c27.4,1.3,17.4,4.2-5,4.9c-16.6,0.7-36.2,2.2-52.8,2C-1222.1,259.1-1265,258.3-1267.1,254.8
			L-1267.1,254.8z"/>
		<path class="st3" d="M-1224.9,255.4c0,0,2.7-0.2,6.9-0.4c2.1-0.1,4.5-0.1,7-0.2c2.6,0,5.3,0,7.9-0.1c1.3,0,2.7,0,4,0
			c1.3,0,2.6,0,3.9,0c2.5,0,4.9,0,7,0c4.1,0.1,6.9,0.2,6.9,0.2s-2.6,0.3-6.7,0.7c-2,0.2-4.4,0.3-7,0.5c-2.5,0.2-5.4,0.1-8.1,0.2
			c-1.4,0-2.8,0-4.2,0c-1.3,0-2.7-0.1-3.9-0.1c-2.6-0.1-4.9-0.2-7-0.3C-1222.2,255.7-1224.9,255.4-1224.9,255.4L-1224.9,255.4z"/>
	</g>
	<path d="M-824,595.3c0,30.2-161.3,54.7-360.3,54.7s-360.3-24.5-360.3-54.7"/>
</g>
<g id="Thumb_1_">
	<g id="thumb_2_">
		<defs>
			<rect id="SVGID_15_" x="-1306" y="18" width="202" height="234"/>
		</defs>
		<clipPath id="SVGID_16_">
			<use xlink:href="#SVGID_15_"  style="overflow:visible;"/>
		</clipPath>
		<path class="st11" d="M-1553.6,712.3c-0.7,12.7-2.4,104.5-1.3,121.4c2.3,35.1,8.9,69.1,40.1,89.3c30.4,19.6,60.6,38.5,96.5,45.3
			c16.5,3.2,32.6,7.3,48.6,12.6c4.5,1.5,38.5,9.1,50.2,17.6c16.6,12,34.5,21.6,52.6,31c19.6,10.1,39.7,19.4,59,30
			c19.4,10.6,38.2,21.5,61.3,19.1c23.1-2.4,43.4-13.3,65.4-19.9c22-6.7,44.1-13.3,66-20.3c21.8-7,44.1-13.2,65.3-22
			c16.2-6.7,31.5-15.4,47.5-22.4c3.6-2.2,7.2-4.7,10.4-7.6c15.1-13.8-0.4-30.8,3.6-47.6c3.4-14.2,12.8-24.5,21.7-35.5
			c15.5-19.1,12.2-36.3,7.4-58.7c-8.1-37.9,31.6-48.5,42.5-79.6c7.1-20.2,4-37.9-0.1-58.3c-0.5-2.4-0.9-4.8-1.4-7.2
			c-5.5-14.8-14.2-27.5-16.5-43.4c-2.2-15.1,1.6-31.2,6.6-45.3c6.5-18.4,13.1-36.2,5.7-55.6c-6.8-17.8-17.2-31.3-33.3-41.9
			c-15.6-10.3-32.6-18.5-50.8-23.1c-16.4-4.2-33.4-6.3-48.7-13.8c-35.5-17.2-70.8-24.7-82.4-27.7c-18.2-4.8-34.9-1-53.1-1.4
			c-12.8-0.3-25.1-1.8-37.8-1.2c-7.7,1.3-15.6,3.3-21.7,6.7c-8.4,4.6-25.2,3.3-20.3-2.4c4.1-10,8.9-19.7,12.2-30.1
			c5.2-16.5,8-33.9,12-50.8c4-16.8,6.8-33.8,10.7-50.5c2.4-10,12.8-42.9,13.6-43.6c14.4-23.6,14.5-54.2,15.9-81
			c1.7-30.6,1.7-61.3-1-91.8c-2.4-27.2-15-61.6-41-75.8c-27.8-15.2-62.7-8.2-76.7,21.4c-12.3,26.1-15.8,55-26.4,81.6
			c-7.8,19.6-17.8,38.5-27.6,57.4c-3.6,6.9-7.1,13.8-10.5,20.7c-7.1,14.4-13.2,28-15.7,44c-1.9,12.2-2.9,24.6-5.8,36.7
			c-3.1,13-7.1,26.6-12.9,38.7c-2.6,5.4-5.8,10.5-9.1,15.6c-3.3,8.7-6.8,17.4-11.6,25.3c-10.8,17.8-26.1,31.6-42.6,44.1
			c-42.9,32.4-86.7,61-117.2,106.5c-14.9,22.2-32.8,46.8-39.4,73c-6.1,24.3-8.1,50.7-8.3,75.7
			C-1552,682.6-1552.8,697.3-1553.6,712.3"/>
	</g>
	<path d="M-1305.2,250.9c0,13.9,43.1,25.2,96.3,25.2s96.4-11.3,96.4-25.2"/>
	<path class="st4" d="M-1219,227.8c9,1.9,17.8,5,27,6.2c22.8,3.1,46.9,6.4,69.9,6.3c2.1,0,2.5,3.1,0.5,3.7c-12,3.3-23.8,2.3-36,0.7
		c-12-1.5-24.3-1.5-36.2-4c-11.7-2.4-22.9-6.7-34.4-10.1c-8-2.4-15.3-4.9-21.4-10.6c-0.7-0.7,0.2-1.9,1.1-1.4
		C-1239.5,224.8-1229.3,225.6-1219,227.8z"/>
</g>
<g id="Bottom_2_">
	<g>
		<g id="little_3_">
			<defs>
				<rect id="SVGID_17_" x="1.8" y="-609" width="681" height="184"/>
			</defs>
			<clipPath id="SVGID_18_">
				<use xlink:href="#SVGID_17_"  style="overflow:visible;"/>
			</clipPath>
			<path class="st12" d="M-10.3-792.2c-0.7,12.7-2.4,104.5-1.3,121.4c2.3,35.1,8.9,69.1,40.1,89.3c30.4,19.6,60.6,38.5,96.5,45.3
				c16.5,3.2,32.6,7.3,48.6,12.6c4.5,1.5,38.5,9.1,50.2,17.6c16.6,12,34.5,21.6,52.6,31c19.6,10.1,39.7,19.4,59,30
				c19.4,10.6,38.2,21.5,61.3,19.1c23.1-2.4,43.4-13.3,65.4-19.9c22-6.7,44.1-13.3,66-20.3c21.8-7,44.1-13.2,65.3-22
				c16.2-6.7,31.5-15.4,47.5-22.4c3.6-2.2,7.2-4.7,10.4-7.6c15.1-13.8-0.4-30.8,3.6-47.6c3.4-14.2,12.8-24.5,21.7-35.5
				c15.5-19.1,12.2-36.3,7.4-58.7c-8.1-37.9,31.6-48.5,42.5-79.6c7.1-20.2,4-37.9-0.1-58.3c-0.5-2.4-0.9-4.8-1.4-7.2
				c-5.5-14.8-14.2-27.5-16.5-43.4c-2.2-15.1,1.6-31.2,6.6-45.3c6.5-18.4,13.1-36.2,5.7-55.6c-6.8-17.8-17.2-31.3-33.3-41.9
				c-15.6-10.3-32.6-18.5-50.8-23.1c-16.4-4.2-33.4-6.3-48.7-13.8c-35.5-17.2-72.8-2.6-108.5,7.4c-0.9,0.2-1.4-1.1-0.6-1.5
				c18.3-9.2,39-18.5,60-21.7c-11.3-3.2-21.7-8.9-33.3-12c-18.2-4.8-34.9-1-53.1-1.4c-12.8-0.3-25.1-1.8-37.8-1.2
				c-7.7,1.3-15.6,3.3-21.7,6.7c-8.4,4.6-25.2,3.3-20.3-2.4c4.1-10,8.9-19.7,12.2-30.1c5.2-16.5,8-33.9,12-50.8
				c4-16.8,6.8-33.8,10.7-50.5c2.4-10,12.8-42.9,13.6-43.6c14.4-23.6,14.5-54.2,15.9-81c1.7-30.6,1.7-61.3-1-91.8
				c-2.4-27.2-15-61.6-41-75.8c-27.8-15.2-62.7-8.2-76.7,21.4c-12.3,26.1-15.8,55-26.4,81.6c-10.7,26.7-25.4,52.3-38.1,78.1
				c-7.1,14.4-13.2,28-15.7,44c-1.9,12.2-2.9,24.6-5.8,36.7c-3.1,13-7.1,26.6-12.9,38.7c-2.6,5.4-5.8,10.5-9.1,15.6
				c-3.3,8.7-6.8,17.4-11.6,25.3c-10.8,17.8-26.1,31.6-42.6,44.1c-42.9,32.4-86.7,61-117.2,106.5c-14.9,22.2-32.8,46.8-39.4,73
				c-6.1,24.3-8.1,50.7-8.3,75.7C-8.7-821.9-9.5-807.2-10.3-792.2"/>
		</g>
		<path class="st1" d="M682-609c0-19.9-152-36.1-339.5-36.1S3-628.9,3-609"/>
	</g>
	<g>
		<path class="st2" d="M147.4-596.7c-38.3-5.8-40.1-20-5.7-25.7c32.1-5.1,80.1-3.4,119-3.4c54.9,0,107.6-1.1,162.5-2.3
			c45.8-0.6,164.8-3.4,164.8,13.1c0,14.2-66.4,22.2-114.5,25c-54.9,3.4-130.1,5-185.4,3.6C199.5-588.5,147.4-596.7,147.4-596.7
			L147.4-596.7z M129.1-592.2c-42.1-7.8-44-26.6-6.3-34.2c35.2-6.8,88-4.5,130.7-4.5c60.3,0,118.1-1.5,178.5-3
			c50.3-0.8,181-4.5,181,17.4c0,18.9-72.9,29.5-125.7,33.3c-60.3,4.5-142.8,6.7-203.6,4.9C186.3-581.2,129.1-592.1,129.1-592.2
			L129.1-592.2z M194.9-606.6c-5.5-9.4,235.1-9.6,283.1-7.2c69.3,3.4,44.1,11.3-12.6,13.3c-42,2-86.1,2-128,1.5
			C314.3-599,200.3-597.2,194.9-606.6z M156.9-606.8c-6.7-16.6,285.7-17,343.9-12.7c84.1,6.1,53.5,20-15.3,23.4
			c-51,3.5-104.5,3.5-155.5,2.6C301.9-593.4,163.5-590.2,156.9-606.8L156.9-606.8z"/>
		<path class="st3" d="M263.3-607.3l8.8-0.5c5.6-0.3,13.6-0.7,23.3-1.1l15.6-0.3c5.5-0.1,11.4-0.3,17.4-0.2c6,0,12.3,0,18.6,0.1
			c6.3,0,12.8,0.2,19.2,0.2l19.2,0.4l18.6,0.4l17.3,0.3c5.5,0.2,10.7,0.1,15.5,0.1c4.8,0,9.2,0.1,13.1,0l10.1-0.3l8.8-0.2l-8.8,0.6
			l-10.1,0.7c-3.9,0.2-8.3,0.3-13.2,0.4c-4.8,0.1-10.1,0.3-15.6,0.3l-17.4,0c-12.1-0.1-24.9-0.3-37.8-0.5
			c-6.4-0.1-12.8-0.3-19.2-0.3l-18.6-0.3c-6-0.1-11.8-0.1-17.3-0.1l-15.6-0.1l-23.3,0.2L263.3-607.3L263.3-607.3z"/>
	</g>
	<path class="st4" d="M352-471.3c-8.7-1.7-18.7-9.8-26.9-13.2c-7.6-3.2-14.4-7.9-21.6-11.9c-14.6-8-27.2-15.3-40.3-25.5
		c-1.2-0.9,0.3-2.7,1.5-2c13.1,7.7,26.7,13.1,40.5,18.2c0.5-3.3,0.8-6.6,1.5-9.8c0.2-0.8,1.5-0.8,1.7,0c0.9,4,2.4,7.8,3.3,11.8
		c0,0.2,0,0.3,0,0.4c0.6,0.2,1.3,0.5,1.9,0.7c-0.4-6.1,0.6-12.4,2.4-18c0.4-1.2,2-1.2,2.4,0c2.1,6.9,1.7,14.3,4,21.2
		c0.7,0.3,1.5,0.5,2.2,0.8c-1.6-8.4-0.3-18.7,1.5-25.6c0.3-1.1,2-1.1,2.3,0c1.5,5.4,1.9,10.9,3.3,16.3c1.1,4.5,3,8.9,3.8,13.4
		c0.8,0.3,1.6,0.6,2.3,0.9c0.1,0.1,0.3,0.1,0.4,0.2c-1.2-9.4,0-19.9,0.8-28.1c0.2-1.8,2.6-1.8,2.8,0c0.9,8,1.9,16.3,4.8,23.9
		c1.2,3.1,2.3,6.8,4.4,9.4c0.7,0.8,1.2,1.2,1.5,1.5c0.1,0.1,0.3,0.1,0.4,0.2c0.2,0,0.5,0,0.7,0c-0.7-3.1-1.4-6.1-1.9-9.2
		c-1.7-8.6,0.2-17.5,0.8-26.1c0.2-2.5,3.4-3.6,4.8-1.3c6.5,11.1,10.7,30.4,11.4,43C369.1-469.9,359.3-469.9,352-471.3z"/>
	<path class="st4" d="M382.2-462.6c-0.4,3.9-5.5,3.9-6,0c-1.7-14,0.2-27.9-2.4-42c-0.3-1.4,1.8-2,2.2-0.6
		C379.7-492,383.7-476.4,382.2-462.6z"/>
	<path class="st4" d="M387.1-463.1c0.5-9.5,0.2-19.1-0.8-28.5c-0.2-1.6,2.3-1.8,2.7-0.4c2.4,9.5,3.7,19.1,4,28.9
		C393.1-459.3,386.9-459.3,387.1-463.1z"/>
	<path class="st4" d="M402.1-462.6c-0.5-5.4,0.1-10.8-0.5-16.2c-0.2-1.9,2.9-2.3,3.3-0.5c1.2,5.3,1.2,10.7,2.4,15.9
		C408.2-459.5,402.5-458.7,402.1-462.6z"/>
	<path class="st4" d="M413.3-465.3c-0.9-3.5,0.2-7.1-0.8-10.6c-0.5-2,2.5-3.4,3.4-1.4c1.4,3.4,1.6,7.1,2.3,10.7
		C418.8-463.5,414.1-462.1,413.3-465.3z"/>
	<path class="st4" d="M426.2-469.7c-0.5-1.9-0.6-3.7-0.2-5.6c0.3-1.4,2.2-0.9,2.4,0.3c0.2,1.4,0.7,2.6,1.5,3.7
		C431.5-468.9,427-466.7,426.2-469.7z"/>
</g>
<g id="Middle_2_">
	<g id="middle_3_">
		<defs>
			<rect id="SVGID_19_" x="-13.5" y="-908.5" width="745" height="300"/>
		</defs>
		<clipPath id="SVGID_20_">
			<use xlink:href="#SVGID_19_"  style="overflow:visible;"/>
		</clipPath>
		<path class="st13" d="M-10.6-791.7c-0.7,12.7-2.4,104.5-1.3,121.4c2.3,35.1,8.9,69.1,40.1,89.3c30.4,19.6,60.6,38.5,96.5,45.3
			c16.5,3.2,32.6,7.3,48.6,12.6c4.5,1.5,38.5,9.1,50.2,17.6c16.6,12,34.5,21.6,52.6,31c19.6,10.1,39.7,19.4,59,30
			c19.4,10.6,38.2,21.5,61.3,19.1c23.1-2.4,43.4-13.3,65.4-19.9c22-6.7,44.1-13.3,66-20.3c21.8-7,44.1-13.2,65.3-22
			c16.2-6.7,31.5-15.4,47.5-22.4c3.6-2.2,7.2-4.7,10.4-7.6c15.1-13.8-0.4-30.8,3.6-47.6c3.4-14.2,12.8-24.5,21.7-35.5
			c15.5-19.1,12.2-36.3,7.4-58.7c-8.1-37.9,31.6-48.5,42.5-79.6c7.1-20.2,4-37.9-0.1-58.3c-0.5-2.4-0.9-4.8-1.4-7.2
			c-5.5-14.8-14.2-27.5-16.5-43.4c-2.2-15.1,1.6-31.2,6.6-45.3c6.5-18.4,13.1-36.2,5.7-55.6c-6.8-17.8-17.2-31.3-33.3-41.9
			c-15.6-10.3-32.6-18.5-50.8-23.1c-16.4-4.2-33.4-6.3-48.7-13.8c-35.5-17.2-72.8-2.6-108.5,7.4c-0.9,0.2-1.4-1.1-0.6-1.5
			c18.3-9.2,39-18.5,60-21.7c-11.3-3.2-21.7-8.9-33.3-12c-18.2-4.8-34.9-1-53.1-1.4c-12.8-0.3-25.1-1.8-37.8-1.2
			c-7.7,1.3-15.6,3.3-21.7,6.7c-8.4,4.6-25.2,3.3-20.3-2.4c4.1-10,8.9-19.7,12.2-30.1c5.2-16.5,8-33.9,12-50.8
			c4-16.8,6.8-33.8,10.7-50.5c2.4-10,12.8-42.9,13.6-43.6c14.4-23.6,14.5-54.2,15.9-81c1.7-30.6,1.7-61.3-1-91.8
			c-2.4-27.2-15-61.6-41-75.8c-27.8-15.2-62.7-8.2-76.7,21.4c-12.3,26.1-15.8,55-26.4,81.6c-10.7,26.7-25.4,52.3-38.1,78.1
			c-7.1,14.4-13.2,28-15.7,44c-1.9,12.2-2.9,24.6-5.8,36.7c-3.1,13-7.1,26.6-12.9,38.7c-2.6,5.4-5.8,10.5-9.1,15.6
			c-3.3,8.7-6.8,17.4-11.6,25.3c-10.8,17.8-26.1,31.6-42.6,44.1c-42.9,32.4-86.7,61-117.2,106.5c-14.9,22.2-32.8,46.8-39.4,73
			c-6.1,24.3-8.1,50.7-8.3,75.7C-9-821.4-9.8-806.7-10.6-791.7"/>
	</g>
	<path d="M720-907.5c0-22.9-161.4-41.5-360.6-41.5S-1.1-930.4-1.1-907.5"/>
	<g>
		<path class="st2" d="M95.5-890.6c-43-7.3-11.2-25,27.3-32.1c36-6.4,90-4.2,133.7-4.2c61.7,0,120.8-1.4,182.5-2.8
			c51.4-0.7,185.1-4.2,185.1,16.3c0,17.7-74.5,27.6-128.5,31.1c-61.7,4.2-146.2,7.4-208.2,4.5C146.9-884.2,95.5-890.5,95.5-890.6
			L95.5-890.6z M63.5-880.8c-51-10.7-27.7-37.1,17.9-47.5c42.6-9.4,99.1-4.5,150.8-4.5c73.1,0,143.1-2.1,216.2-4.2
			c60.9-1,219.2-6.3,219.2,24c0,22.7-5.5,37.2-113.9,46.1c-73.1,6.3-232.6,11.8-306.2,9.3C129.7-861.6,63.5-880.8,63.5-880.8
			L63.5-880.8z M81.7-885.5c-47.9-9.7-30.9-32.8,12.1-42.2c40.1-8.5,100.2-5.7,148.9-5.7c68.7,0,134.5-1.9,203.2-3.8
			c57.2-0.9,206.1-5.7,206.1,21.7c0,23.6-38.8,37.5-143.1,41.5c-69.1,2.6-162.7,8.3-231.9,6C166-871.4,81.7-885.5,81.7-885.5
			L81.7-885.5z M164.7-904.5c-6.1-11.8,281.8-10.6,335.7-7.6c77.8,4.3,49.5,14.1-14.1,16.6c-47.1,2.5-96.6,2.5-143.7,1.8
			C316.5-893.6,170.8-892.7,164.7-904.5L164.7-904.5z M117.2-904.5c-7.5-20.7,343.3-19.9,408.8-14.5c94.5,7.6,60.1,24.9-17.2,29.2
			c-57.2,4.3-117.4,4.3-174.6,3.2C302.7-886.6,124.7-883.8,117.2-904.5L117.2-904.5z"/>
		<path class="st3" d="M228.3-903.8l10.9-0.3c7-0.1,16.9-0.4,28.8-0.5c6,0,12.4-0.1,19.3-0.3c6.8-0.1,14-0.3,21.5-0.5l23-0.4
			l23.7-0.3c15.9-0.1,31.8-0.3,46.7-0.3h21.5c6.8,0,13.3,0.1,19.3,0.2c11.9,0.2,21.9,0.5,28.8,0.6l10.9,0.3l-10.9,0.3
			c-7,0.1-16.9,0.4-28.8,0.5c-6,0.1-12.4,0.1-19.3,0.3l-21.5,0.5c-14.9,0.3-30.8,0.5-46.7,0.7c-7.9,0.1-15.9,0.1-23.7,0.2l-23,0.1
			h-21.5c-6.8,0-13.3-0.1-19.3-0.2c-11.9-0.2-21.9-0.5-28.8-0.6C232.2-903.7,228.3-903.8,228.3-903.8L228.3-903.8z"/>
	</g>
	<path d="M2.5-609.5c0,19.9,152,36,339.6,36s339.6-16.1,339.6-36"/>
	<path class="st4" d="M391.8-785.1c-18.7,0.5-35.6-9.1-53-12.1c-25.2-4.2-44.3-11.3-65.6-19.6c-1.8-0.7-0.8-2.7,1.6-2.2
		c17,3.6,33.5,7.6,50.4,11.1c0.6-3,1.5-5.9,2.4-8.8c0.2-0.6,2-0.6,2.2,0c0.8,3.2,1.4,6.5,1.9,9.7c2.3,0,4.6-0.1,6.9-0.2
		c-0.7-8-0.5-15.7,0.8-23.8c0.1-0.7,2-0.7,2.1,0c0.8,5.3,0.8,10.9,3.1,16c1.1,2.4,2.6,4.7,3.6,7c1-0.1,2-0.2,2.9-0.3
		c-2.3-12.1-1.1-24.8,3.6-36.4c0.4-0.9,2.9-0.7,2.8,0.2c-1.1,8-0.2,15.9,2.2,23.8c1,3.4,2.7,6.9,3.9,10.4c0.8-0.2,1.7-0.4,2.5-0.6
		c-1.5-13.1,3.2-26.3,6.6-39.3c0.2-0.9,2.4-0.5,2.6,0.2c1.9,7.9,2,16.3,2.3,24.3c0.1,2.7,0.5,5.3,1,8c3-3,3.7-6,4.2-9.1
		c0.1-0.6,0.2-1.3,0.3-1.9c0,0,0-0.1,0-0.1c1.2-8,2.4-15.9,5-23.8c0.4-1.1,3.1-0.7,3.3,0.2c2.3,10.5,2,21.2,2.4,31.8
		c0.4,10.6,3.6,20.8,5.1,31.3C399.2-786.8,395.4-785.2,391.8-785.1z"/>
	<path class="st4" d="M407.3-788.3c-0.3-20.9-6-42.6-3.4-63.3c0.2-1.4,2.5-2,2.8-0.4c3.5,20.7,8.7,42.6,8.1,63.7
		C414.6-783.7,407.4-783.7,407.3-788.3z"/>
	<path class="st4" d="M421.2-791.4c-1.2-6.2-0.7-12.1-0.5-18.3c0.2-5.8-0.6-11.5-0.4-17.2c0.1-2,2.9-1.9,3.1,0
		c0.6,5.8,2.4,11.4,2.6,17.2c0.2,5.6,0.1,11.2,1.3,16.6C428.2-789.1,422-787.4,421.2-791.4z"/>
	<path class="st4" d="M435.6-798.5c-0.6-7-0.6-14-1.2-20.9c-0.2-2,3.1-2.4,3.5-0.5c1.6,6.8,2.3,13.7,3.5,20.6
		C442.2-795,435.9-794.2,435.6-798.5z"/>
	<path class="st4" d="M449.2-798.9c0-5.2,0.5-10.5-0.5-15.7c-0.5-2.4,2.9-3.3,3.6-1c1.7,5.4,1.8,11.1,2.3,16.7
		C454.9-795.5,449.1-795.4,449.2-798.9z"/>
	<path class="st4" d="M463.1-802.5c-0.7-4.4-0.1-8.7,0.3-13.1c0.2-2.3,3.4-2.3,3.6,0c0.3,3.9,0.2,7.8,1.3,11.6
		C469.3-800.5,463.6-799.1,463.1-802.5z"/>
	<path class="st4" d="M478.2-807c0-3.2,0.1-6.3-0.3-9.5c-0.3-2.3,3.3-2.6,3.9-0.5c0.9,3.3,1.2,6.7,1.7,10
		C483.9-803.7,478.2-803.5,478.2-807z"/>
	<path class="st4" d="M389.9-673.9c-0.6,10.7-4.1,23.5-17.8,19.7c-8.4-2.3-15.4-6.4-23-10.5c-10.4-5.6-21.6-9.7-32.4-14.3
		c-18.1-7.8-36.4-17.2-51.5-29.9c-1.1-1,0.3-2.8,1.6-2c16.8,10.8,35.9,16.2,54.6,22.2c-0.4-5-1-9.8-0.3-14.9
		c0.7-5.3,1.6-10.5,2.3-15.7c0.2-1.2,2.1-1.1,2.3,0c1.3,6.6,0.4,13.5,2,19.9c1.2,4.8,3.1,9,3.3,14c0.6,0.2,1.2,0.4,1.8,0.6
		c-0.9-15.5,2.4-30.5,4.7-45.9c0.2-1.2,1.9-0.8,2,0.3c0.8,8.2,1,16.5,2,24.7c1,8.5,3.6,16.8,3,25.4c1.2,0.5,2.4,1,3.6,1.6
		c-0.8-7.2-0.2-14.8-0.3-21.8c0-9.4,0.4-18.4,3.1-27.5c0.6-2,3.9-1.7,3.7,0.5c-1.8,17.8,3.1,38.2,7.8,55.3c0.1,0.5,0.2,0.9,0.2,1.4
		c0.5,0.3,1.1,0.6,1.7,1c-4.3-20.6-4.2-40.4-1.8-61.6c0.2-1.6,2.3-1.6,2.5,0c1.5,12.1,2.9,24.2,5.8,36.1c2.1,8.6,5.5,17.3,7.1,26
		c0.7-6.1,0.5-12.3,0.4-18.4c-0.3-14.6-4.1-29-2.2-43.6c0.3-2,3.5-2.9,3.9-0.5C383.2-713.3,391-693.3,389.9-673.9z"/>
	<path class="st4" d="M399.9-654.8c-3.6-20.8-1.5-43.8-0.6-64.8c0.1-1.6,2.3-1.6,2.4,0c0.9,21.3,4.1,42.5,6.2,63.7
		C408.4-651.3,400.7-650.2,399.9-654.8z"/>
	<path class="st4" d="M411.8-651.6c-0.3-14.5,0.4-28.8-1.5-43.3c-0.2-1.4,2-1.6,2.4-0.3c3.7,14.1,6.3,28.9,6.1,43.6
		C418.7-647.1,411.9-647.1,411.8-651.6z"/>
	<path class="st4" d="M428.7-655.9c0.5-10.8,2.9-22-0.9-32.5c-0.5-1.4,1.7-2.3,2.4-1c5.2,10.3,4.6,22.2,4.9,33.5
		C435.2-651.8,428.6-651.8,428.7-655.9z"/>
	<path class="st4" d="M448.4-661.1c-0.2,4.1-6.2,4.1-6.4,0c-0.3-7.9,0.7-15.8-0.1-23.8c-0.3-2.6,4-3.2,4.6-0.6
		C448.2-677.5,448.8-669.2,448.4-661.1z"/>
	<path class="st4" d="M455-668.7c0.3-5.1,0.8-10.1,0.3-15.2c-0.2-2.6,4-3.1,4.5-0.6c1,5.2,1.1,10.5,1.4,15.8
		C461.3-664.7,454.8-664.7,455-668.7z"/>
	<path class="st4" d="M469.2-677.2c0-3.2,0.2-6.4-0.9-9.4c-0.9-2.4,3-4,4.1-1.7c1.7,3.5,1.8,7.3,2.2,11.1
		C474.8-673.8,469.2-673.8,469.2-677.2z"/>
	<path class="st4" d="M367.7-574c-17.7-1.9-38.4-8.8-54.6-14.9c-20-7.5-39.3-16.8-58.3-25.9c-1.4-0.7-0.2-2.4,1.3-1.8
		c12.9,5.3,25.9,9.8,39.3,13.5c-0.5-4.6,1.3-9.9,3-14c0.3-0.6,1.5-0.8,1.7,0c0.4,2.4,0.3,4.8,0.5,7.2c0.1,2.6,0.8,4.8,1.5,7.3
		c0.1,0.5,0.1,0.9,0,1.3c1.5,0.4,3.1,0.8,4.6,1.2c-1-8.4,0.9-17.4,2-25.7c0.2-1.4,2.4-1.4,2.5,0c0.7,5.1,1.6,10.1,2.2,15.2
		c0.5,4.3,2.4,8.3,1.6,12.5c0.8,0.2,1.6,0.4,2.4,0.6c0.4,0.1,0.9,0.2,1.3,0.3c-0.3-3.9,0.4-7.9,0.9-11.8c0.9-7.2,2.3-14.3,2.8-21.5
		c0.1-1.5,2.5-1.4,2.7,0c1.9,11.8,0.3,24.8,5.4,36.1c0,0,0,0.1,0,0.1c0.8,0.2,1.7,0.4,2.5,0.6c-3.2-11.6-1.1-26,2.6-36.4
		c0.3-0.8,1.7-0.8,2,0c1.8,5.9,1.1,12.1,1.9,18.2c1,7.7,3.6,14.2,7.2,21.3c0.1,0.2,0.2,0.4,0.2,0.6c0.1,0,0.2,0.1,0.3,0.1
		c-1.5-4.6-1.5-9.5-1.6-14.3c-0.2-7.9-1-16,0.5-23.8c0.2-1.1,2.3-1.1,2.6,0c2.6,11.9,4.6,22.8,9.9,33.7c-0.6-2.7-1.2-5.3-1.7-7.9
		c-1.1-6.1,0.7-12.7,1.4-18.7c0.3-2.8,4.9-2.8,5.3,0c1.8,13.6,6.8,27,10.2,40.3C374.6-577.7,372.1-573.6,367.7-574z"/>
	<path class="st4" d="M385.1-576c-5.7-13.6-4.3-27.3-7.4-41.4c-0.2-1.1,1.5-1.6,1.9-0.5c2.6,7.5,4,15.2,6.1,22.9
		c1.7,6.2,4.7,11.9,5.7,18.2C391.9-573.3,386.3-573.2,385.1-576z"/>
	<path class="st4" d="M668.6-744.8c-7,11.7-8.6,25.6-16.9,36.6c-2.4,3.2-6.9-0.3-4.3-3.3c8.6-10.1,11.8-23.6,19.8-34.1
		C667.8-746.5,669.2-745.7,668.6-744.8z"/>
	<path class="st4" d="M635.3-703.6c4.2-6.6,7.3-13.8,12.2-20c0.5-0.6,1.4,0.2,1,0.8c-3.9,6.8-5.9,14.5-9.3,21.5
		C637.9-698.7,633.8-701.1,635.3-703.6z"/>
	<path class="st4" d="M624-607.3c-1.6,4.8-3.9,9.2-6.3,13.6c-1.3,2.5-5.3,0-3.7-2.2c2.9-3.9,5.8-7.9,8.1-12.3
		C622.6-609.2,624.4-608.4,624-607.3z"/>
	<path class="st4" d="M625.2-599.5c1.7-3.2,4.4-6,6.3-9c2.2-3.4,4.1-6.9,5.3-10.7c0.5-1.4,2.5-0.8,2.2,0.6
		c-1.6,7.3-5,16.5-10.1,22.1C627.1-594.6,624-597.2,625.2-599.5z"/>
	<path class="st4" d="M641.4-602.9c-1.4,2.1-5.3,0.8-4.3-1.8c4-9.8,11-18.2,15-28.1c0.4-1,1.7-0.6,1.5,0.4
		C651.8-622.3,647.2-611.3,641.4-602.9z"/>
	<path class="st4" d="M653.3-609.4c-1.1,2.1-4.6,0.6-3.8-1.6c3.6-10.7,13.2-18.2,15.5-29.6c0.2-0.9,1.6-0.7,1.6,0.2
		C665.8-629,658.3-619.3,653.3-609.4z"/>
	<path class="st4" d="M666-720.3c4.8-13.1,13.1-24.8,15.1-38.8c0.2-1.2,2.2-0.9,2.2,0.3c-0.5,14.2-7.2,26.9-12,39.9
		C670.1-715.5,664.8-717,666-720.3z"/>
	<path class="st4" d="M684-729.5c-2.2,3.2-6.8,0.4-5.1-3c6.3-12.9,16.8-24.9,17.3-39.9c0-1.2,1.9-1.3,1.9,0
		C698.2-757.3,692.4-741.9,684-729.5z"/>
	<path class="st4" d="M702.2-748.2c-1.7,2.8-5.7,0.4-4.3-2.5c5-10.6,11.2-19.6,12.7-31.5c0.1-0.9,1.6-1.3,1.8-0.2
		C714.6-770.8,708.3-757.9,702.2-748.2z"/>
	<path class="st4" d="M708.5-897.3c2.3,13.3-3.4,25.4-11.5,37.6c-1.2,1.8-5.6,1.2-4.8-0.8c4.5-12.4,11.3-24.3,14.3-37
		C706.6-898.3,708.3-898,708.5-897.3z"/>
	<path class="st4" d="M696.9-882.7c-3.9,10-5.6,20.4-13.9,29.4c-2,2.2-6.9,0.3-5.3-2c6.5-9.1,12-18.4,17.4-27.8
		C695.5-883.7,697.2-883.4,696.9-882.7z"/>
	<path class="st4" d="M682.4-876.5c-2.2,8.1-9.5,17.7-21,22.8c-2.6,1.2-5.1-1.2-3.3-2.5c9.1-6.3,18.6-12.4,22.3-20.6
		C680.8-877.5,682.6-877.2,682.4-876.5z"/>
	<path class="st4" d="M643.1-856.2c4.9-5.8,11.5-10.6,14.7-17.4c0.5-1,2.2-0.7,1.9,0.5c-2.3,7.4-8,12.8-12.4,19.1
		C645.5-851.6,641.2-854,643.1-856.2z"/>
	<path class="st4" d="M402-576.8c-4-9.9-7.4-19.9-6.2-30.5c0.2-1.6,2.7-1.7,2.8,0c0.4,10,5,19.1,9.6,28.1
		C410.3-575.1,403.7-572.6,402-576.8z"/>
	<path class="st4" d="M414.3-576.3c-2.4-6.5-1.4-13.5-3.6-20.1c-0.6-1.7,2.5-3,3.3-1.3c3.1,6.4,3.3,13.4,6.1,19.9
		C421.5-574.5,415.5-572.9,414.3-576.3z"/>
	<path class="st4" d="M423.7-576.7c-0.7-4.1-1.4-8.2-2.5-12.3c-0.5-2,2.5-2.6,3.3-0.8c1.7,3.9,3,7.8,4.2,11.8
		C429.6-574.9,424.2-573.7,423.7-576.7z"/>
	<path class="st4" d="M436.4-580.7c-1.1-1.9-1.1-4.2-2-6.2c-0.8-1.6,1.6-3,2.7-1.4c1.3,1.9,2.7,4.4,3,6.7
		C440.3-579.8,437.3-579.2,436.4-580.7z"/>
</g>
<g id="Index_2_">
	<g id="flash_2_">
		<defs>
			<rect id="SVGID_21_" x="-3" y="-1248" width="728" height="344"/>
		</defs>
		<clipPath id="SVGID_22_">
			<use xlink:href="#SVGID_21_"  style="overflow:visible;"/>
		</clipPath>
		<path class="st14" d="M-10.6-787.7c-0.7,12.7-2.4,104.5-1.3,121.4c2.3,35.1,8.9,69.1,40.1,89.3c30.4,19.6,60.6,38.5,96.5,45.3
			c16.5,3.2,32.6,7.3,48.6,12.6c4.5,1.5,38.5,9.1,50.2,17.6c16.6,12,34.5,21.6,52.6,31c19.6,10.1,39.7,19.4,59,30
			c19.4,10.6,38.2,21.5,61.3,19.1c23.1-2.4,43.4-13.3,65.4-19.9c22-6.7,44.1-13.3,66-20.3c21.8-7,44.1-13.2,65.3-22
			c16.2-6.7,31.5-15.4,47.5-22.4c3.6-2.2,7.2-4.7,10.4-7.6c15.1-13.8-0.4-30.8,3.6-47.6c3.4-14.2,12.8-24.5,21.7-35.5
			c15.5-19.1,12.2-36.3,7.4-58.7c-8.1-37.9,31.6-48.5,42.5-79.6c7.1-20.2,4-37.9-0.1-58.3c-0.5-2.4-0.9-4.8-1.4-7.2
			c-5.5-14.8-14.2-27.5-16.5-43.4c-2.2-15.1,1.6-31.2,6.6-45.3c6.5-18.4,13.1-36.2,5.7-55.6c-6.8-17.8-17.2-31.3-33.3-41.9
			c-15.6-10.3-32.6-18.5-50.8-23.1c-16.4-4.2-33.4-6.3-48.7-13.8c-35.5-17.2-72.8-2.6-108.5,7.4c-0.9,0.2-1.4-1.1-0.6-1.5
			c18.3-9.2,39-18.5,60-21.7c-11.3-3.2-21.7-8.9-33.3-12c-18.2-4.8-34.9-1-53.1-1.4c-12.8-0.3-25.1-1.8-37.8-1.2
			c-7.7,1.3-15.6,3.3-21.7,6.7c-8.4,4.6-25.2,3.3-20.3-2.4c4.1-10,8.9-19.7,12.2-30.1c5.2-16.5,8-33.9,12-50.8
			c4-16.8,6.8-33.8,10.7-50.5c2.4-10,12.8-42.9,13.6-43.6c14.4-23.6,14.5-54.2,15.9-81c1.7-30.6,1.7-61.3-1-91.8
			c-2.4-27.2-15-61.6-41-75.8c-27.8-15.2-62.7-8.2-76.7,21.4c-12.3,26.1-15.8,55-26.4,81.6c-10.7,26.7-25.4,52.3-38.1,78.1
			c-7.1,14.4-13.2,28-15.7,44c-1.9,12.2-2.9,24.6-5.8,36.7c-3.1,13-7.1,26.6-12.9,38.7c-2.6,5.4-5.8,10.5-9.1,15.6
			c-3.3,8.7-6.8,17.4-11.6,25.3c-10.8,17.8-26.1,31.6-42.6,44.1c-42.9,32.4-86.7,61-117.2,106.5c-14.9,22.2-32.8,46.8-39.4,73
			c-6.1,24.3-8.1,50.7-8.3,75.7C-9-817.4-9.8-802.7-10.6-787.7"/>
	</g>
	<path d="M430.5-1247.9c0-5.8-43.1-10.5-96.3-10.5s-96.3,4.8-96.3,10.6"/>
	<g>
		<path class="st2" d="M257.1-1240.3c-15.2-2.5-15.8-8.7-2.3-11.2c12.7-2.2,31.7-1.5,47-1.5c21.7,0,42.5-0.5,64.3-1
			c18.1-0.3,54.5,0.8,54.5,8c0,6.2-15.6,7.4-34.6,8.6c-21.7,1.5-51.4,2.2-73.3,1.6C277.7-1236.7,257.1-1240.3,257.1-1240.3
			L257.1-1240.3z M267.1-1241.2c-13.4-1.8-14-6-2-7.8c11.2-1.5,28.1-1,41.7-1c19.3,0,37.7-0.3,57-0.7c16-0.2,48.3,0.6,48.3,5.5
			c0,4.3-13.8,5.1-30.7,6c-19.3,1-45.6,1.5-65,1.1C285.3-1238.7,267.1-1241.2,267.1-1241.2L267.1-1241.2z M275.9-1245.2
			c-2.2-3.5,92.9-3.6,111.9-2.7c27.4,1.3,17.4,4.2-5,4.9c-16.6,0.7-36.2,2.2-52.7,2C320.9-1240.9,278-1241.7,275.9-1245.2
			L275.9-1245.2z"/>
		<path class="st3" d="M318.1-1244.6c0,0,2.7-0.2,6.9-0.4c2.1-0.1,4.5-0.1,7-0.2c2.6,0,5.3,0,7.9-0.1c1.3,0,2.7,0,4,0
			c1.3,0,2.6,0,3.9,0c2.5,0,4.9,0,7,0c4.1,0.1,6.9,0.2,6.9,0.2s-2.6,0.3-6.7,0.7c-2,0.2-4.4,0.3-7,0.5c-2.5,0.2-5.4,0.1-8.1,0.2
			c-1.4,0-2.8,0-4.2,0c-1.3,0-2.7-0.1-3.9-0.1c-2.6-0.1-4.9-0.2-7-0.3C320.8-1244.3,318.1-1244.6,318.1-1244.6L318.1-1244.6z"/>
	</g>
	<path d="M719-904.7c0,30.2-161.3,54.7-360.3,54.7S-1.6-874.5-1.6-904.7"/>
</g>
<g id="Thumb_2_">
	<g id="thumb_3_">
		<defs>
			<rect id="SVGID_23_" x="237" y="-1482" width="202" height="234"/>
		</defs>
		<clipPath id="SVGID_24_">
			<use xlink:href="#SVGID_23_"  style="overflow:visible;"/>
		</clipPath>
		<path class="st15" d="M-10.6-787.7c-0.7,12.7-2.4,104.5-1.3,121.4c2.3,35.1,8.9,69.1,40.1,89.3c30.4,19.6,60.6,38.5,96.5,45.3
			c16.5,3.2,32.6,7.3,48.6,12.6c4.5,1.5,38.5,9.1,50.2,17.6c16.6,12,34.5,21.6,52.6,31c19.6,10.1,39.7,19.4,59,30
			c19.4,10.6,38.2,21.5,61.3,19.1c23.1-2.4,43.4-13.3,65.4-19.9c22-6.7,44.1-13.3,66-20.3c21.8-7,44.1-13.2,65.3-22
			c16.2-6.7,31.5-15.4,47.5-22.4c3.6-2.2,7.2-4.7,10.4-7.6c15.1-13.8-0.4-30.8,3.6-47.6c3.4-14.2,12.8-24.5,21.7-35.5
			c15.5-19.1,12.2-36.3,7.4-58.7c-8.1-37.9,31.6-48.5,42.5-79.6c7.1-20.2,4-37.9-0.1-58.3c-0.5-2.4-0.9-4.8-1.4-7.2
			c-5.5-14.8-14.2-27.5-16.5-43.4c-2.2-15.1,1.6-31.2,6.6-45.3c6.5-18.4,13.1-36.2,5.7-55.6c-6.8-17.8-17.2-31.3-33.3-41.9
			c-15.6-10.3-32.6-18.5-50.8-23.1c-16.4-4.2-33.4-6.3-48.7-13.8c-35.5-17.2-70.8-24.7-82.4-27.7c-18.2-4.8-34.9-1-53.1-1.4
			c-12.8-0.3-25.1-1.8-37.8-1.2c-7.7,1.3-15.6,3.3-21.7,6.7c-8.4,4.6-25.2,3.3-20.3-2.4c4.1-10,8.9-19.7,12.2-30.1
			c5.2-16.5,8-33.9,12-50.8c4-16.8,6.8-33.8,10.7-50.5c2.4-10,12.8-42.9,13.6-43.6c14.4-23.6,14.5-54.2,15.9-81
			c1.7-30.6,1.7-61.3-1-91.8c-2.4-27.2-15-61.6-41-75.8c-27.8-15.2-62.7-8.2-76.7,21.4c-12.3,26.1-15.8,55-26.4,81.6
			c-7.8,19.6-17.8,38.5-27.6,57.4c-3.6,6.9-7.1,13.8-10.5,20.7c-7.1,14.4-13.2,28-15.7,44c-1.9,12.2-2.9,24.6-5.8,36.7
			c-3.1,13-7.1,26.6-12.9,38.7c-2.6,5.4-5.8,10.5-9.1,15.6c-3.3,8.7-6.8,17.4-11.6,25.3c-10.8,17.8-26.1,31.6-42.6,44.1
			c-42.9,32.4-86.7,61-117.2,106.5c-14.9,22.2-32.8,46.8-39.4,73c-6.1,24.3-8.1,50.7-8.3,75.7C-9-817.4-9.8-802.7-10.6-787.7"/>
	</g>
	<path d="M237.9-1249.1c0,13.9,43.1,25.2,96.4,25.2s96.3-11.3,96.3-25.2"/>
	<path class="st4" d="M324-1272.2c9,1.9,17.8,5,27,6.2c22.8,3.1,46.9,6.4,69.9,6.3c2.1,0,2.5,3.1,0.5,3.7c-12,3.3-23.8,2.3-36,0.7
		c-12-1.5-24.3-1.5-36.2-4c-11.7-2.4-22.9-6.7-34.4-10.1c-8-2.4-15.3-4.9-21.4-10.6c-0.7-0.7,0.2-1.9,1.1-1.4
		C303.5-1275.2,313.7-1274.4,324-1272.2z"/>
</g>
<g id="Thumb_3_">
	<g id="thumb_4_">
		<defs>
			<rect id="SVGID_25_" x="251" y="-1" width="202" height="234"/>
		</defs>
		<clipPath id="SVGID_26_">
			<use xlink:href="#SVGID_25_"  style="overflow:visible;"/>
		</clipPath>
		<path class="st16" d="M3.4,693.3C2.7,706,1,797.7,2.1,814.7c2.3,35.1,8.9,69.1,40.1,89.3c30.4,19.6,60.6,38.5,96.5,45.3
			c16.5,3.2,32.6,7.3,48.6,12.6c4.5,1.5,38.5,9.1,50.2,17.6c16.6,12,34.5,21.6,52.6,31c19.6,10.1,39.7,19.4,59,30
			c19.4,10.6,38.2,21.5,61.3,19.1c23.1-2.4,43.4-13.3,65.4-19.9c22-6.7,44.1-13.3,66-20.3c21.8-7,44.1-13.2,65.3-22
			c16.2-6.7,31.5-15.4,47.5-22.4c3.6-2.2,7.2-4.7,10.4-7.6c15.1-13.8-0.4-30.8,3.6-47.6c3.4-14.2,12.8-24.5,21.7-35.5
			c15.5-19.1,12.2-36.3,7.4-58.7c-8.1-37.9,31.6-48.5,42.5-79.6c7.1-20.2,4-37.9-0.1-58.3c-0.5-2.4-0.9-4.8-1.4-7.2
			c-5.5-14.8-14.2-27.5-16.5-43.4c-2.2-15.1,1.6-31.2,6.6-45.3c6.5-18.4,13.1-36.2,5.7-55.6c-6.8-17.8-17.2-31.3-33.3-41.9
			c-15.6-10.3-32.6-18.5-50.8-23.1c-16.4-4.2-33.4-6.3-48.7-13.8c-35.5-17.2-70.8-24.7-82.4-27.7c-18.2-4.8-34.9-1-53.1-1.4
			c-12.8-0.3-25.1-1.8-37.8-1.2c-7.7,1.3-15.6,3.3-21.7,6.7c-8.4,4.6-25.2,3.3-20.3-2.4c4.1-10,8.9-19.7,12.2-30.1
			c5.2-16.5,8-33.9,12-50.8c4-16.8,6.8-33.8,10.7-50.5c2.4-10,12.8-42.9,13.6-43.6c14.4-23.6,14.5-54.2,15.9-81
			c1.7-30.6,1.7-61.3-1-91.8c-2.4-27.2-15-61.6-41-75.8C381-7.4,346.1-0.4,332.1,29.2c-12.3,26.1-15.8,55-26.4,81.6
			c-7.8,19.6-17.8,38.5-27.6,57.4c-3.6,6.9-7.1,13.8-10.5,20.7c-7.1,14.4-13.2,28-15.7,44c-1.9,12.2-2.9,24.6-5.8,36.7
			c-3.1,13-7.1,26.6-12.9,38.7c-2.6,5.4-5.8,10.5-9.1,15.6c-3.3,8.7-6.8,17.4-11.6,25.3c-10.8,17.8-26.1,31.6-42.6,44.1
			c-42.9,32.4-86.7,61-117.2,106.5c-14.9,22.2-32.8,46.8-39.4,73c-6.1,24.3-8.1,50.7-8.3,75.7C5,663.6,4.2,678.3,3.4,693.3"/>
	</g>
	<path d="M251.9,231.9c0,13.9,43.1,25.2,96.4,25.2s96.3-11.3,96.3-25.2"/>
	<path class="st4" d="M338,208.8c9,1.9,17.8,5,27,6.2c22.8,3.1,46.9,6.4,69.9,6.3c2.1,0,2.5,3.1,0.5,3.7c-12,3.3-23.8,2.3-36,0.7
		c-12-1.5-24.3-1.5-36.2-4c-11.7-2.4-22.9-6.7-34.4-10.1c-8-2.4-15.3-4.9-21.4-10.6c-0.7-0.7,0.2-1.9,1.1-1.4
		C317.5,205.8,327.7,206.6,338,208.8z"/>
</g>
</svg>
